SplineFontDB: 3.2
FontName: mononoki-BoldItalic
FullName: mononoki BoldItalic
FamilyName: mononoki
Weight: Regular
Version: 1.1
ItalicAngle: -9
UnderlinePosition: 0
UnderlineWidth: 0
Ascent: 819
Descent: 205
InvalidEm: 1
UFOAscent: 770
UFODescent: -250
LayerCount: 2
Layer: 0 0 "Back" 1
Layer: 1 0 "Fore" 0
StyleMap: 0x0021
FSType: 0
OS2Version: 0
OS2_WeightWidthSlopeOnly: 0
OS2_UseTypoMetrics: 0
CreationTime: 1593380042
ModificationTime: 1593380042
PfmFamily: 16
TTFWeight: 700
TTFWidth: 5
LineGap: 0
VLineGap: 0
OS2TypoAscent: 0
OS2TypoAOffset: 1
OS2TypoDescent: 0
OS2TypoDOffset: 1
OS2TypoLinegap: 0
OS2WinAscent: 900
OS2WinAOffset: 0
OS2WinDescent: 250
OS2WinDOffset: 0
HheadAscent: 0
HheadAOffset: 1
HheadDescent: 0
HheadDOffset: 1
OS2CapHeight: 720
OS2XHeight: 520
OS2Vendor: 'PfEd'
DEI: 91125
LangName: 1033 "" "" "" "" "" "" "" "" "" "Matthias Tellen" "" "" "" "" "" "" "mononoki" "BoldItalic"
PickledDataWithLists: "(dp0
VGSDimensionPlugin.Dimensions
p1
(dp2
V8A9476DE-11F4-4864-A7B4-14D9B7165FAE
p3
(dp4
VHV
p5
I240
ssVA14B1AE3-86D5-4EA7-AE2F-7B4FA04DAB2E
p6
(dp7
ssVcom.schriftgestaltung.disablesAutomaticAlignment
p8
I01
sVcom.schriftgestaltung.fontMaster.userData
p9
(dp10
VGSOffsetHorizontal
p11
I10
sVGSOffsetVertical
p12
I10
ssVcom.schriftgestaltung.fontMasterID
p13
VC492240F-DFB2-48B7-8D1C-81E7E6E3599E
p14
sVcom.schriftgestaltung.glyphOrder
p15
I00
sVcom.schriftgestaltung.useNiceNames
p16
I00
sVcom.schriftgestaltung.weight
p17
VBold
p18
sVcom.schriftgestaltung.weightValue
p19
I200
sVcom.typemytype.robofont.layerOrder
p20
(lp21
Vbackground
p22
asVpublic.glyphOrder
p23
(lp24
VA
p25
aVAacute
p26
aVAbreve
p27
aVAcircumflex
p28
aVAdieresis
p29
aVAgrave
p30
aVAmacron
p31
aVAogonek
p32
aVAring
p33
aVAtilde
p34
aVAE
p35
aVB
p36
aVC
p37
aVCacute
p38
aVCcaron
p39
aVCcedilla
p40
aVCcircumflex
p41
aVD
p42
aVEth
p43
aVDcaron
p44
aVDcroat
p45
aVE
p46
aVEacute
p47
aVEcaron
p48
aVEcircumflex
p49
aVEdieresis
p50
aVEdotaccent
p51
aVEgrave
p52
aVEmacron
p53
aVEogonek
p54
aVF
p55
aVG

StartChar: .notdef
Encoding: 65536 -1 0
GlifName: _notdef
Width: 575
VWidth: 0
Flags: W
LayerCount: 2
Fore
SplineSet
165 720 m 257
 145 720 127 705 124 685 c 257
 21 35 l 257
 18 15 31 0 51 0 c 257
 442 0 l 257
 463 0 479 15 482 35 c 257
 585 685 l 257
 589 706 577 720 556 720 c 257
 165 720 l 257
483 651 m 257
 314 425 l 257
 217 651 l 257
 483 651 l 257
175 569 m 257
 265 360 l 257
 109 152 l 257
 175 569 l 257
294 296 m 257
 392 69 l 257
 124 69 l 257
 294 296 l 257
342 360 m 257
 499 570 l 257
 433 151 l 257
 342 360 l 257
EndSplineSet
PickledDataWithLists: "(dp0
Vcom.schriftgestaltung.Glyphs.lastChange
p1
V2015-12-22 16:32:54 +0000
p2
s."
EndChar

StartChar: A
Encoding: 65 65 1
GlifName: A_
Width: 575
VWidth: 0
Flags: W
AnchorPoint: "ogonek" 499 10 basechar 0
AnchorPoint: "bottom" 259 0 basechar 0
AnchorPoint: "top" 323 700 basechar 0
LayerCount: 2
Fore
SplineSet
479 633 m 258
 474 693 422 730 355 730 c 256
 289 730 240 693 214 634 c 258
 -28 40 l 257
 -36 17 -26 0 -2 0 c 258
 33 0 l 258
 53 0 69 11 76 30 c 257
 154 220 l 257
 409 220 l 257
 427 30 l 257
 428 10 441 0 460 0 c 258
 496 0 l 258
 520 0 536 18 533 41 c 257
 479 633 l 258
315 615 m 257
 319 626 332 634 347 634 c 256
 362 634 373 626 373 615 c 257
 401 316 l 257
 193 316 l 257
 315 615 l 257
EndSplineSet
PickledDataWithLists: "(dp0
Vcom.schriftgestaltung.Glyphs.lastChange
p1
V2016-06-09 18:44:34 +0000
p2
s."
EndChar

StartChar: AE
Encoding: 198 198 3
GlifName: A_E_
Width: 575
VWidth: 0
Flags: W
LayerCount: 2
Fore
SplineSet
357 97 m 257
 393 326 l 257
 485 326 l 257
 506 326 523 340 526 361 c 257
 530 388 l 257
 534 409 522 423 501 423 c 257
 409 423 l 257
 441 624 l 257
 540 624 l 257
 562 624 577 637 580 659 c 257
 584 685 l 257
 588 707 577 720 555 720 c 257
 361 720 l 257
 287 720 238 692 214 634 c 257
 -28 40 l 257
 -36 17 -26 0 -2 0 c 257
 33 0 l 257
 53 0 69 11 76 30 c 257
 133 170 l 257
 264 170 l 257
 242 35 l 257
 239 14 251 0 272 0 c 257
 452 0 l 257
 474 0 489 13 492 35 c 257
 497 62 l 257
 500 84 489 97 467 97 c 257
 357 97 l 257
279 266 m 257
 172 266 l 257
 315 615 l 257
 319 625 327 631 337 633 c 257
 279 266 l 257
EndSplineSet
PickledDataWithLists: "(dp0
Vcom.schriftgestaltung.Glyphs.lastChange
p1
V2016-06-09 18:35:33 +0000
p2
s."
EndChar

StartChar: B
Encoding: 66 66 14
GlifName: B_
Width: 575
VWidth: 0
Flags: W
LayerCount: 2
Fore
SplineSet
58 35 m 257
 55 15 67 0 87 0 c 257
 224 0 l 257
 386 0 518 81 518 223 c 256
 518 297 482 354 405 382 c 257
 484 416 531 482 531 563 c 256
 531 675 440 720 318 720 c 257
 138 720 l 257
 117 720 101 705 98 685 c 257
 94 659 l 257
 91 639 102 624 123 624 c 257
 151 624 l 257
 58 35 l 257
256 624 m 257
 313 624 l 257
 399 624 432 594 432 539 c 256
 432 461 365 423 271 423 c 257
 224 423 l 257
 256 624 l 257
173 97 m 257
 209 326 l 257
 276 326 l 257
 358 326 422 300 422 223 c 256
 422 137 344 97 240 97 c 257
 173 97 l 257
EndSplineSet
PickledDataWithLists: "(dp0
Vcom.schriftgestaltung.Glyphs.lastChange
p1
V2016-06-09 18:35:33 +0000
p2
s."
EndChar

StartChar: B.hex
Encoding: 65538 -1 15
GlifName: B_.hex
Width: 575
VWidth: 0
Flags: W
LayerCount: 2
Fore
SplineSet
214 875 m 258
 214 891 205 900 189 900 c 258
 154 900 l 258
 138 900 129 891 129 875 c 258
 129 829 l 258
 129 813 137 804 154 804 c 258
 189 804 l 258
 205 804 214 812 214 829 c 258
 214 875 l 258
502 875 m 258
 502 891 493 900 477 900 c 258
 442 900 l 258
 426 900 417 891 417 875 c 258
 417 829 l 258
 417 813 425 804 442 804 c 258
 477 804 l 258
 493 804 502 812 502 829 c 258
 502 875 l 258
646 875 m 258
 646 891 637 900 621 900 c 258
 586 900 l 258
 570 900 561 891 561 875 c 258
 561 829 l 258
 561 813 569 804 586 804 c 258
 621 804 l 258
 637 804 646 812 646 829 c 258
 646 875 l 258
EndSplineSet
Refer: 14 66 N 1 0 0 1 0 0 2
PickledDataWithLists: "(dp0
Vcom.schriftgestaltung.Glyphs.lastChange
p1
V2016-06-09 18:35:33 +0000
p2
s."
EndChar

StartChar: C
Encoding: 67 67 17
GlifName: C_
Width: 575
VWidth: 0
Flags: W
AnchorPoint: "top" 361 720 basechar 0
AnchorPoint: "bottom" 247 0 basechar 0
LayerCount: 2
Fore
SplineSet
420 100 m 256
 376 85 340 78 309 78 c 256
 225 78 182 131 182 228 c 256
 182 258 185 282 203 400 c 256
 227 552 294 632 397 632 c 256
 428 632 462 625 501 610 c 256
 519 602 537 609 548 629 c 258
 562 653 l 258
 574 674 569 691 552 699 c 256
 507 720 461 730 414 730 c 256
 248 730 130 608 97 400 c 256
 81 296 76 258 76 219 c 256
 76 68 155 -20 296 -20 c 256
 343 -20 391 -10 443 11 c 256
 463 19 473 36 468 57 c 258
 462 81 l 258
 457 101 441 108 420 100 c 256
  PathStart: -2
EndSplineSet
PickledDataWithLists: "(dp0
Vcom.schriftgestaltung.Glyphs.lastChange
p1
V2016-06-09 18:35:33 +0000
p2
s."
EndChar

StartChar: C.hex
Encoding: 65539 -1 18
GlifName: C_.hex
Width: 575
VWidth: 0
Flags: W
LayerCount: 2
Fore
SplineSet
214 875 m 258
 214 891 205 900 189 900 c 258
 154 900 l 258
 138 900 129 891 129 875 c 258
 129 829 l 258
 129 813 137 804 154 804 c 258
 189 804 l 258
 205 804 214 812 214 829 c 258
 214 875 l 258
358 875 m 258
 358 891 349 900 333 900 c 258
 298 900 l 258
 282 900 273 891 273 875 c 258
 273 829 l 258
 273 813 281 804 298 804 c 258
 333 804 l 258
 349 804 358 812 358 829 c 258
 358 875 l 258
EndSplineSet
Refer: 17 67 N 1 0 0 1 0 0 2
PickledDataWithLists: "(dp0
Vcom.schriftgestaltung.Glyphs.lastChange
p1
V2016-06-09 18:35:33 +0000
p2
s."
EndChar

StartChar: D
Encoding: 68 68 24
GlifName: D_
Width: 575
VWidth: 0
Flags: W
LayerCount: 2
Fore
SplineSet
133 720 m 258
 113 720 99 708 96 688 c 258
 92 663 l 258
 88 640 101 624 125 624 c 258
 149 624 l 257
 56 39 l 258
 52 16 65 0 89 0 c 258
 143 0 l 258
 388 0 501 95 538 328 c 256
 552 413 556 442 556 483 c 256
 556 646 438 720 185 720 c 258
 133 720 l 258
172 96 m 257
 255 622 l 257
 398 613 451 575 451 483 c 256
 451 451 449 431 434 344 c 256
 406 164 342 103 172 96 c 257
  PathStart: -2
EndSplineSet
PickledDataWithLists: "(dp0
Vcom.schriftgestaltung.Glyphs.lastChange
p1
V2016-06-09 18:46:00 +0000
p2
s."
EndChar

StartChar: D.hex
Encoding: 65540 -1 25
GlifName: D_.hex
Width: 575
VWidth: 0
Flags: W
LayerCount: 2
Fore
SplineSet
214 875 m 258
 214 891 205 900 189 900 c 258
 154 900 l 258
 138 900 129 891 129 875 c 258
 129 829 l 258
 129 813 137 804 154 804 c 258
 189 804 l 258
 205 804 214 812 214 829 c 258
 214 875 l 258
358 875 m 258
 358 891 349 900 333 900 c 258
 298 900 l 258
 282 900 273 891 273 875 c 258
 273 829 l 258
 273 813 281 804 298 804 c 258
 333 804 l 258
 349 804 358 812 358 829 c 258
 358 875 l 258
646 875 m 258
 646 891 637 900 621 900 c 258
 586 900 l 258
 570 900 561 891 561 875 c 258
 561 829 l 258
 561 813 569 804 586 804 c 258
 621 804 l 258
 637 804 646 812 646 829 c 258
 646 875 l 258
EndSplineSet
Refer: 24 68 N 1 0 0 1 0 0 2
PickledDataWithLists: "(dp0
Vcom.schriftgestaltung.Glyphs.lastChange
p1
V2016-06-09 18:35:33 +0000
p2
s."
EndChar

StartChar: E
Encoding: 69 69 28
GlifName: E_
Width: 575
VWidth: 0
Flags: W
LayerCount: 2
Fore
SplineSet
156 97 m 257
 192 326 l 257
 460 326 l 257
 480 326 497 341 501 361 c 257
 505 388 l 257
 508 408 496 423 475 423 c 257
 207 423 l 257
 239 624 l 257
 528 624 l 257
 548 624 565 638 569 659 c 257
 573 685 l 257
 576 706 563 720 543 720 c 257
 184 720 l 257
 164 720 147 705 144 685 c 257
 41 35 l 257
 38 15 50 0 70 0 c 257
 451 0 l 257
 472 0 489 15 492 35 c 257
 496 62 l 257
 499 82 487 97 467 97 c 257
 156 97 l 257
EndSplineSet
PickledDataWithLists: "(dp0
Vcom.schriftgestaltung.Glyphs.lastChange
p1
V2016-06-09 18:35:33 +0000
p2
s."
EndChar

StartChar: E.hex
Encoding: 65541 -1 29
GlifName: E_.hex
Width: 575
VWidth: 0
Flags: W
LayerCount: 2
Fore
SplineSet
214 875 m 258
 214 891 205 900 189 900 c 258
 154 900 l 258
 138 900 129 891 129 875 c 258
 129 829 l 258
 129 813 137 804 154 804 c 258
 189 804 l 258
 205 804 214 812 214 829 c 258
 214 875 l 258
358 875 m 258
 358 891 349 900 333 900 c 258
 298 900 l 258
 282 900 273 891 273 875 c 258
 273 829 l 258
 273 813 281 804 298 804 c 258
 333 804 l 258
 349 804 358 812 358 829 c 258
 358 875 l 258
502 875 m 258
 502 891 493 900 477 900 c 258
 442 900 l 258
 426 900 417 891 417 875 c 258
 417 829 l 258
 417 813 425 804 442 804 c 258
 477 804 l 258
 493 804 502 812 502 829 c 258
 502 875 l 258
EndSplineSet
Refer: 28 69 N 1 0 0 1 0 0 2
PickledDataWithLists: "(dp0
Vcom.schriftgestaltung.Glyphs.lastChange
p1
V2016-06-09 18:35:33 +0000
p2
s."
EndChar

StartChar: Eth
Encoding: 208 208 40
GlifName: E_th
Width: 575
VWidth: 0
Flags: W
LayerCount: 2
Fore
SplineSet
36 337 m 258
 33 321 41 312 57 312 c 258
 280 312 l 258
 296 312 306 321 309 337 c 258
 313 364 l 258
 316 380 308 389 292 389 c 258
 69 389 l 258
 53 389 43 380 40 363 c 258
 36 337 l 258
EndSplineSet
Refer: 24 68 N 1 0 0 1 -10 0 2
PickledDataWithLists: "(dp0
Vcom.schriftgestaltung.Glyphs.lastChange
p1
V2016-06-09 18:35:33 +0000
p2
s."
EndChar

StartChar: Euro
Encoding: 8364 8364 41
GlifName: E_uro
Width: 575
VWidth: 0
Flags: W
LayerCount: 2
Fore
SplineSet
468 385 m 258
 488 385 505 400 508 420 c 258
 512 441 l 258
 515 462 502 476 482 476 c 258
 216 476 l 257
 237 565 278 634 410 634 c 256
 435 634 484 632 538 622 c 256
 558 618 577 630 584 648 c 257
 595 676 l 258
 602 696 594 713 573 717 c 256
 513 728 458 730 425 730 c 256
 206 730 139 593 111 476 c 257
 102 476 l 258
 82 476 65 462 62 441 c 258
 58 420 l 258
 55 400 68 385 88 385 c 258
 468 385 l 258
455 98 m 256
 400 89 352 87 324 87 c 256
 213 87 173 130 180 244 c 257
 445 244 l 258
 465 244 483 259 486 279 c 258
 489 300 l 258
 493 321 480 335 460 335 c 258
 80 335 l 258
 60 335 43 321 39 300 c 258
 36 279 l 258
 33 259 45 244 65 244 c 258
 74 244 l 257
 65 130 88 -10 308 -10 c 256
 339 -10 393 -9 460 3 c 256
 482 7 495 25 495 45 c 257
 493 71 l 258
 491 91 476 102 455 98 c 256
  PathStart: -2
EndSplineSet
PickledDataWithLists: "(dp0
Vcom.schriftgestaltung.Glyphs.lastChange
p1
V2015-12-22 14:04:06 +0000
p2
s."
EndChar

StartChar: F
Encoding: 70 70 42
GlifName: F_
Width: 575
VWidth: 0
Flags: W
LayerCount: 2
Fore
SplineSet
184 720 m 257
 164 720 147 705 144 685 c 257
 41 35 l 257
 38 15 50 0 70 0 c 257
 105 0 l 257
 127 0 143 15 146 35 c 257
 187 292 l 257
 476 292 l 257
 495 292 513 306 516 326 c 257
 520 353 l 257
 524 373 511 388 491 388 c 257
 202 388 l 257
 239 624 l 257
 550 624 l 257
 570 624 587 638 591 659 c 257
 595 685 l 257
 598 706 585 720 565 720 c 257
 184 720 l 257
EndSplineSet
PickledDataWithLists: "(dp0
Vcom.schriftgestaltung.Glyphs.lastChange
p1
V2016-06-09 18:35:33 +0000
p2
s."
EndChar

StartChar: F.hex
Encoding: 65542 -1 43
GlifName: F_.hex
Width: 575
VWidth: 0
Flags: W
LayerCount: 2
Fore
SplineSet
214 875 m 258
 214 891 205 900 189 900 c 258
 154 900 l 258
 138 900 129 891 129 875 c 258
 129 829 l 258
 129 813 137 804 154 804 c 258
 189 804 l 258
 205 804 214 812 214 829 c 258
 214 875 l 258
358 875 m 258
 358 891 349 900 333 900 c 258
 298 900 l 258
 282 900 273 891 273 875 c 258
 273 829 l 258
 273 813 281 804 298 804 c 258
 333 804 l 258
 349 804 358 812 358 829 c 258
 358 875 l 258
502 875 m 258
 502 891 493 900 477 900 c 258
 442 900 l 258
 426 900 417 891 417 875 c 258
 417 829 l 258
 417 813 425 804 442 804 c 258
 477 804 l 258
 493 804 502 812 502 829 c 258
 502 875 l 258
646 875 m 258
 646 891 637 900 621 900 c 258
 586 900 l 258
 570 900 561 891 561 875 c 258
 561 829 l 258
 561 813 569 804 586 804 c 258
 621 804 l 258
 637 804 646 812 646 829 c 258
 646 875 l 258
EndSplineSet
Refer: 42 70 N 1 0 0 1 0 0 2
PickledDataWithLists: "(dp0
Vcom.schriftgestaltung.Glyphs.lastChange
p1
V2016-06-09 18:35:33 +0000
p2
s."
EndChar

StartChar: G
Encoding: 71 71 44
GlifName: G_
Width: 575
VWidth: 0
Flags: W
AnchorPoint: "top" 358 700 basechar 0
AnchorPoint: "bottom" 247 0 basechar 0
LayerCount: 2
Fore
SplineSet
367 409 m 258
 345 409 329 395 326 373 c 258
 322 347 l 258
 318 325 329 312 351 312 c 258
 413 312 l 257
 378 88 l 257
 352 81 329 78 309 78 c 256
 225 78 182 131 182 228 c 256
 182 263 185 282 203 400 c 256
 227 552 294 632 397 632 c 256
 428 632 462 625 501 610 c 256
 519 602 537 609 548 629 c 258
 562 653 l 258
 574 674 569 691 552 699 c 256
 507 720 461 730 414 730 c 256
 248 730 130 608 97 400 c 256
 81 296 76 264 76 218 c 256
 76 68 155 -20 296 -20 c 256
 343 -20 393 -9 446 12 c 256
 463 19 474 33 477 51 c 258
 528 374 l 258
 531 395 520 409 499 409 c 258
 367 409 l 258
EndSplineSet
PickledDataWithLists: "(dp0
Vcom.schriftgestaltung.Glyphs.lastChange
p1
V2016-06-09 18:35:33 +0000
p2
s."
EndChar

StartChar: Gamma
Encoding: 915 915 45
GlifName: G_amma
Width: 575
VWidth: 0
Flags: W
LayerCount: 2
Fore
SplineSet
168 720 m 258
 146 720 131 707 127 685 c 258
 24 35 l 258
 21 14 33 0 54 0 c 258
 89 0 l 258
 111 0 126 13 129 35 c 258
 223 624 l 257
 538 624 l 258
 560 624 575 637 578 659 c 258
 582 685 l 258
 586 707 575 720 553 720 c 258
 168 720 l 258
EndSplineSet
PickledDataWithLists: "(dp0
Vcom.schriftgestaltung.Glyphs.lastChange
p1
V2015-12-22 16:32:37 +0000
p2
s."
EndChar

StartChar: H
Encoding: 72 72 47
GlifName: H_
Width: 575
VWidth: 0
Flags: W
AnchorPoint: "bottom" 247 0 basechar 0
AnchorPoint: "top" 361 720 basechar 0
AnchorPoint: "topleft" 93 720 basechar 0
AnchorPoint: "center" 304 360 basechar 0
LayerCount: 2
Fore
SplineSet
521 720 m 257
 502 720 484 706 481 685 c 257
 441 430 l 257
 192 430 l 257
 232 685 l 257
 235 706 224 720 202 720 c 257
 167 720 l 257
 147 720 130 705 127 685 c 257
 24 35 l 257
 21 15 33 0 53 0 c 257
 88 0 l 257
 110 0 126 15 129 35 c 257
 176 333 l 257
 425 333 l 257
 378 35 l 257
 375 15 387 0 407 0 c 257
 442 0 l 257
 464 0 480 15 483 35 c 257
 586 685 l 257
 589 706 576 720 556 720 c 257
 521 720 l 257
EndSplineSet
PickledDataWithLists: "(dp0
Vcom.schriftgestaltung.Glyphs.lastChange
p1
V2016-06-09 18:35:33 +0000
p2
s."
EndChar

StartChar: I
Encoding: 73 73 49
GlifName: I_
Width: 575
VWidth: 0
Flags: W
AnchorPoint: "ogonek" 476 10 basechar 0
AnchorPoint: "top" 361 720 basechar 0
AnchorPoint: "topleft" 93 720 basechar 0
AnchorPoint: "bottom" 247 0 basechar 0
LayerCount: 2
Fore
SplineSet
194 720 m 257
 175 720 157 706 154 685 c 257
 150 659 l 257
 147 639 159 624 179 624 c 257
 294 624 l 257
 211 97 l 257
 86 97 l 257
 66 97 48 82 45 62 c 257
 41 35 l 257
 38 15 50 0 70 0 c 257
 425 0 l 257
 447 0 463 15 466 35 c 257
 470 62 l 257
 473 82 462 97 441 97 c 257
 316 97 l 257
 399 624 l 257
 514 624 l 257
 534 624 551 638 555 659 c 257
 559 685 l 257
 562 706 549 720 529 720 c 257
 194 720 l 257
EndSplineSet
PickledDataWithLists: "(dp0
Vcom.schriftgestaltung.Glyphs.lastChange
p1
V2016-06-09 18:35:33 +0000
p2
s."
EndChar

StartChar: IJ
Encoding: 306 306 50
GlifName: I_J_
Width: 575
VWidth: 0
Flags: W
LayerCount: 2
Fore
SplineSet
164 720 m 257
 145 720 127 706 124 685 c 257
 120 659 l 257
 117 639 129 624 149 624 c 257
 164 624 l 257
 81 97 l 257
 56 97 l 257
 36 97 18 82 15 62 c 257
 11 35 l 257
 8 15 20 0 40 0 c 257
 195 0 l 257
 217 0 233 15 236 35 c 257
 240 62 l 257
 243 82 232 97 211 97 c 257
 186 97 l 257
 269 624 l 257
 284 624 l 257
 304 624 321 638 325 659 c 257
 329 685 l 257
 332 706 319 720 299 720 c 257
 164 720 l 257
426 720 m 257
 406 720 389 705 386 685 c 257
 382 659 l 257
 378 638 391 624 411 624 c 257
 454 624 l 257
 377 135 l 257
 372 103 351 97 316 97 c 257
 296 97 278 82 275 62 c 257
 271 35 l 257
 268 15 281 1 302 1 c 257
 400 1 465 27 482 135 c 257
 569 685 l 257
 572 706 561 720 539 720 c 257
 426 720 l 257
EndSplineSet
PickledDataWithLists: "(dp0
Vcom.schriftgestaltung.Glyphs.lastChange
p1
V2016-06-09 18:35:33 +0000
p2
s."
EndChar

StartChar: J
Encoding: 74 74 58
GlifName: J_
Width: 575
VWidth: 0
Flags: W
AnchorPoint: "top" 361 720 basechar 0
AnchorPoint: "bottom" 247 0 basechar 0
LayerCount: 2
Fore
SplineSet
258 720 m 257
 238 720 220 705 217 685 c 257
 213 657 l 257
 210 637 222 622 242 622 c 257
 451 622 l 257
 397 280 l 257
 374 131 304 88 220 88 c 257
 180 88 147 95 105 110 c 257
 89 118 68 109 58 91 c 257
 44 67 l 257
 33 48 37 28 55 21 c 257
 100 0 152 -10 204 -10 c 257
 333 -10 469 64 503 280 c 257
 567 685 l 257
 570 705 558 720 538 720 c 257
 258 720 l 257
EndSplineSet
PickledDataWithLists: "(dp0
Vcom.schriftgestaltung.Glyphs.lastChange
p1
V2016-06-09 18:35:33 +0000
p2
s."
EndChar

StartChar: K
Encoding: 75 75 60
GlifName: K_
Width: 575
VWidth: 0
Flags: W
LayerCount: 2
Fore
SplineSet
455 0 m 257
 483 0 499 25 486 47 c 257
 295 370 l 257
 570 674 l 257
 591 696 581 720 554 720 c 257
 501 720 l 257
 486 720 472 714 460 701 c 257
 214 419 l 257
 207 419 l 257
 249 685 l 257
 252 706 241 720 219 720 c 257
 184 720 l 257
 164 720 147 705 144 685 c 257
 41 35 l 257
 38 15 50 0 70 0 c 257
 105 0 l 257
 127 0 143 15 146 35 c 257
 192 323 l 257
 197 323 l 257
 368 20 l 257
 368 21 l 257
 375 7 387 0 403 0 c 257
 455 0 l 257
EndSplineSet
PickledDataWithLists: "(dp0
Vcom.schriftgestaltung.Glyphs.lastChange
p1
V2016-06-09 18:35:33 +0000
p2
s."
EndChar

StartChar: L
Encoding: 76 76 62
GlifName: L_
Width: 575
VWidth: 0
Flags: W
LayerCount: 2
Fore
SplineSet
156 97 m 257
 249 685 l 257
 252 706 241 720 219 720 c 257
 184 720 l 257
 164 720 147 705 144 685 c 257
 41 35 l 257
 38 15 50 0 70 0 c 257
 489 0 l 257
 510 0 527 15 530 35 c 257
 534 62 l 257
 537 82 525 97 505 97 c 257
 156 97 l 257
EndSplineSet
PickledDataWithLists: "(dp0
Vcom.schriftgestaltung.Glyphs.lastChange
p1
V2016-06-09 18:35:33 +0000
p2
s."
EndChar

StartChar: Lambda
Encoding: 923 923 64
GlifName: L_ambda
Width: 575
VWidth: 0
Flags: W
LayerCount: 2
Fore
SplineSet
362 730 m 256
 293 730 240 696 214 634 c 258
 -28 40 l 258
 -36 17 -26 0 -2 0 c 258
 33 0 l 258
 53 0 69 11 76 30 c 257
 315 615 l 258
 320 627 331 634 347 634 c 256
 363 634 372 627 373 615 c 258
 427 30 l 258
 428 10 441 0 460 0 c 258
 496 0 l 258
 520 0 536 18 533 41 c 257
 479 633 l 258
 474 695 431 730 362 730 c 256
  PathStart: -2
EndSplineSet
PickledDataWithLists: "(dp0
Vcom.schriftgestaltung.Glyphs.lastChange
p1
V2015-12-22 12:18:02 +0000
p2
s."
EndChar

StartChar: Lslash
Encoding: 321 321 67
GlifName: L_slash
Width: 575
VWidth: 0
Flags: W
LayerCount: 2
Fore
SplineSet
32 332 m 258
 19 323 13 306 21 294 c 258
 37 271 l 258
 44 261 58 259 71 267 c 258
 338 446 l 258
 351 455 356 471 348 484 c 258
 333 507 l 258
 326 517 312 520 299 512 c 258
 32 332 l 258
EndSplineSet
Refer: 62 76 N 1 0 0 1 0 0 2
PickledDataWithLists: "(dp0
Vcom.schriftgestaltung.Glyphs.lastChange
p1
V2016-06-09 18:35:33 +0000
p2
s."
EndChar

StartChar: M
Encoding: 77 77 68
GlifName: M_
Width: 575
VWidth: 0
Flags: W
LayerCount: 2
Fore
SplineSet
572 725 m 258
 556 725 l 258
 524 725 498 711 481 683 c 258
 315 431 l 257
 229 683 l 258
 220 711 200 725 168 725 c 258
 152 725 l 258
 129 725 113 712 109 690 c 258
 -14 36 l 258
 -18 16 -4 0 16 0 c 258
 50 0 l 258
 70 0 86 14 90 35 c 258
 187 540 l 257
 251 354 l 258
 255 338 267 330 285 330 c 258
 313 330 l 258
 331 330 345 338 355 354 c 258
 477 540 l 257
 415 36 l 258
 412 14 424 0 444 0 c 258
 478 0 l 258
 498 0 516 16 520 36 c 257
 603 690 l 257
 607 712 595 725 572 725 c 258
  PathStart: -2
EndSplineSet
PickledDataWithLists: "(dp0
Vcom.schriftgestaltung.Glyphs.lastChange
p1
V2016-06-09 18:35:33 +0000
p2
s."
EndChar

StartChar: N
Encoding: 78 78 70
GlifName: N_
Width: 575
VWidth: 0
Flags: W
LayerCount: 2
Fore
SplineSet
520 725 m 258
 500 725 482 710 479 689 c 258
 402 201 l 257
 247 683 l 258
 237 711 218 725 186 725 c 258
 170 725 l 258
 147 725 131 712 127 690 c 258
 24 36 l 258
 20 16 34 0 54 0 c 258
 88 0 l 258
 108 0 125 15 129 36 c 258
 204 515 l 257
 360 41 l 258
 370 13 391 0 422 0 c 258
 438 0 l 258
 461 0 477 13 480 35 c 258
 584 689 l 258
 587 709 574 725 554 725 c 258
 520 725 l 258
EndSplineSet
PickledDataWithLists: "(dp0
Vcom.schriftgestaltung.Glyphs.lastChange
p1
V2016-06-09 18:35:33 +0000
p2
s."
EndChar

StartChar: O
Encoding: 79 79 75
GlifName: O_
Width: 575
VWidth: 0
Flags: W
LayerCount: 2
Fore
SplineSet
108 467 m 258
 74 253 l 258
 48 90 113 -10 245 -10 c 256
 376 -10 473 91 499 253 c 258
 533 467 l 258
 558 629 493 730 362 730 c 256
 230 730 134 630 108 467 c 258
  PathStart: -2
179 253 m 258
 213 467 l 258
 229 567 283 634 347 634 c 256
 410 634 444 567 428 467 c 258
 394 253 l 258
 378 153 323 86 260 86 c 256
 196 86 163 153 179 253 c 258
  PathStart: -2
EndSplineSet
PickledDataWithLists: "(dp0
Vcom.schriftgestaltung.Glyphs.lastChange
p1
V2016-06-09 18:35:33 +0000
p2
s."
EndChar

StartChar: OE
Encoding: 338 338 76
GlifName: O_E_
Width: 575
VWidth: 0
Flags: W
LayerCount: 2
Fore
SplineSet
359 97 m 257
 395 326 l 257
 487 326 l 257
 507 326 524 341 528 361 c 257
 532 388 l 257
 535 408 523 423 502 423 c 257
 410 423 l 257
 442 624 l 257
 541 624 l 257
 561 624 578 638 582 659 c 257
 586 685 l 257
 589 706 576 720 556 720 c 257
 362 720 l 257
 215 720 131 607 108 457 c 257
 77 265 71 233 71 194 c 256
 71 81 123 0 248 0 c 257
 453 0 l 257
 475 0 491 15 494 35 c 257
 498 62 l 257
 501 82 490 97 469 97 c 257
 359 97 l 257
254 97 m 257
 196 102 177 145 177 203 c 256
 177 238 181 256 213 457 c 257
 227 544 260 618 337 624 c 257
 254 97 l 257
EndSplineSet
PickledDataWithLists: "(dp0
Vcom.schriftgestaltung.Glyphs.lastChange
p1
V2016-06-09 18:35:33 +0000
p2
s."
EndChar

StartChar: P
Encoding: 80 80 86
GlifName: P_
Width: 575
VWidth: 0
Flags: W
LayerCount: 2
Fore
SplineSet
183 720 m 258
 162 720 146 706 142 685 c 258
 39 35 l 258
 36 14 48 0 69 0 c 258
 104 0 l 258
 126 0 141 13 144 35 c 258
 180 260 l 257
 245 260 l 258
 421 260 566 364 566 520 c 256
 566 644 471 720 318 720 c 258
 183 720 l 258
195 356 m 257
 238 624 l 257
 303 624 l 258
 401 624 460 580 460 504 c 256
 460 416 372 356 260 356 c 258
 195 356 l 257
EndSplineSet
PickledDataWithLists: "(dp0
Vcom.schriftgestaltung.Glyphs.lastChange
p1
V2016-06-09 18:35:33 +0000
p2
s."
EndChar

StartChar: Phi
Encoding: 934 934 87
GlifName: P_hi
Width: 575
VWidth: 0
Flags: W
LayerCount: 2
Fore
SplineSet
627 659 m 258
 631 685 l 258
 635 707 624 720 602 720 c 258
 120 720 l 258
 98 720 83 707 79 685 c 258
 75 659 l 258
 72 637 83 624 104 624 c 258
 293 624 l 257
 284 568 l 257
 156 551 69 473 51 360 c 256
 33 243 99 166 218 151 c 257
 209 96 l 257
 20 96 l 258
 -1 96 -16 83 -20 61 c 258
 -24 35 l 258
 -27 13 -16 0 6 0 c 258
 488 0 l 258
 510 0 525 13 528 35 c 258
 532 61 l 258
 536 82 524 96 503 96 c 258
 314 96 l 257
 323 151 l 257
 460 170 559 264 559 397 c 256
 559 492 497 555 389 569 c 257
 398 624 l 257
 587 624 l 258
 608 624 624 638 627 659 c 258
  PathStart: -2
268 470 m 257
 233 250 l 257
 180 263 147 298 156 360 c 256
 165 416 205 455 268 470 c 257
  PathStart: -2
338 250 m 257
 373 470 l 257
 424 458 453 425 453 379 c 256
 453 317 409 267 338 250 c 257
  PathStart: -1
EndSplineSet
PickledDataWithLists: "(dp0
Vcom.schriftgestaltung.Glyphs.lastChange
p1
V2015-12-22 12:22:42 +0000
p2
s."
EndChar

StartChar: Pi
Encoding: 928 928 88
GlifName: P_i
Width: 575
VWidth: 0
Flags: W
LayerCount: 2
Fore
SplineSet
183 720 m 258
 161 720 146 707 142 685 c 258
 39 35 l 258
 36 14 48 0 69 0 c 258
 104 0 l 258
 126 0 141 13 144 35 c 258
 238 624 l 257
 453 624 l 257
 359 35 l 258
 356 14 368 0 389 0 c 258
 424 0 l 258
 446 0 461 13 464 35 c 258
 567 685 l 258
 571 707 560 720 538 720 c 258
 183 720 l 258
EndSplineSet
PickledDataWithLists: "(dp0
Vcom.schriftgestaltung.Glyphs.lastChange
p1
V2015-12-22 12:20:26 +0000
p2
s."
EndChar

StartChar: Psi
Encoding: 936 936 89
GlifName: P_si
Width: 575
VWidth: 0
Flags: W
LayerCount: 2
Fore
SplineSet
511 710 m 258
 490 710 474 696 471 675 c 258
 432 433 l 258
 423 374 386 325 339 318 c 257
 396 675 l 258
 399 697 388 710 366 710 c 258
 351 710 l 258
 330 710 314 696 311 675 c 258
 254 318 l 257
 219 322 195 360 195 409 c 256
 195 417 196 425 197 433 c 258
 236 675 l 258
 239 697 228 710 206 710 c 258
 181 710 l 258
 160 710 144 696 141 675 c 258
 102 433 l 258
 99 414 98 397 98 381 c 256
 98 291 143 242 231 234 c 257
 198 25 l 258
 194 4 206 -10 227 -10 c 258
 262 -10 l 258
 284 -10 299 3 303 25 c 258
 336 234 l 257
 442 243 508 308 527 433 c 258
 566 675 l 258
 569 697 558 710 536 710 c 258
 511 710 l 258
EndSplineSet
PickledDataWithLists: "(dp0
Vcom.schriftgestaltung.Glyphs.lastChange
p1
V2015-12-22 12:24:48 +0000
p2
s."
EndChar

StartChar: Q
Encoding: 81 81 90
GlifName: Q_
Width: 575
VWidth: 0
Flags: W
LayerCount: 2
Fore
SplineSet
484 -128 m 258
 479 -109 461 -101 441 -109 c 257
 414 -118 392 -122 368 -122 c 256
 315 -122 286 -97 302 4 c 258
 311 63 l 257
 205 63 l 257
 196 4 l 258
 170 -163 255 -220 353 -220 c 256
 389 -220 429 -212 464 -199 c 257
 486 -193 496 -173 491 -154 c 258
 484 -128 l 258
EndSplineSet
Refer: 75 79 N 1 0 0 1 0 0 2
PickledDataWithLists: "(dp0
Vcom.schriftgestaltung.Glyphs.lastChange
p1
V2016-06-09 18:35:33 +0000
p2
s."
EndChar

StartChar: R
Encoding: 82 82 91
GlifName: R_
Width: 575
VWidth: 0
Flags: W
LayerCount: 2
Fore
SplineSet
424 341 m 257
 500 380 554 455 554 541 c 256
 554 645 474 720 341 720 c 258
 183 720 l 258
 161 720 146 707 142 685 c 258
 39 35 l 258
 36 14 48 0 69 0 c 258
 104 0 l 258
 125 0 141 14 144 35 c 258
 188 312 l 257
 317 312 l 257
 416 24 l 258
 421 8 433 0 450 0 c 258
 492 0 l 258
 519 0 534 20 526 44 c 258
 424 341 l 257
204 409 m 257
 238 624 l 257
 326 624 l 258
 401 624 447 577 447 519 c 256
 447 449 377 409 292 409 c 258
 204 409 l 257
EndSplineSet
PickledDataWithLists: "(dp0
Vcom.schriftgestaltung.Glyphs.lastChange
p1
V2016-06-09 18:35:33 +0000
p2
s."
EndChar

StartChar: S
Encoding: 83 83 95
GlifName: S_
Width: 575
VWidth: 0
Flags: W
LayerCount: 2
Fore
SplineSet
539 659 m 258
 550 681 548 693 530 702 c 256
 494 719 439 730 390 730 c 256
 240 730 112 636 112 499 c 256
 112 408 176 343 291 318 c 256
 367 302 409 265 409 212 c 256
 409 137 323 89 228 89 c 256
 187 89 140 97 110 110 c 256
 92 118 73 111 62 91 c 258
 48 67 l 258
 37 46 41 29 59 21 c 256
 101 1 155 -10 207 -10 c 256
 365 -10 517 89 517 231 c 256
 517 327 446 396 320 423 c 256
 257 437 220 474 220 521 c 256
 220 587 294 634 375 634 c 256
 406 634 440 627 480 612 c 256
 497 604 517 611 526 632 c 258
 539 659 l 258
EndSplineSet
PickledDataWithLists: "(dp0
Vcom.schriftgestaltung.Glyphs.lastChange
p1
V2016-06-09 18:35:33 +0000
p2
s."
EndChar

StartChar: T
Encoding: 84 84 101
GlifName: T_
Width: 575
VWidth: 0
Flags: W
LayerCount: 2
Fore
SplineSet
633 685 m 257
 636 706 623 720 603 720 c 257
 121 720 l 257
 100 720 84 705 81 685 c 257
 77 659 l 257
 74 639 85 624 105 624 c 257
 294 624 l 257
 201 35 l 257
 198 15 210 0 230 0 c 257
 265 0 l 257
 286 0 303 15 306 35 c 257
 399 624 l 257
 588 624 l 257
 608 624 626 639 629 659 c 257
 633 685 l 257
EndSplineSet
PickledDataWithLists: "(dp0
Vcom.schriftgestaltung.Glyphs.lastChange
p1
V2016-06-09 18:35:33 +0000
p2
s."
EndChar

StartChar: Theta
Encoding: 920 920 105
GlifName: T_heta
Width: 575
VWidth: 0
Flags: W
LayerCount: 2
Fore
SplineSet
261 347 m 258
 259 331 266 322 282 322 c 258
 311 322 l 258
 327 322 338 331 340 347 c 258
 345 374 l 258
 347 390 340 399 324 399 c 258
 295 399 l 258
 279 399 268 390 266 374 c 258
 261 347 l 258
EndSplineSet
Refer: 75 79 N 1 0 0 1 0 0 2
PickledDataWithLists: "(dp0
Vcom.schriftgestaltung.Glyphs.lastChange
p1
V2016-05-30 08:32:14 +0000
p2
s."
EndChar

StartChar: Thorn
Encoding: 222 222 106
GlifName: T_horn
Width: 575
VWidth: 0
Flags: W
LayerCount: 2
Fore
SplineSet
247 683 m 258
 251 705 239 720 216 720 c 258
 181 720 l 258
 161 720 146 708 142 687 c 258
 39 37 l 258
 36 14 48 0 70 0 c 258
 105 0 l 258
 126 0 141 13 144 34 c 258
 158 125 l 257
 192 122 221 121 239 121 c 256
 428 121 529 239 529 458 c 256
 529 602 468 662 321 662 c 256
 301 662 275 661 243 658 c 257
 247 683 l 258
228 563 m 257
 264 565 292 565 309 565 c 256
 395 565 423 536 423 445 c 256
 423 293 366 218 251 218 c 256
 233 218 206 219 174 221 c 257
 228 563 l 257
EndSplineSet
PickledDataWithLists: "(dp0
Vcom.schriftgestaltung.Glyphs.lastChange
p1
V2016-06-09 18:35:33 +0000
p2
s."
EndChar

StartChar: U
Encoding: 85 85 107
GlifName: U_
Width: 575
VWidth: 0
Flags: W
AnchorPoint: "ogonek" 476 10 basechar 0
AnchorPoint: "top" 361 720 basechar 0
AnchorPoint: "topright" 628 720 basechar 0
AnchorPoint: "bottom" 247 0 basechar 0
LayerCount: 2
Fore
SplineSet
389 223 m 258
 373 120 350 86 270 86 c 256
 206 86 169 108 169 169 c 256
 169 185 171 202 174 223 c 258
 247 685 l 258
 251 706 239 720 218 720 c 258
 183 720 l 258
 161 720 146 706 142 685 c 258
 69 223 l 258
 66 201 64 180 64 161 c 256
 64 48 134 -10 255 -10 c 256
 396 -10 470 68 494 223 c 258
 567 685 l 258
 571 706 559 720 538 720 c 258
 503 720 l 258
 481 720 466 706 462 685 c 258
 389 223 l 258
EndSplineSet
PickledDataWithLists: "(dp0
Vcom.schriftgestaltung.Glyphs.lastChange
p1
V2016-06-09 18:35:33 +0000
p2
s."
EndChar

StartChar: V
Encoding: 86 86 118
GlifName: V_
Width: 575
VWidth: 0
Flags: W
LayerCount: 2
Fore
SplineSet
634 680 m 257
 644 702 634 720 610 720 c 258
 574 720 l 258
 554 720 540 710 532 691 c 258
 293 105 l 258
 288 94 275 86 260 86 c 256
 245 86 235 94 234 105 c 258
 180 690 l 257
 179 709 167 720 147 720 c 258
 112 720 l 258
 88 720 72 703 74 680 c 258
 128 87 l 258
 134 27 186 -10 252 -10 c 256
 319 -10 368 27 392 87 c 258
 634 680 l 257
EndSplineSet
PickledDataWithLists: "(dp0
Vcom.schriftgestaltung.Glyphs.lastChange
p1
V2016-06-09 18:35:33 +0000
p2
s."
EndChar

StartChar: X
Encoding: 88 88 124
GlifName: X_
Width: 575
VWidth: 0
Flags: W
LayerCount: 2
Fore
SplineSet
605 677 m 257
 620 699 608 720 584 720 c 258
 553 720 l 258
 537 720 520 712 511 696 c 257
 338 433 l 258
 326 415 319 410 313 410 c 256
 306 410 301 416 296 433 c 258
 206 696 l 257
 201 712 188 720 171 720 c 258
 140 720 l 258
 114 720 99 698 106 677 c 258
 197 396 l 258
 200 385 208 375 218 367 c 257
 205 360 195 349 188 339 c 258
 -2 44 l 257
 -15 21 -5 0 19 0 c 258
 50 0 l 258
 67 0 83 9 92 24 c 258
 275 301 l 257
 286 319 293 325 300 325 c 256
 306 325 311 319 317 301 c 258
 411 24 l 258
 416 9 429 0 446 0 c 258
 477 0 l 258
 502 0 518 21 511 44 c 257
 416 339 l 258
 413 349 404 360 395 367 c 257
 407 375 418 385 425 396 c 258
 605 677 l 257
EndSplineSet
PickledDataWithLists: "(dp0
Vcom.schriftgestaltung.Glyphs.lastChange
p1
V2016-06-09 18:35:33 +0000
p2
s."
EndChar

StartChar: Xi
Encoding: 926 926 125
GlifName: X_i
Width: 575
VWidth: 0
Flags: W
LayerCount: 2
Fore
SplineSet
527 624 m 258
 549 624 564 637 567 659 c 258
 571 685 l 258
 575 707 564 720 542 720 c 258
 179 720 l 258
 157 720 142 707 138 685 c 258
 134 659 l 258
 131 637 142 624 164 624 c 258
 527 624 l 258
153 423 m 258
 132 423 116 409 112 388 c 258
 108 361 l 258
 105 340 116 326 137 326 c 258
 458 326 l 258
 479 326 496 340 499 361 c 258
 503 388 l 258
 507 409 495 423 474 423 c 258
 153 423 l 258
58 97 m 258
 37 97 21 83 18 62 c 258
 13 35 l 258
 10 14 22 0 43 0 c 258
 450 0 l 258
 471 0 487 14 490 35 c 258
 495 62 l 258
 498 83 486 97 465 97 c 258
 58 97 l 258
EndSplineSet
PickledDataWithLists: "(dp0
Vcom.schriftgestaltung.Glyphs.lastChange
p1
V2015-12-22 12:18:54 +0000
p2
s."
EndChar

StartChar: Y
Encoding: 89 89 126
GlifName: Y_
Width: 575
VWidth: 0
Flags: W
LayerCount: 2
Fore
SplineSet
570 720 m 257
 554 720 538 712 528 696 c 257
 349 424 l 257
 338 408 326 400 312 400 c 257
 297 400 288 408 282 425 c 257
 189 696 l 257
 184 712 171 720 154 720 c 257
 117 720 l 257
 93 720 75 699 84 676 c 257
 183 386 l 257
 193 353 216 329 246 318 c 257
 201 35 l 257
 198 15 210 0 230 0 c 257
 265 0 l 257
 286 0 303 15 306 35 c 257
 351 318 l 257
 384 329 415 353 435 386 c 257
 627 677 l 257
 641 698 632 720 606 720 c 257
 570 720 l 257
EndSplineSet
PickledDataWithLists: "(dp0
Vcom.schriftgestaltung.Glyphs.lastChange
p1
V2016-06-09 18:35:33 +0000
p2
s."
EndChar

StartChar: Z
Encoding: 90 90 131
GlifName: Z_
Width: 575
VWidth: 0
Flags: W
LayerCount: 2
Fore
SplineSet
474 458 m 257
 533 508 572 580 584 655 c 257
 589 685 l 257
 592 706 580 720 559 720 c 257
 195 720 l 257
 175 720 158 706 155 685 c 257
 151 659 l 257
 148 639 160 624 180 624 c 257
 472 624 l 257
 461 578 441 543 416 521 c 257
 139 282 l 257
 80 232 40 154 26 65 c 257
 21 35 l 257
 18 15 30 0 50 0 c 257
 445 0 l 257
 465 0 483 15 486 35 c 257
 490 62 l 257
 493 82 481 97 461 97 c 257
 137 97 l 257
 150 154 170 196 198 220 c 257
 474 458 l 257
EndSplineSet
PickledDataWithLists: "(dp0
Vcom.schriftgestaltung.Glyphs.lastChange
p1
V2016-06-09 18:35:33 +0000
p2
s."
EndChar

StartChar: a
Encoding: 97 97 136
GlifName: a
Width: 575
VWidth: 0
Flags: W
AnchorPoint: "top" 338 570 basechar 0
LayerCount: 2
Fore
SplineSet
532 479 m 258
 536 500 525 516 503 520 c 257
 502 520 l 257
 441 528 386 530 357 530 c 256
 172 530 67 410 67 199 c 256
 67 60 115 -10 212 -10 c 256
 260 -10 313 11 367 78 c 257
 359 37 l 258
 355 15 367 0 390 0 c 258
 427 0 l 258
 447 0 461 15 464 39 c 258
 532 479 l 258
379 166 m 257
 331 115 281 86 242 86 c 256
 194 86 173 122 173 214 c 256
 173 356 233 434 345 434 c 256
 361 434 388 433 421 431 c 257
 379 166 l 257
EndSplineSet
PickledDataWithLists: "(dp0
Vcom.schriftgestaltung.Glyphs.lastChange
p1
V2016-06-09 18:35:33 +0000
p2
s."
EndChar

StartChar: a.hex
Encoding: 65543 -1 137
GlifName: a.hex
Width: 575
VWidth: 0
Flags: W
LayerCount: 2
Fore
SplineSet
214 875 m 258
 214 891 205 900 189 900 c 258
 154 900 l 258
 138 900 129 891 129 875 c 258
 129 829 l 258
 129 813 137 804 154 804 c 258
 189 804 l 258
 205 804 214 812 214 829 c 258
 214 875 l 258
502 875 m 258
 502 891 493 900 477 900 c 258
 442 900 l 258
 426 900 417 891 417 875 c 258
 417 829 l 258
 417 813 425 804 442 804 c 258
 477 804 l 258
 493 804 502 812 502 829 c 258
 502 875 l 258
EndSplineSet
Refer: 136 97 N 1 0 0 1 0 0 2
PickledDataWithLists: "(dp0
Vcom.schriftgestaltung.Glyphs.lastChange
p1
V2016-06-09 18:35:34 +0000
p2
s."
EndChar

StartChar: acute
Encoding: 180 180 141
GlifName: acute
Width: 575
VWidth: 0
Flags: W
AnchorPoint: "top" 353 500 mark 0
LayerCount: 2
Fore
SplineSet
232 544 m 258
 237 530 248 526 264 531 c 258
 496 606 l 258
 513 611 520 623 515 638 c 257
 502 684 l 257
 497 699 486 703 471 696 c 258
 245 595 l 258
 229 588 223 577 226 562 c 257
 232 544 l 258
EndSplineSet
PickledDataWithLists: "(dp0
Vcom.schriftgestaltung.Glyphs.lastChange
p1
V2015-12-22 16:32:39 +0000
p2
s."
EndChar

StartChar: ae
Encoding: 230 230 143
GlifName: ae
Width: 575
VWidth: 0
Flags: W
LayerCount: 2
Fore
SplineSet
145 450 m 257
 147 432 162 421 183 425 c 257
 210 429 236 431 257 433 c 257
 239 317 l 257
 127 307 54 255 39 159 c 257
 24 52 78 -10 247 -10 c 257
 319 -9 332 -9 389 1 c 257
 411 5 425 23 424 43 c 257
 422 69 l 257
 420 89 405 100 384 96 c 257
 355 92 330 89 308 88 c 257
 329 222 l 257
 453 222 l 257
 473 222 490 237 494 257 c 257
 497 280 l 257
 520 425 466 530 295 530 c 257
 259 530 215 526 176 519 c 257
 155 515 141 498 143 478 c 257
 145 450 l 257
344 319 m 257
 359 411 l 257
 392 395 400 358 397 319 c 257
 344 319 l 257
203 89 m 257
 162 96 138 118 143 150 c 257
 150 190 177 211 224 219 c 257
 203 89 l 257
EndSplineSet
PickledDataWithLists: "(dp0
Vcom.schriftgestaltung.Glyphs.lastChange
p1
V2016-06-09 18:35:33 +0000
p2
s."
EndChar

StartChar: alpha
Encoding: 945 945 145
GlifName: alpha
Width: 575
VWidth: 0
Flags: W
LayerCount: 2
Fore
SplineSet
520 520 m 258
 500 520 488 511 479 490 c 256
 476 481 470 454 458 417 c 257
 422 492 367 530 295 530 c 256
 121 530 29 370 29 186 c 256
 29 60 91 -10 209 -10 c 256
 281 -10 348 28 408 103 c 257
 408 66 406 39 407 30 c 256
 408 9 418 0 438 0 c 258
 465 0 l 258
 491 0 505 15 504 41 c 256
 504 56 511 155 494 260 c 257
 545 365 568 464 574 479 c 256
 583 505 573 520 547 520 c 258
 520 520 l 258
135 206 m 256
 135 310 182 433 279 433 c 256
 351 433 384 353 410 260 c 257
 354 167 297 87 225 87 c 256
 167 87 135 130 135 206 c 256
  PathStart: -2
EndSplineSet
PickledDataWithLists: "(dp0
Vcom.schriftgestaltung.Glyphs.lastChange
p1
V2015-12-22 12:26:38 +0000
p2
s."
EndChar

StartChar: ampersand
Encoding: 38 38 147
GlifName: ampersand
Width: 575
VWidth: 0
Flags: W
LayerCount: 2
Fore
SplineSet
463 0 m 258
 486 0 501 15 500 38 c 257
 500 38 l 257
 494 79 481 121 459 168 c 257
 479 202 497 236 512 273 c 256
 521 296 512 313 490 317 c 258
 458 323 l 258
 439 327 423 318 414 298 c 257
 414 297 l 257
 410 287 406 277 402 268 c 257
 367 320 322 379 267 444 c 256
 237 479 223 510 223 539 c 256
 223 582 260 618 305 618 c 256
 344 618 371 592 371 557 c 256
 371 532 358 506 338 489 c 256
 321 475 320 457 333 441 c 258
 349 421 l 257
 350 420 l 258
 364 405 382 404 398 418 c 257
 446 458 473 515 473 574 c 256
 473 657 409 717 319 717 c 256
 210 717 117 630 117 529 c 256
 117 485 135 438 170 392 c 257
 80 331 28 244 28 153 c 256
 28 54 90 -7 192 -7 c 256
 259 -7 326 23 385 77 c 257
 391 60 395 44 397 30 c 258
 397 29 l 257
 401 9 412 0 431 0 c 258
 463 0 l 258
132 163 m 256
 132 220 169 280 230 321 c 257
 278 260 314 210 340 168 c 257
 298 118 249 89 204 89 c 256
 157 89 132 115 132 163 c 256
  PathStart: -2
EndSplineSet
PickledDataWithLists: "(dp0
Vcom.schriftgestaltung.Glyphs.lastChange
p1
V2015-12-22 14:24:01 +0000
p2
s."
EndChar

StartChar: asciicircum
Encoding: 94 94 151
GlifName: asciicircum
Width: 575
VWidth: 0
Flags: W
LayerCount: 2
Fore
SplineSet
62 507 m 257
 44 490 42 471 57 456 c 258
 77 436 l 258
 91 421 109 421 126 437 c 258
 340 626 l 257
 344 630 348 632 350 632 c 256
 352 632 353 632 356 627 c 257
 510 438 l 258
 524 421 542 421 560 435 c 258
 585 455 l 258
 604 470 607 490 592 506 c 257
 433 689 l 257
 415 708 396 729 362 729 c 256
 328 729 305 710 280 690 c 258
 62 507 l 257
EndSplineSet
PickledDataWithLists: "(dp0
Vcom.schriftgestaltung.Glyphs.lastChange
p1
V2015-12-22 14:26:04 +0000
p2
s."
EndChar

StartChar: asciitilde
Encoding: 126 126 152
GlifName: asciitilde
Width: 575
VWidth: 0
Flags: W
LayerCount: 2
Fore
SplineSet
497 328 m 257
 476 328 458 315 455 296 c 257
 448 256 431 236 408 236 c 257
 387 236 359 256 327 294 c 257
 281 349 229 381 183 381 c 257
 96 381 37 324 22 229 c 257
 19 208 31 193 50 193 c 257
 78 193 l 257
 100 193 118 207 120 225 c 257
 127 265 144 284 168 284 c 257
 188 284 216 265 249 226 c 257
 295 171 346 140 393 140 c 257
 478 140 538 196 553 292 c 257
 556 313 545 328 526 328 c 257
 497 328 l 257
EndSplineSet
PickledDataWithLists: "(dp0
Vcom.schriftgestaltung.Glyphs.lastChange
p1
V2015-12-22 16:32:54 +0000
p2
s."
EndChar

StartChar: asterisk
Encoding: 42 42 153
GlifName: asterisk
Width: 575
VWidth: 0
Flags: W
LayerCount: 2
Fore
SplineSet
544 357 m 258
 540 378 523 387 502 381 c 258
 351 333 l 257
 376 483 l 257
 379 507 367 520 345 520 c 258
 310 520 l 258
 288 520 274 507 271 486 c 258
 246 332 l 257
 109 380 l 258
 88 387 71 379 62 359 c 258
 46 325 l 257
 36 306 42 288 63 281 c 258
 183 239 l 257
 69 111 l 258
 53 93 54 73 70 61 c 257
 95 40 l 257
 111 28 129 30 145 47 c 257
 146 47 l 257
 278 199 l 257
 362 49 l 257
 374 31 392 28 412 41 c 258
 443 61 l 258
 461 73 466 91 457 109 c 257
 385 238 l 257
 522 280 l 257
 542 287 553 302 550 322 c 258
 544 357 l 258
EndSplineSet
PickledDataWithLists: "(dp0
Vcom.schriftgestaltung.Glyphs.lastChange
p1
V2015-12-22 20:53:16 +0000
p2
s."
EndChar

StartChar: at
Encoding: 64 64 154
GlifName: at
Width: 575
VWidth: 0
Flags: W
LayerCount: 2
Fore
SplineSet
15 90 m 257
 12 65 10 44 10 25 c 256
 10 -102 83 -168 223 -168 c 256
 268 -168 308 -161 353 -146 c 256
 373 -140 383 -122 378 -102 c 258
 371 -75 l 258
 365 -54 348 -47 327 -55 c 256
 292 -67 265 -72 235 -72 c 256
 154 -72 116 -35 116 41 c 256
 116 57 117 72 120 86 c 257
 180 462 l 258
 197 571 253 624 349 624 c 256
 429 624 467 587 467 512 c 256
 467 498 466 487 464 475 c 257
 351 472 293 413 272 278 c 256
 250 138 292 77 413 77 c 258
 473 77 l 258
 494 77 509 90 512 111 c 258
 568 462 l 258
 571 482 573 503 573 528 c 256
 573 654 501 720 361 720 c 256
 199 720 102 634 75 466 c 258
 15 90 l 257
EndSplineSet
PickledDataWithLists: "(dp0
Vcom.schriftgestaltung.Glyphs.lastChange
p1
V2016-02-01 22:12:54 +0000
p2
s."
EndChar

StartChar: b
Encoding: 98 98 156
GlifName: b
Width: 575
VWidth: 0
Flags: W
LayerCount: 2
Fore
SplineSet
38 41 m 258
 35 19 46 4 67 0 c 257
 68 0 l 257
 129 -8 184 -10 213 -10 c 256
 402 -10 503 105 503 320 c 256
 503 454 451 530 358 530 c 256
 310 530 257 509 203 452 c 257
 250 733 l 258
 253 755 242 770 219 770 c 258
 182 770 l 258
 162 770 148 755 145 731 c 258
 38 41 l 258
191 354 m 257
 239 405 289 434 328 434 c 256
 374 434 397 392 397 305 c 256
 397 159 340 86 225 86 c 256
 209 86 182 87 149 89 c 257
 191 354 l 257
EndSplineSet
PickledDataWithLists: "(dp0
Vcom.schriftgestaltung.Glyphs.lastChange
p1
V2016-06-09 18:35:33 +0000
p2
s."
EndChar

StartChar: b.hex
Encoding: 65545 -1 157
GlifName: b.hex
Width: 575
VWidth: 0
Flags: W
LayerCount: 2
Fore
SplineSet
214 875 m 258
 214 891 205 900 189 900 c 258
 154 900 l 258
 138 900 129 891 129 875 c 258
 129 829 l 258
 129 813 137 804 154 804 c 258
 189 804 l 258
 205 804 214 812 214 829 c 258
 214 875 l 258
502 875 m 258
 502 891 493 900 477 900 c 258
 442 900 l 258
 426 900 417 891 417 875 c 258
 417 829 l 258
 417 813 425 804 442 804 c 258
 477 804 l 258
 493 804 502 812 502 829 c 258
 502 875 l 258
646 875 m 258
 646 891 637 900 621 900 c 258
 586 900 l 258
 570 900 561 891 561 875 c 258
 561 829 l 258
 561 813 569 804 586 804 c 258
 621 804 l 258
 637 804 646 812 646 829 c 258
 646 875 l 258
EndSplineSet
Refer: 156 98 N 1 0 0 1 0 0 2
PickledDataWithLists: "(dp0
Vcom.schriftgestaltung.Glyphs.lastChange
p1
V2016-06-09 18:35:34 +0000
p2
s."
EndChar

StartChar: backslash
Encoding: 92 92 158
GlifName: backslash
Width: 575
VWidth: 0
Flags: W
LayerCount: 2
Fore
SplineSet
198 686 m 257
 192 704 173 711 154 702 c 257
 120 686 l 257
 100 677 91 657 97 640 c 257
 379 -186 l 257
 385 -204 404 -211 423 -202 c 257
 457 -186 l 257
 477 -177 486 -157 480 -140 c 257
 198 686 l 257
EndSplineSet
PickledDataWithLists: "(dp0
Vcom.schriftgestaltung.Glyphs.lastChange
p1
V2015-12-22 16:32:37 +0000
p2
s."
EndChar

StartChar: bar
Encoding: 124 124 159
GlifName: bar
Width: 575
VWidth: 0
Flags: W
LayerCount: 2
Fore
SplineSet
351 770 m 257
 331 770 313 755 310 735 c 257
 171 -143 l 257
 168 -164 181 -178 201 -178 c 257
 236 -178 l 257
 257 -178 273 -163 276 -143 c 257
 415 735 l 257
 419 756 406 770 386 770 c 257
 351 770 l 257
EndSplineSet
PickledDataWithLists: "(dp0
Vcom.schriftgestaltung.Glyphs.lastChange
p1
V2015-12-22 16:32:56 +0000
p2
s."
EndChar

StartChar: beta
Encoding: 946 946 160
GlifName: beta
Width: 575
VWidth: 0
Flags: W
LayerCount: 2
Fore
SplineSet
131 506 m 258
 25 -163 l 258
 21 -185 33 -200 56 -200 c 258
 91 -200 l 258
 112 -200 126 -188 130 -167 c 258
 158 11 l 257
 318 -58 516 58 516 226 c 256
 516 278 484 308 460 331 c 256
 443 348 431 359 431 375 c 256
 431 391 448 411 464 431 c 256
 501 476 532 520 532 585 c 256
 532 672 473 720 365 720 c 256
 234 720 153 645 131 506 c 258
  PathStart: -2
430 562 m 256
 430 531 415 516 389 484 c 256
 361 450 324 408 324 359 c 256
 324 320 351 299 374 281 c 257
 396 262 415 247 415 219 c 256
 415 105 294 47 172 102 c 257
 236 502 l 258
 248 583 288 624 353 624 c 256
 405 624 430 603 430 562 c 256
  PathStart: -2
EndSplineSet
PickledDataWithLists: "(dp0
Vcom.schriftgestaltung.Glyphs.lastChange
p1
V2015-12-22 12:27:37 +0000
p2
s."
EndChar

StartChar: block
Encoding: 9608 9608 161
GlifName: block
Width: 575
VWidth: 0
Flags: W
LayerCount: 2
Fore
SplineSet
0 -250 m 257
 575 -250 l 257
 575 900 l 257
 0 900 l 257
 0 -250 l 257
EndSplineSet
PickledDataWithLists: "(dp0
Vcom.schriftgestaltung.Glyphs.lastChange
p1
V2016-06-10 08:26:49 +0000
p2
s."
EndChar

StartChar: braceleft
Encoding: 123 123 162
GlifName: braceleft
Width: 575
VWidth: 0
Flags: W
LayerCount: 2
Fore
SplineSet
393 593 m 258
 403 653 425 674 477 674 c 258
 558 674 l 258
 579 674 593 686 597 707 c 258
 601 733 l 258
 605 755 593 770 570 770 c 258
 489 770 l 258
 367 770 308 719 288 597 c 258
 260 421 l 258
 252 365 229 344 177 344 c 258
 97 344 l 258
 75 344 61 331 58 310 c 257
 54 285 l 258
 50 263 62 248 85 248 c 258
 165 248 l 258
 216 248 230 230 221 176 c 258
 193 -1 l 258
 174 -126 218 -178 342 -178 c 258
 423 -178 l 258
 444 -178 458 -166 462 -145 c 258
 466 -119 l 258
 470 -97 458 -82 435 -82 c 258
 354 -82 l 258
 303 -82 289 -63 298 -5 c 258
 326 172 l 258
 333 218 334 265 291 295 c 257
 343 325 357 367 365 418 c 258
 393 593 l 258
EndSplineSet
PickledDataWithLists: "(dp0
Vcom.schriftgestaltung.Glyphs.lastChange
p1
V2016-04-11 09:42:36 +0000
p2
s."
EndChar

StartChar: braceright
Encoding: 125 125 163
GlifName: braceright
Width: 575
VWidth: 0
Flags: W
LayerCount: 2
Fore
SplineSet
296 297 m 257
 242 267 229 222 221 176 c 258
 193 -1 l 258
 184 -61 162 -82 109 -82 c 258
 28 -82 l 258
 8 -82 -7 -94 -11 -115 c 258
 -15 -141 l 258
 -19 -164 -7 -178 16 -178 c 258
 97 -178 l 258
 220 -178 279 -127 298 -5 c 258
 326 172 l 258
 335 228 358 248 410 248 c 258
 490 248 l 258
 510 248 525 260 529 281 c 258
 533 307 l 257
 536 331 524 344 502 344 c 258
 422 344 l 258
 371 344 357 363 365 417 c 258
 393 593 l 258
 413 717 368 770 244 770 c 258
 163 770 l 258
 143 770 128 758 124 737 c 258
 120 711 l 258
 116 688 128 674 151 674 c 258
 232 674 l 258
 283 674 298 654 288 597 c 258
 260 421 l 258
 253 371 253 328 296 297 c 257
  PathStart: -2
EndSplineSet
PickledDataWithLists: "(dp0
Vcom.schriftgestaltung.Glyphs.lastChange
p1
V2016-06-03 09:15:51 +0000
p2
s."
EndChar

StartChar: bracketleft
Encoding: 91 91 164
GlifName: bracketleft
Width: 575
VWidth: 0
Flags: W
LayerCount: 2
Fore
SplineSet
191 -82 m 257
 311 674 l 257
 536 674 l 257
 557 674 573 688 576 709 c 257
 580 735 l 257
 584 756 571 770 551 770 c 257
 256 770 l 257
 236 770 218 755 215 735 c 257
 76 -143 l 257
 73 -164 86 -178 106 -178 c 257
 401 -178 l 257
 422 -178 438 -164 441 -143 c 257
 445 -117 l 257
 448 -97 436 -82 416 -82 c 257
 191 -82 l 257
EndSplineSet
PickledDataWithLists: "(dp0
Vcom.schriftgestaltung.Glyphs.lastChange
p1
V2015-12-22 13:51:23 +0000
p2
s."
EndChar

StartChar: bracketright
Encoding: 93 93 165
GlifName: bracketright
Width: 575
VWidth: 0
Flags: W
LayerCount: 2
Fore
SplineSet
186 770 m 257
 166 770 149 756 145 735 c 257
 141 709 l 257
 138 689 150 674 171 674 c 257
 396 674 l 257
 276 -82 l 257
 51 -82 l 257
 31 -82 14 -96 10 -117 c 257
 6 -143 l 257
 3 -164 16 -178 36 -178 c 257
 331 -178 l 257
 352 -178 368 -163 371 -143 c 257
 510 735 l 257
 514 756 501 770 481 770 c 257
 186 770 l 257
EndSplineSet
PickledDataWithLists: "(dp0
Vcom.schriftgestaltung.Glyphs.lastChange
p1
V2015-12-22 13:51:43 +0000
p2
s."
EndChar

StartChar: breve
Encoding: 728 728 166
GlifName: breve
Width: 575
VWidth: 0
Flags: W
AnchorPoint: "top" 328 500 mark 0
LayerCount: 2
Fore
SplineSet
525 696 m 258
 509 699 499 692 492 676 c 256
 469 626 427 598 374 598 c 256
 320 598 288 626 280 676 c 256
 278 692 270 699 255 696 c 258
 226 691 l 258
 209 688 200 678 201 662 c 256
 211 583 269 539 365 538 c 256
 461 539 532 583 566 662 c 256
 574 678 567 688 552 691 c 258
 525 696 l 258
EndSplineSet
PickledDataWithLists: "(dp0
Vcom.schriftgestaltung.Glyphs.lastChange
p1
V2015-12-22 16:32:39 +0000
p2
s."
EndChar

StartChar: brokenbar
Encoding: 166 166 167
GlifName: brokenbar
Width: 575
VWidth: 0
Flags: W
LayerCount: 2
Fore
SplineSet
237 -178 m 258
 259 -178 273 -166 276 -144 c 258
 327 176 l 258
 331 199 319 213 296 213 c 258
 261 213 l 258
 240 213 226 201 222 180 c 258
 171 -141 l 258
 167 -164 179 -178 202 -178 c 258
 237 -178 l 258
325 379 m 258
 346 379 361 392 364 413 c 258
 415 733 l 258
 419 756 407 770 384 770 c 258
 349 770 l 258
 329 770 314 758 310 737 c 258
 259 416 l 258
 256 393 268 379 290 379 c 258
 325 379 l 258
EndSplineSet
PickledDataWithLists: "(dp0
Vcom.schriftgestaltung.Glyphs.lastChange
p1
V2015-12-22 14:22:08 +0000
p2
s."
EndChar

StartChar: bullet
Encoding: 8226 8226 168
GlifName: bullet
Width: 575
VWidth: 0
Flags: W
LayerCount: 2
Fore
SplineSet
500 335 m 257
 500 437 418 520 318 520 c 257
 217 520 135 437 135 335 c 257
 135 233 217 150 318 150 c 257
 418 150 500 233 500 335 c 257
  PathStart: -2
EndSplineSet
PickledDataWithLists: "(dp0
Vcom.schriftgestaltung.Glyphs.lastChange
p1
V2015-12-22 16:32:38 +0000
p2
s."
EndChar

StartChar: c
Encoding: 99 99 169
GlifName: c
Width: 575
VWidth: 0
Flags: W
AnchorPoint: "top" 371 570 basechar 0
AnchorPoint: "bottom" 259 0 basechar 0
LayerCount: 2
Fore
SplineSet
531 452 m 258
 543 472 538 491 518 499 c 256
 475 519 422 530 369 530 c 256
 193 530 70 398 70 212 c 256
 70 70 149 -10 287 -10 c 256
 340 -10 394 0 446 21 c 256
 465 28 474 44 470 65 c 257
 464 89 l 258
 458 111 441 118 420 110 c 257
 373 95 338 88 299 88 c 256
 215 88 176 130 176 221 c 256
 176 349 247 432 357 432 c 256
 397 432 431 425 470 410 c 256
 489 402 506 409 517 428 c 257
 531 452 l 258
EndSplineSet
PickledDataWithLists: "(dp0
Vcom.schriftgestaltung.Glyphs.lastChange
p1
V2016-06-09 18:35:33 +0000
p2
s."
EndChar

StartChar: c.hex
Encoding: 65548 -1 170
GlifName: c.hex
Width: 575
VWidth: 0
Flags: W
LayerCount: 2
Fore
SplineSet
214 875 m 258
 214 891 205 900 189 900 c 258
 154 900 l 258
 138 900 129 891 129 875 c 258
 129 829 l 258
 129 813 137 804 154 804 c 258
 189 804 l 258
 205 804 214 812 214 829 c 258
 214 875 l 258
358 875 m 258
 358 891 349 900 333 900 c 258
 298 900 l 258
 282 900 273 891 273 875 c 258
 273 829 l 258
 273 813 281 804 298 804 c 258
 333 804 l 258
 349 804 358 812 358 829 c 258
 358 875 l 258
EndSplineSet
Refer: 169 99 N 1 0 0 1 0 0 2
PickledDataWithLists: "(dp0
Vcom.schriftgestaltung.Glyphs.lastChange
p1
V2016-06-09 18:35:34 +0000
p2
s."
EndChar

StartChar: caron
Encoding: 711 711 172
GlifName: caron
Width: 575
VWidth: 0
Flags: W
AnchorPoint: "top" 328 500 mark 0
LayerCount: 2
Fore
SplineSet
209 665 m 258
 197 652 198 639 210 630 c 258
 304 564 l 258
 323 551 341 542 364 542 c 256
 387 542 410 552 432 565 c 258
 546 630 l 258
 562 639 566 652 558 665 c 258
 544 688 l 258
 537 701 526 703 511 694 c 258
 398 623 l 258
 389 618 386 614 376 614 c 256
 366 614 363 617 356 623 c 258
 265 694 l 258
 254 703 241 701 229 688 c 258
 209 665 l 258
EndSplineSet
PickledDataWithLists: "(dp0
Vcom.schriftgestaltung.Glyphs.lastChange
p1
V2016-05-18 20:16:32 +0000
p2
s."
EndChar

StartChar: cedilla
Encoding: 184 184 176
GlifName: cedilla
Width: 575
VWidth: 0
Flags: W
LayerCount: 2
Fore
SplineSet
240 -68 m 257
 271 -17 l 258
 282 1 276 12 257 13 c 257
 239 13 l 257
 225 14 215 8 207 -5 c 258
 180 -48 l 258
 172 -61 172 -72 180 -82 c 258
 204 -111 l 258
 212 -121 222 -123 235 -121 c 257
 245 -120 255 -119 263 -119 c 256
 291 -119 304 -128 304 -140 c 256
 304 -165 255 -181 207 -181 c 256
 191 -181 169 -179 149 -175 c 256
 134 -172 122 -177 115 -192 c 257
 109 -203 l 258
 101 -218 105 -230 120 -235 c 257
 147 -242 171 -246 196 -246 c 256
 294 -246 403 -199 403 -129 c 256
 403 -91 371 -61 302 -61 c 256
 284 -61 263 -63 240 -68 c 257
  PathStart: -2
EndSplineSet
PickledDataWithLists: "(dp0
Vcom.schriftgestaltung.Glyphs.lastChange
p1
V2015-12-22 16:32:40 +0000
p2
s."
EndChar

StartChar: cent
Encoding: 162 162 177
GlifName: cent
Width: 575
VWidth: 0
Flags: W
LayerCount: 2
Fore
SplineSet
279 455 m 257
 386 471 l 257
 415 653 l 257
 419 674 406 688 386 688 c 257
 351 688 l 257
 331 688 314 674 310 653 c 257
 279 455 l 257
318 40 m 257
 216 56 l 257
 183 -153 l 257
 179 -174 192 -188 212 -188 c 257
 247 -188 l 257
 267 -188 284 -174 288 -153 c 257
 318 40 l 257
EndSplineSet
Refer: 169 99 N 1 0 0 1 -1 0 2
PickledDataWithLists: "(dp0
Vcom.schriftgestaltung.Glyphs.lastChange
p1
V2015-12-22 14:01:47 +0000
p2
s."
EndChar

StartChar: chi
Encoding: 967 967 178
GlifName: chi
Width: 575
VWidth: 0
Flags: W
LayerCount: 2
Fore
SplineSet
367 124 m 258
 348 206 l 257
 567 475 l 258
 587 498 578 520 550 520 c 258
 511 520 l 258
 494 520 480 513 470 499 c 257
 323 317 l 257
 290 461 240 522 153 522 c 256
 144 522 135 521 126 521 c 257
 104 519 91 504 90 482 c 258
 89 458 l 257
 89 437 101 426 123 427 c 257
 130 428 134 428 139 428 c 256
 172 428 197 385 220 282 c 258
 237 209 l 257
 16 -66 l 258
 2 -83 3 -102 18 -114 c 257
 36 -126 l 257
 51 -138 71 -134 85 -117 c 258
 263 100 l 257
 265 89 l 257
 298 -55 347 -116 434 -116 c 256
 443 -116 453 -115 462 -115 c 257
 484 -113 497 -98 498 -76 c 258
 499 -52 l 257
 499 -30 486 -18 464 -21 c 256
 458 -22 454 -22 449 -22 c 256
 416 -22 391 21 367 124 c 258
  PathStart: -2
EndSplineSet
PickledDataWithLists: "(dp0
Vcom.schriftgestaltung.Glyphs.lastChange
p1
V2015-12-22 12:54:05 +0000
p2
s."
EndChar

StartChar: circumflex
Encoding: 710 710 179
GlifName: circumflex
Width: 575
VWidth: 0
Flags: W
AnchorPoint: "top" 328 500 mark 0
LayerCount: 2
Fore
SplineSet
207 552 m 257
 216 540 228 538 242 547 c 258
 355 619 l 258
 364 624 368 628 378 628 c 256
 388 628 390 624 397 619 c 258
 488 547 l 258
 500 538 512 540 523 553 c 258
 544 576 l 258
 556 590 556 602 543 611 c 258
 450 677 l 258
 432 689 412 700 389 700 c 256
 366 700 345 691 322 677 c 258
 207 611 l 258
 192 602 187 590 195 576 c 258
 207 552 l 257
EndSplineSet
PickledDataWithLists: "(dp0
Vcom.schriftgestaltung.Glyphs.lastChange
p1
V2015-12-22 16:32:40 +0000
p2
s."
EndChar

StartChar: colon
Encoding: 58 58 180
GlifName: colon
Width: 575
VWidth: 0
Flags: W
LayerCount: 2
Fore
SplineSet
278 520 m 258
 256 520 242 508 239 486 c 257
 224 397 l 257
 221 374 233 360 255 360 c 258
 355 360 l 258
 376 360 391 373 394 394 c 257
 409 483 l 257
 412 507 400 520 378 520 c 258
 278 520 l 258
221 160 m 258
 199 160 185 148 182 126 c 257
 167 37 l 257
 164 14 176 0 198 0 c 258
 298 0 l 258
 319 0 334 13 337 34 c 257
 352 123 l 257
 355 147 343 160 321 160 c 258
 221 160 l 258
EndSplineSet
PickledDataWithLists: "(dp0
Vcom.schriftgestaltung.Glyphs.lastChange
p1
V2015-12-22 20:53:35 +0000
p2
s."
EndChar

StartChar: comma
Encoding: 44 44 181
GlifName: comma
Width: 575
VWidth: 0
Flags: W
LayerCount: 2
Fore
SplineSet
222 160 m 258
 200 160 185 147 182 125 c 258
 167 35 l 258
 164 14 176 0 197 0 c 258
 227 0 l 257
 208 -112 162 -151 52 -151 c 256
 31 -151 16 -164 12 -186 c 258
 8 -213 l 258
 5 -234 16 -247 38 -247 c 256
 222 -247 304 -176 333 8 c 258
 352 125 l 258
 355 147 344 160 322 160 c 258
 222 160 l 258
EndSplineSet
PickledDataWithLists: "(dp0
Vcom.schriftgestaltung.Glyphs.lastChange
p1
V2015-12-22 20:53:49 +0000
p2
s."
EndChar

StartChar: copyright
Encoding: 169 169 182
GlifName: copyright
Width: 575
VWidth: 0
Flags: W
LayerCount: 2
Fore
SplineSet
411 468 m 258
 424 479 427 493 415 503 c 256
 394 521 365 532 335 532 c 257
 332 531 l 257
 292 531 250 513 218 484 c 256
 186 455 164 415 158 375 c 256
 151 335 161 296 184 267 c 256
 206 237 242 220 282 219 c 258
 285 219 l 258
 315 219 348 229 375 247 c 256
 390 257 391 271 381 282 c 258
 372 291 l 258
 363 302 353 301 338 293 c 256
 325 286 309 281 294 281 c 258
 293 281 l 258
 270 282 248 293 235 310 c 256
 222 328 217 352 221 375 c 256
 225 399 237 423 255 440 c 256
 274 458 300 469 323 469 c 258
 324 469 l 258
 339 469 353 465 364 458 c 256
 377 450 386 448 399 459 c 258
 411 468 l 258
92 190 m 256
 134 141 197 113 266 113 c 256
 334 113 408 141 463 190 c 256
 520 238 559 307 570 375 c 256
 581 444 563 512 522 561 c 256
 482 609 417 637 349 637 c 256
 280 637 208 609 151 561 c 256
 95 512 57 444 46 375 c 256
 35 307 52 238 92 190 c 256
  PathStart: -2
426 234 m 256
 384 197 328 176 276 176 c 256
 224 176 176 197 144 234 c 256
 113 271 100 323 108 375 c 256
 116 427 146 479 189 516 c 256
 232 553 287 575 339 575 c 256
 391 575 440 553 471 516 c 256
 502 479 515 427 507 375 c 256
 499 323 469 271 426 234 c 256
  PathStart: -2
EndSplineSet
PickledDataWithLists: "(dp0
Vcom.schriftgestaltung.Glyphs.lastChange
p1
V2015-12-22 14:24:21 +0000
p2
s."
EndChar

StartChar: currency
Encoding: 164 164 183
GlifName: currency
Width: 575
VWidth: 0
Flags: W
LayerCount: 2
Fore
SplineSet
573 444 m 258
 591 459 593 479 578 494 c 258
 558 515 l 258
 544 529 526 529 510 515 c 258
 422 440 l 257
 394 459 358 469 320 469 c 256
 282 469 242 459 206 440 c 257
 146 513 l 258
 132 529 114 529 96 515 c 258
 70 495 l 258
 52 481 48 461 61 446 c 258
 125 370 l 257
 101 337 85 300 79 262 c 256
 73 224 78 186 92 154 c 257
 2 77 l 257
 -15 61 -17 42 -3 27 c 258
 17 6 l 257
 30 -9 49 -9 67 6 c 258
 153 81 l 257
 183 61 218 51 256 51 c 256
 293 51 333 62 369 81 c 257
 430 8 l 257
 442 -8 461 -9 479 5 c 258
 505 26 l 257
 524 40 528 59 514 75 c 258
 450 151 l 257
 474 183 491 221 497 258 c 256
 503 296 498 334 483 367 c 257
 573 444 l 258
175 258 m 256
 185 322 244 373 307 373 c 256
 369 373 410 323 400 262 c 256
 390 198 332 148 269 148 c 256
 207 148 165 197 175 258 c 256
  PathStart: -2
EndSplineSet
PickledDataWithLists: "(dp0
Vcom.schriftgestaltung.Glyphs.lastChange
p1
V2015-12-22 14:02:18 +0000
p2
s."
EndChar

StartChar: d
Encoding: 100 100 184
GlifName: d
Width: 575
VWidth: 0
Flags: W
AnchorPoint: "bottom" 247 0 basechar 0
AnchorPoint: "top" 439 520 basechar 0
AnchorPoint: "topright" 596 520 basechar 0
AnchorPoint: "center" 288 260 basechar 0
LayerCount: 2
Fore
SplineSet
508 770 m 258
 488 770 473 758 469 737 c 258
 437 527 l 257
 404 529 375 530 357 530 c 256
 168 530 67 415 67 200 c 256
 67 66 119 -10 212 -10 c 256
 260 -10 313 11 365 68 c 257
 359 37 l 258
 355 15 367 0 390 0 c 258
 427 0 l 258
 447 0 461 15 464 39 c 258
 574 733 l 258
 578 755 566 770 543 770 c 258
 508 770 l 258
242 86 m 256
 196 86 173 128 173 215 c 256
 173 361 230 434 345 434 c 256
 361 434 388 433 421 431 c 257
 379 166 l 257
 331 115 281 86 242 86 c 256
  PathStart: -2
EndSplineSet
PickledDataWithLists: "(dp0
Vcom.schriftgestaltung.Glyphs.lastChange
p1
V2016-06-09 18:35:33 +0000
p2
s."
EndChar

StartChar: d.hex
Encoding: 65549 -1 185
GlifName: d.hex
Width: 575
VWidth: 0
Flags: W
LayerCount: 2
Fore
SplineSet
214 875 m 258
 214 891 205 900 189 900 c 258
 154 900 l 258
 138 900 129 891 129 875 c 258
 129 829 l 258
 129 813 137 804 154 804 c 258
 189 804 l 258
 205 804 214 812 214 829 c 258
 214 875 l 258
358 875 m 258
 358 891 349 900 333 900 c 258
 298 900 l 258
 282 900 273 891 273 875 c 258
 273 829 l 258
 273 813 281 804 298 804 c 258
 333 804 l 258
 349 804 358 812 358 829 c 258
 358 875 l 258
646 875 m 258
 646 891 637 900 621 900 c 258
 586 900 l 258
 570 900 561 891 561 875 c 258
 561 829 l 258
 561 813 569 804 586 804 c 258
 621 804 l 258
 637 804 646 812 646 829 c 258
 646 875 l 258
EndSplineSet
Refer: 184 100 N 1 0 0 1 0 0 2
PickledDataWithLists: "(dp0
Vcom.schriftgestaltung.Glyphs.lastChange
p1
V2016-06-09 18:35:34 +0000
p2
s."
EndChar

StartChar: dagger
Encoding: 8224 8224 186
GlifName: dagger
Width: 575
VWidth: 0
Flags: W
LayerCount: 2
Fore
SplineSet
579 545 m 257
 584 572 l 257
 584 573 l 257
 587 596 575 609 553 609 c 258
 396 609 l 257
 423 782 l 258
 427 805 415 819 392 819 c 258
 357 819 l 258
 337 819 322 807 318 786 c 258
 290 609 l 257
 130 609 l 258
 108 609 94 596 91 574 c 257
 91 575 l 257
 86 549 l 257
 86 548 l 257
 83 526 95 512 117 512 c 258
 274 512 l 257
 176 -112 l 258
 172 -134 184 -149 207 -149 c 258
 242 -149 l 258
 263 -149 277 -137 281 -116 c 258
 380 512 l 257
 540 512 l 258
 562 512 576 524 579 546 c 257
 579 545 l 257
EndSplineSet
PickledDataWithLists: "(dp0
Vcom.schriftgestaltung.Glyphs.lastChange
p1
V2015-12-22 14:26:24 +0000
p2
s."
EndChar

StartChar: daggerdbl
Encoding: 8225 8225 187
GlifName: daggerdbl
Width: 575
VWidth: 0
Flags: W
LayerCount: 2
Fore
SplineSet
396 599 m 257
 423 772 l 258
 427 795 415 809 392 809 c 258
 357 809 l 258
 337 809 322 797 318 776 c 258
 290 599 l 257
 130 599 l 258
 109 599 94 586 91 565 c 257
 86 539 l 257
 86 538 l 257
 83 516 95 502 117 502 c 258
 274 502 l 257
 218 148 l 257
 58 148 l 258
 37 148 23 136 19 115 c 257
 15 89 l 258
 12 66 24 52 46 52 c 258
 203 52 l 257
 176 -122 l 258
 172 -144 184 -159 207 -159 c 258
 242 -159 l 258
 264 -159 277 -147 281 -126 c 258
 309 52 l 257
 469 52 l 258
 491 52 505 64 508 86 c 258
 512 111 l 258
 516 134 504 148 481 148 c 258
 324 148 l 257
 380 502 l 257
 540 502 l 258
 562 502 576 514 579 535 c 257
 584 562 l 257
 584 563 l 257
 587 586 575 599 553 599 c 258
 396 599 l 257
EndSplineSet
PickledDataWithLists: "(dp0
Vcom.schriftgestaltung.Glyphs.lastChange
p1
V2015-12-22 14:32:11 +0000
p2
s."
EndChar

StartChar: degree
Encoding: 176 176 190
GlifName: degree
Width: 575
VWidth: 0
Flags: W
LayerCount: 2
Fore
SplineSet
137 508 m 256
 137 412 206 346 306 346 c 256
 426 346 527 449 527 570 c 256
 527 664 460 730 364 730 c 256
 240 730 137 629 137 508 c 256
  PathStart: -2
243 519 m 256
 243 581 291 633 349 633 c 256
 392 633 421 603 421 558 c 256
 421 496 372 443 315 443 c 256
 272 443 243 473 243 519 c 256
  PathStart: -2
EndSplineSet
PickledDataWithLists: "(dp0
Vcom.schriftgestaltung.Glyphs.lastChange
p1
V2016-05-30 08:37:06 +0000
p2
s."
EndChar

StartChar: delta
Encoding: 948 948 191
GlifName: delta
Width: 575
VWidth: 0
Flags: W
LayerCount: 2
Fore
SplineSet
154 202 m 256
 154 315 217 393 308 393 c 256
 338 393 370 390 405 383 c 257
 413 355 417 326 417 298 c 256
 417 166 354 82 255 82 c 256
 191 82 154 125 154 202 c 256
  PathStart: -2
536 623 m 258
 557 623 572 636 575 657 c 258
 579 684 l 257
 583 705 571 720 548 720 c 258
 238 720 l 258
 218 720 203 708 199 687 c 258
 194 655 l 258
 192 637 198 623 213 615 c 257
 269 582 316 539 352 490 c 257
 342 491 332 491 320 491 c 256
 159 491 48 367 48 188 c 256
 48 61 120 -15 243 -15 c 256
 411 -15 522 110 522 296 c 256
 522 414 459 534 352 623 c 257
 536 623 l 258
EndSplineSet
PickledDataWithLists: "(dp0
Vcom.schriftgestaltung.Glyphs.lastChange
p1
V2016-05-30 08:32:37 +0000
p2
s."
EndChar

StartChar: dieresis
Encoding: 168 168 192
GlifName: dieresis
Width: 575
VWidth: 0
Flags: W
AnchorPoint: "top" 328 500 mark 0
LayerCount: 2
Fore
SplineSet
324 675 m 258
 327 691 320 700 303 700 c 258
 268 700 l 258
 252 700 242 691 239 675 c 258
 232 629 l 258
 229 613 237 604 253 604 c 258
 288 604 l 258
 305 604 314 612 317 629 c 258
 324 675 l 258
531 675 m 258
 534 691 526 700 510 700 c 258
 475 700 l 258
 459 700 449 691 446 675 c 258
 439 629 l 258
 436 613 443 604 460 604 c 258
 495 604 l 258
 511 604 521 612 524 629 c 258
 531 675 l 258
EndSplineSet
PickledDataWithLists: "(dp0
Vcom.schriftgestaltung.Glyphs.lastChange
p1
V2015-12-22 16:32:41 +0000
p2
s."
EndChar

StartChar: divide
Encoding: 247 247 193
GlifName: divide
Width: 575
VWidth: 0
Flags: W
LayerCount: 2
Fore
SplineSet
377 495 m 257
 380 515 369 530 348 530 c 257
 313 530 l 257
 293 530 275 515 272 495 c 257
 265 449 l 257
 262 429 274 414 294 414 c 257
 329 414 l 257
 350 414 367 428 370 449 c 257
 377 495 l 257
310 72 m 257
 313 92 302 107 281 107 c 257
 246 107 l 257
 226 107 208 92 205 72 c 257
 198 25 l 257
 194 4 207 -10 227 -10 c 257
 262 -10 l 257
 283 -10 299 4 303 25 c 257
 310 72 l 257
73 247 m 257
 70 227 82 212 102 212 c 257
 457 212 l 257
 478 212 495 227 498 247 c 257
 502 274 l 257
 505 294 494 309 473 309 c 257
 118 309 l 257
 98 309 80 294 77 273 c 257
 73 247 l 257
EndSplineSet
PickledDataWithLists: "(dp0
Vcom.schriftgestaltung.Glyphs.lastChange
p1
V2015-12-22 14:06:58 +0000
p2
s."
EndChar

StartChar: dkshade
Encoding: 9619 9619 194
GlifName: dkshade
Width: 575
VWidth: 0
Flags: W
LayerCount: 2
Fore
SplineSet
0 -250 m 257
 28 -250 l 257
 0 -194 l 257
 0 -250 l 257
71 -250 m 257
 99 -250 l 257
 0 -52 l 257
 0 -108 l 257
 71 -250 l 257
142 -250 m 257
 170 -250 l 257
 0 90 l 257
 0 34 l 257
 142 -250 l 257
213 -250 m 257
 241 -250 l 257
 0 232 l 257
 0 176 l 257
 213 -250 l 257
284 -250 m 257
 312 -250 l 257
 0 374 l 257
 0 318 l 257
 284 -250 l 257
355 -250 m 257
 383 -250 l 257
 0 516 l 257
 0 460 l 257
 355 -250 l 257
426 -250 m 257
 454 -250 l 257
 0 658 l 257
 0 602 l 257
 426 -250 l 257
497 -250 m 257
 525 -250 l 257
 0 800 l 257
 0 744 l 257
 497 -250 l 257
575 -250 m 257
 575 -194 l 257
 28 900 l 257
 0 900 l 257
 575 -250 l 257
575 -108 m 257
 575 -52 l 257
 99 900 l 257
 71 900 l 257
 575 -108 l 257
575 34 m 257
 575 90 l 257
 170 900 l 257
 142 900 l 257
 575 34 l 257
575 176 m 257
 575 232 l 257
 241 900 l 257
 213 900 l 257
 575 176 l 257
575 318 m 257
 575 374 l 257
 312 900 l 257
 284 900 l 257
 575 318 l 257
575 460 m 257
 575 516 l 257
 383 900 l 257
 355 900 l 257
 575 460 l 257
575 602 m 257
 575 658 l 257
 454 900 l 257
 426 900 l 257
 575 602 l 257
575 744 m 257
 575 800 l 257
 525 900 l 257
 497 900 l 257
 575 744 l 257
EndSplineSet
PickledDataWithLists: "(dp0
Vcom.schriftgestaltung.Glyphs.lastChange
p1
V2016-06-10 08:26:49 +0000
p2
s."
EndChar

StartChar: dnblock
Encoding: 9604 9604 195
GlifName: dnblock
Width: 575
VWidth: 0
Flags: W
LayerCount: 2
Fore
SplineSet
0 -250 m 257
 575 -250 l 257
 575 325 l 257
 0 325 l 257
 0 -250 l 257
EndSplineSet
PickledDataWithLists: "(dp0
Vcom.schriftgestaltung.Glyphs.lastChange
p1
V2016-06-10 08:26:49 +0000
p2
s."
EndChar

StartChar: dollar
Encoding: 36 36 196
GlifName: dollar
Width: 575
VWidth: 0
Flags: W
LayerCount: 2
Fore
SplineSet
517 197 m 256
 517 293 447 347 304 363 c 256
 217 373 184 394 184 441 c 256
 184 500 241 534 342 534 c 256
 366 534 429 532 477 523 c 256
 498 519 514 528 521 547 c 258
 532 573 l 258
 541 594 533 612 512 618 c 257
 511 618 l 257
 473 624 432 627 399 629 c 257
 423 783 l 258
 427 806 415 820 392 820 c 258
 357 820 l 258
 336 820 322 808 318 787 c 258
 293 626 l 257
 157 610 77 535 77 423 c 256
 77 327 140 282 290 266 c 256
 372 257 411 231 411 187 c 256
 411 127 341 87 230 87 c 256
 201 87 131 88 73 99 c 257
 72 99 l 258
 51 102 36 92 29 73 c 258
 19 47 l 258
 10 24 19 7 41 3 c 256
 93 -6 153 -9 192 -10 c 257
 168 -163 l 258
 164 -186 176 -200 199 -200 c 258
 234 -200 l 258
 255 -200 269 -188 273 -167 c 258
 298 -5 l 257
 434 15 517 91 517 197 c 256
  PathStart: -2
EndSplineSet
PickledDataWithLists: "(dp0
Vcom.schriftgestaltung.Glyphs.lastChange
p1
V2015-12-22 14:03:19 +0000
p2
s."
EndChar

StartChar: dotaccent
Encoding: 729 729 197
GlifName: dotaccent
Width: 575
VWidth: 0
Flags: W
AnchorPoint: "top" 363 500 mark 0
LayerCount: 2
Fore
SplineSet
413 675 m 258
 415 691 409 700 392 700 c 258
 317 700 l 258
 301 700 290 691 288 675 c 258
 277 608 l 258
 275 592 282 583 298 583 c 258
 373 583 l 258
 390 583 400 592 402 608 c 258
 413 675 l 258
EndSplineSet
PickledDataWithLists: "(dp0
Vcom.schriftgestaltung.Glyphs.lastChange
p1
V2015-12-22 16:32:41 +0000
p2
s."
EndChar

StartChar: dotbelowcomb
Encoding: 803 803 198
GlifName: dotbelowcomb
Width: 575
VWidth: 0
Flags: W
LayerCount: 2
Fore
SplineSet
132 -169 m 258
 129 -190 140 -204 162 -204 c 258
 267 -204 l 258
 288 -204 304 -191 307 -169 c 258
 321 -81 l 258
 324 -59 314 -46 292 -46 c 258
 187 -46 l 258
 165 -46 149 -60 146 -81 c 258
 132 -169 l 258
EndSplineSet
PickledDataWithLists: "(dp0
Vcom.schriftgestaltung.Glyphs.lastChange
p1
V2015-12-22 14:33:09 +0000
p2
s."
EndChar

StartChar: dotlessi
Encoding: 305 305 199
GlifName: dotlessi
Width: 575
VWidth: 0
Flags: W
AnchorPoint: "ogonek" 499 10 basechar 0
AnchorPoint: "bottom" 259 0 basechar 0
AnchorPoint: "top" 341 570 basechar 0
LayerCount: 2
Fore
SplineSet
465 69 m 257
 461 89 447 98 424 94 c 257
 404 89 383 87 360 87 c 256
 327 88 315 98 315 126 c 256
 315 136 316 146 319 158 c 257
 361 358 l 258
 365 377 367 395 367 412 c 256
 367 490 319 530 227 530 c 256
 207 530 175 529 136 520 c 256
 116 515 104 502 105 484 c 257
 110 451 l 257
 114 431 128 422 151 426 c 257
 171 431 192 433 215 433 c 256
 248 432 260 422 260 394 c 256
 260 384 259 374 256 362 c 257
 214 162 l 258
 210 143 208 125 208 108 c 256
 208 30 256 -10 348 -10 c 256
 368 -10 400 -9 439 0 c 256
 459 5 471 18 470 36 c 257
 465 69 l 257
EndSplineSet
PickledDataWithLists: "(dp0
Vcom.schriftgestaltung.Glyphs.lastChange
p1
V2016-06-09 18:35:33 +0000
p2
s."
EndChar

StartChar: e
Encoding: 101 101 200
GlifName: e
Width: 575
VWidth: 0
Flags: W
AnchorPoint: "ogonek" 499 10 basechar 0
AnchorPoint: "bottom" 259 0 basechar 0
AnchorPoint: "top" 351 570 basechar 0
LayerCount: 2
Fore
SplineSet
463 91 m 258
 458 111 443 118 421 110 c 257
 375 95 340 88 301 88 c 256
 217 88 176 130 176 214 c 256
 176 221 176 229 177 237 c 257
 461 237 l 258
 482 237 499 251 502 272 c 256
 508 312 510 324 510 341 c 256
 510 453 441 530 335 530 c 256
 176 530 70 367 70 198 c 256
 70 67 147 -10 285 -10 c 256
 338 -10 393 1 444 21 c 256
 464 29 474 46 469 67 c 258
 463 91 l 258
407 334 m 257
 201 334 l 257
 220 393 269 434 321 434 c 256
 375 434 410 392 407 334 c 257
  PathStart: -2
EndSplineSet
PickledDataWithLists: "(dp0
Vcom.schriftgestaltung.Glyphs.lastChange
p1
V2016-06-09 18:35:33 +0000
p2
s."
EndChar

StartChar: e.hex
Encoding: 65550 -1 201
GlifName: e.hex
Width: 575
VWidth: 0
Flags: W
LayerCount: 2
Fore
SplineSet
214 875 m 258
 214 891 205 900 189 900 c 258
 154 900 l 258
 138 900 129 891 129 875 c 258
 129 829 l 258
 129 813 137 804 154 804 c 258
 189 804 l 258
 205 804 214 812 214 829 c 258
 214 875 l 258
502 875 m 258
 502 891 493 900 477 900 c 258
 442 900 l 258
 426 900 417 891 417 875 c 258
 417 829 l 258
 417 813 425 804 442 804 c 258
 477 804 l 258
 493 804 502 812 502 829 c 258
 502 875 l 258
358 875 m 258
 358 891 349 900 333 900 c 258
 298 900 l 258
 282 900 273 891 273 875 c 258
 273 829 l 258
 273 813 281 804 298 804 c 258
 333 804 l 258
 349 804 358 812 358 829 c 258
 358 875 l 258
EndSplineSet
Refer: 200 101 N 1 0 0 1 0 0 2
PickledDataWithLists: "(dp0
Vcom.schriftgestaltung.Glyphs.lastChange
p1
V2016-06-09 18:35:34 +0000
p2
s."
EndChar

StartChar: eight
Encoding: 56 56 208
GlifName: eight
Width: 575
VWidth: 0
Flags: W
LayerCount: 2
Fore
SplineSet
555 580 m 256
 555 670 477 730 361 730 c 256
 220 730 113 641 113 521 c 256
 113 457 143 410 209 368 c 257
 92 303 31 230 31 152 c 256
 31 57 121 -10 247 -10 c 256
 407 -10 518 77 518 202 c 256
 518 284 467 332 408 369 c 257
 503 429 555 503 555 580 c 256
  PathStart: -2
349 634 m 256
 408 634 447 605 447 563 c 256
 447 519 398 457 330 414 c 257
 256 453 220 494 220 538 c 256
 220 591 277 634 349 634 c 256
  PathStart: -2
138 167 m 256
 138 221 189 272 290 325 c 257
 374 284 412 244 412 193 c 256
 412 130 349 87 259 87 c 256
 184 87 138 118 138 167 c 256
  PathStart: -2
EndSplineSet
PickledDataWithLists: "(dp0
Vcom.schriftgestaltung.Glyphs.lastChange
p1
V2015-12-22 20:52:45 +0000
p2
s."
EndChar

StartChar: eight.dnom
Encoding: 65551 -1 209
GlifName: eight.dnom
Width: 250
VWidth: 0
Flags: W
LayerCount: 2
Fore
SplineSet
262 274 m 257
 271 332 234 365 161 365 c 257
 87 365 39 331 30 273 c 257
 23 226 44 198 72 179 c 257
 24 151 -5 123 -11 84 c 257
 -21 21 20 -15 100 -15 c 257
 182 -15 234 22 244 85 c 257
 252 131 225 159 193 181 c 257
 232 207 257 239 262 274 c 257
  PathStart: -2
151 307 m 257
 186 307 199 295 195 273 c 257
 192 251 172 230 144 209 c 257
 114 227 92 243 97 273 c 257
 101 295 118 307 151 307 c 257
  PathStart: -2
56 88 m 257
 60 114 83 131 122 151 c 257
 157 135 183 121 178 87 c 257
 173 59 152 44 110 44 c 257
 68 44 51 59 56 88 c 257
  PathStart: -2
EndSplineSet
PickledDataWithLists: "(dp0
Vcom.schriftgestaltung.Glyphs.Export
p1
I00
sVcom.schriftgestaltung.Glyphs.lastChange
p2
V2015-12-22 13:07:21 +0000
p3
s."
EndChar

StartChar: eight.hex
Encoding: 65552 -1 210
GlifName: eight.hex
Width: 575
VWidth: 0
Flags: W
LayerCount: 2
Fore
SplineSet
214 875 m 258
 214 891 205 900 189 900 c 258
 154 900 l 258
 138 900 129 891 129 875 c 258
 129 829 l 258
 129 813 137 804 154 804 c 258
 189 804 l 258
 205 804 214 812 214 829 c 258
 214 875 l 258
EndSplineSet
Refer: 208 56 N 1 0 0 1 0 0 2
PickledDataWithLists: "(dp0
Vcom.schriftgestaltung.Glyphs.lastChange
p1
V2016-02-10 13:40:53 +0000
p2
s."
EndChar

StartChar: emdash
Encoding: 8212 8212 214
GlifName: emdash
Width: 575
VWidth: 0
Flags: W
LayerCount: 2
Fore
SplineSet
-2 249 m 258
 -6 226 7 212 29 212 c 258
 534 212 l 258
 555 212 570 225 573 246 c 258
 577 273 l 258
 580 295 568 309 546 309 c 258
 41 309 l 258
 20 309 5 296 2 275 c 258
 -2 249 l 258
EndSplineSet
PickledDataWithLists: "(dp0
Vcom.schriftgestaltung.Glyphs.lastChange
p1
V2016-05-22 17:00:36 +0000
p2
s."
EndChar

StartChar: emptyset
Encoding: 8709 8709 215
GlifName: emptyset
Width: 575
VWidth: 0
Flags: W
LayerCount: 2
Fore
SplineSet
600 474 m 257
 617 489 621 509 607 523 c 257
 584 551 l 257
 573 566 552 566 535 551 c 257
 446 474 l 257
 414 497 373 510 328 510 c 257
 198 510 78 405 57 275 c 257
 50 230 56 186 72 151 c 257
 -14 77 l 257
 -30 63 -33 43 -22 28 c 257
 2 0 l 257
 14 -15 35 -15 51 0 c 257
 137 74 l 257
 168 52 209 40 253 40 c 257
 381 40 502 145 522 275 c 257
 529 319 524 361 509 395 c 257
 600 474 l 257
162 229 m 257
 159 243 159 258 161 275 c 257
 173 347 240 405 311 405 c 257
 328 405 342 402 355 396 c 257
 162 229 l 257
418 317 m 257
 421 304 421 290 418 275 c 257
 407 203 341 146 270 146 c 257
 254 146 240 148 228 152 c 257
 418 317 l 257
EndSplineSet
PickledDataWithLists: "(dp0
Vcom.schriftgestaltung.Glyphs.lastChange
p1
V2015-12-22 14:07:55 +0000
p2
s."
EndChar

StartChar: endash
Encoding: 8211 8211 216
GlifName: endash
Width: 575
VWidth: 0
Flags: W
LayerCount: 2
Fore
SplineSet
148 249 m 258
 144 226 157 212 179 212 c 258
 384 212 l 258
 405 212 420 225 423 246 c 258
 427 273 l 258
 430 295 418 309 396 309 c 258
 191 309 l 258
 170 309 155 296 152 275 c 258
 148 249 l 258
EndSplineSet
PickledDataWithLists: "(dp0
Vcom.schriftgestaltung.Glyphs.lastChange
p1
V2016-05-22 12:19:24 +0000
p2
s."
EndChar

StartChar: epsilon
Encoding: 949 949 218
GlifName: epsilon
Width: 575
VWidth: 0
Flags: W
LayerCount: 2
Fore
SplineSet
470 64 m 258
 467 85 453 95 432 92 c 258
 431 92 l 257
 406 87 365 84 312 83 c 256
 212 83 160 101 160 130 c 256
 160 172 242 210 336 210 c 256
 356 210 371 222 375 243 c 257
 379 271 l 258
 382 293 370 307 348 307 c 256
 267 307 209 335 209 373 c 256
 209 411 269 434 371 434 c 256
 423 433 464 430 487 425 c 257
 488 425 l 257
 507 422 522 431 531 450 c 257
 542 477 l 258
 551 500 541 518 519 521 c 257
 484 527 435 530 383 530 c 256
 212 530 102 465 102 360 c 256
 102 313 129 279 182 259 c 257
 99 233 54 184 54 116 c 256
 54 30 139 -13 300 -13 c 256
 352 -13 402 -10 440 -4 c 257
 460 -1 473 14 473 37 c 257
 470 64 l 258
EndSplineSet
PickledDataWithLists: "(dp0
Vcom.schriftgestaltung.Glyphs.lastChange
p1
V2016-05-30 08:32:45 +0000
p2
s."
EndChar

StartChar: equal
Encoding: 61 61 219
GlifName: equal
Width: 575
VWidth: 0
Flags: W
LayerCount: 2
Fore
SplineSet
57 362 m 257
 54 342 67 327 87 327 c 257
 510 327 l 257
 531 327 547 342 550 362 c 257
 554 389 l 257
 558 409 546 424 525 424 c 257
 102 424 l 257
 82 424 65 409 61 388 c 257
 57 362 l 257
21 132 m 257
 18 112 30 97 50 97 c 257
 473 97 l 257
 494 97 511 112 514 132 c 257
 518 159 l 257
 521 179 510 194 489 194 c 257
 66 194 l 257
 46 194 28 179 25 158 c 257
 21 132 l 257
EndSplineSet
PickledDataWithLists: "(dp0
Vcom.schriftgestaltung.Glyphs.lastChange
p1
V2015-12-22 14:08:13 +0000
p2
s."
EndChar

StartChar: equivalence
Encoding: 8801 8801 220
GlifName: equivalence
Width: 575
VWidth: 0
Flags: W
LayerCount: 2
Fore
SplineSet
448 60 m 257
 469 60 486 75 489 95 c 257
 493 122 l 257
 496 142 485 157 464 157 c 257
 79 157 l 257
 59 157 41 142 38 122 c 257
 34 95 l 257
 31 75 43 60 63 60 c 257
 448 60 l 257
472 212 m 257
 493 212 510 227 513 247 c 257
 517 274 l 257
 520 294 509 309 488 309 c 257
 103 309 l 257
 83 309 65 294 62 274 c 257
 58 247 l 257
 55 227 67 212 87 212 c 257
 472 212 l 257
496 363 m 257
 517 363 534 378 537 398 c 257
 541 425 l 257
 544 445 533 460 512 460 c 257
 127 460 l 257
 107 460 89 445 86 425 c 257
 82 398 l 257
 79 378 91 363 111 363 c 257
 496 363 l 257
EndSplineSet
PickledDataWithLists: "(dp0
Vcom.schriftgestaltung.Glyphs.lastChange
p1
V2015-12-22 14:08:32 +0000
p2
s."
EndChar

StartChar: eta
Encoding: 951 951 221
GlifName: eta
Width: 575
VWidth: 0
Flags: W
AnchorPoint: "top" 341 520 basechar 0
LayerCount: 2
Fore
SplineSet
39 37 m 258
 36 14 48 0 70 0 c 258
 105 0 l 258
 127 0 141 12 144 34 c 258
 208 431 l 257
 249 433 285 434 307 434 c 256
 381 434 408 413 408 358 c 256
 408 347 406 334 404 319 c 258
 320 -213 l 258
 316 -235 328 -250 351 -250 c 258
 386 -250 l 258
 407 -250 421 -238 425 -217 c 258
 509 316 l 258
 512 340 514 360 514 376 c 256
 514 482 453 530 319 530 c 256
 286 530 221 529 146 518 c 257
 145 518 l 257
 125 514 113 501 110 482 c 258
 39 37 l 258
EndSplineSet
PickledDataWithLists: "(dp0
Vcom.schriftgestaltung.Glyphs.lastChange
p1
V2016-05-30 08:32:52 +0000
p2
s."
EndChar

StartChar: eth
Encoding: 240 240 222
GlifName: eth
Width: 575
VWidth: 0
Flags: W
LayerCount: 2
Fore
SplineSet
601 636 m 258
 596 657 580 665 559 657 c 258
 497 636 l 257
 461 690 409 722 345 729 c 257
 323 730 306 717 303 695 c 258
 297 666 l 258
 294 645 304 632 325 631 c 257
 324 631 l 257
 351 628 374 617 393 600 c 257
 317 574 l 258
 296 568 286 550 290 528 c 257
 294 505 l 257
 294 504 l 257
 299 484 315 476 336 484 c 257
 435 517 l 257
 442 487 445 452 443 412 c 257
 405 437 365 449 320 449 c 256
 175 449 59 323 59 175 c 256
 59 64 133 -10 249 -10 c 256
 456 -10 549 195 549 424 c 256
 549 470 544 513 534 551 c 257
 578 567 l 258
 599 573 610 591 606 611 c 258
 601 636 l 258
166 188 m 256
 166 272 221 351 308 351 c 256
 336 351 382 349 433 302 c 257
 410 168 346 88 262 88 c 256
 201 88 166 124 166 188 c 256
  PathStart: -2
EndSplineSet
PickledDataWithLists: "(dp0
Vcom.schriftgestaltung.Glyphs.lastChange
p1
V2016-06-09 18:35:33 +0000
p2
s."
EndChar

StartChar: exclam
Encoding: 33 33 223
GlifName: exclam
Width: 575
VWidth: 0
Flags: W
LayerCount: 2
Fore
SplineSet
333 720 m 257
 313 720 295 705 292 685 c 257
 233 240 l 257
 230 220 242 205 262 205 c 257
 295 205 l 257
 315 205 334 220 337 240 c 257
 417 685 l 257
 420 705 409 720 388 720 c 257
 333 720 l 257
310 72 m 257
 313 92 302 107 281 107 c 257
 246 107 l 257
 226 107 208 92 205 72 c 257
 198 25 l 257
 194 4 207 -10 227 -10 c 257
 262 -10 l 257
 283 -10 299 4 303 25 c 257
 310 72 l 257
EndSplineSet
PickledDataWithLists: "(dp0
Vcom.schriftgestaltung.Glyphs.lastChange
p1
V2016-02-14 11:57:10 +0000
p2
s."
EndChar

StartChar: f
Encoding: 102 102 226
GlifName: f
Width: 575
VWidth: 0
Flags: W
LayerCount: 2
Fore
SplineSet
227 520 m 257
 140 520 l 258
 120 520 104 506 101 486 c 258
 97 461 l 258
 93 439 108 424 128 424 c 258
 212 424 l 257
 146 12 l 258
 134 -65 116 -90 51 -125 c 256
 33 -134 23 -154 32 -173 c 257
 44 -203 l 258
 52 -222 73 -227 92 -217 c 256
 199 -160 233 -113 251 9 c 258
 318 424 l 257
 473 424 l 258
 493 424 508 438 512 457 c 258
 516 483 l 258
 518 504 506 520 485 520 c 258
 334 520 l 257
 339 558 l 258
 355 659 394 685 447 685 c 256
 471 685 491 681 516 672 c 257
 534 664 553 672 564 690 c 258
 579 716 l 258
 588 734 585 756 564 762 c 257
 533 775 495 783 459 783 c 256
 361 783 260 726 233 561 c 258
 227 520 l 257
EndSplineSet
PickledDataWithLists: "(dp0
Vcom.schriftgestaltung.Glyphs.lastChange
p1
V2016-06-09 18:35:33 +0000
p2
s."
EndChar

StartChar: f.hex
Encoding: 65557 -1 227
GlifName: f.hex
Width: 575
VWidth: 0
Flags: W
LayerCount: 2
Fore
SplineSet
214 875 m 258
 214 891 205 900 189 900 c 258
 154 900 l 258
 138 900 129 891 129 875 c 258
 129 829 l 258
 129 813 137 804 154 804 c 258
 189 804 l 258
 205 804 214 812 214 829 c 258
 214 875 l 258
502 875 m 258
 502 891 493 900 477 900 c 258
 442 900 l 258
 426 900 417 891 417 875 c 258
 417 829 l 258
 417 813 425 804 442 804 c 258
 477 804 l 258
 493 804 502 812 502 829 c 258
 502 875 l 258
358 875 m 258
 358 891 349 900 333 900 c 258
 298 900 l 258
 282 900 273 891 273 875 c 258
 273 829 l 258
 273 813 281 804 298 804 c 258
 333 804 l 258
 349 804 358 812 358 829 c 258
 358 875 l 258
646 875 m 258
 646 891 637 900 621 900 c 258
 586 900 l 258
 570 900 561 891 561 875 c 258
 561 829 l 258
 561 813 569 804 586 804 c 258
 621 804 l 258
 637 804 646 812 646 829 c 258
 646 875 l 258
EndSplineSet
Refer: 226 102 N 1 0 0 1 0 0 2
PickledDataWithLists: "(dp0
Vcom.schriftgestaltung.Glyphs.lastChange
p1
V2016-06-09 18:35:34 +0000
p2
s."
EndChar

StartChar: five
Encoding: 53 53 228
GlifName: five
Width: 575
VWidth: 0
Flags: W
LayerCount: 2
Fore
SplineSet
252 451 m 257
 292 624 l 257
 490 624 l 258
 512 624 526 636 529 658 c 258
 533 683 l 258
 537 706 525 720 502 720 c 258
 247 720 l 258
 226 720 211 708 207 689 c 258
 139 401 l 258
 134 379 144 364 166 361 c 258
 214 354 l 257
 279 354 l 258
 358 354 394 320 394 246 c 256
 394 146 329 88 217 88 c 256
 184 88 152 92 122 99 c 256
 103 104 86 96 77 77 c 258
 65 49 l 258
 56 28 63 10 83 4 c 256
 121 -5 162 -10 205 -10 c 256
 391 -10 501 91 501 264 c 256
 501 389 431 451 292 451 c 258
 252 451 l 257
EndSplineSet
PickledDataWithLists: "(dp0
Vcom.schriftgestaltung.Glyphs.lastChange
p1
V2015-12-22 20:52:19 +0000
p2
s."
EndChar

StartChar: five.dnom
Encoding: 65558 -1 229
GlifName: five.dnom
Width: 250
VWidth: 0
Flags: W
LayerCount: 2
Fore
SplineSet
101 216 m 257
 128 302 l 257
 229 302 l 258
 244 302 255 314 257 325 c 258
 259 338 l 258
 261 350 252 360 238 360 c 258
 101 360 l 258
 90 360 76 352 72 340 c 258
 35 215 l 258
 32 206 34 198 40 191 c 257
 58 167 l 257
 62 162 70 157 80 157 c 258
 112 157 l 258
 156 157 174 139 168 101 c 256
 162 63 137 44 90 44 c 256
 73 44 59 46 45 50 c 256
 33 53 17 45 12 35 c 258
 6 21 l 258
 1 9 6 -4 19 -8 c 256
 37 -13 59 -15 81 -15 c 256
 168 -15 224 27 235 101 c 256
 247 174 206 216 122 216 c 258
 101 216 l 257
EndSplineSet
PickledDataWithLists: "(dp0
Vcom.schriftgestaltung.Glyphs.Export
p1
I00
sVcom.schriftgestaltung.Glyphs.lastChange
p2
V2015-12-22 13:06:15 +0000
p3
s."
EndChar

StartChar: five.hex
Encoding: 65559 -1 230
GlifName: five.hex
Width: 575
VWidth: 0
Flags: W
LayerCount: 2
Fore
SplineSet
358 875 m 258
 358 891 349 900 333 900 c 258
 298 900 l 258
 282 900 273 891 273 875 c 258
 273 829 l 258
 273 813 281 804 298 804 c 258
 333 804 l 258
 349 804 358 812 358 829 c 258
 358 875 l 258
646 875 m 258
 646 891 637 900 621 900 c 258
 586 900 l 258
 570 900 561 891 561 875 c 258
 561 829 l 258
 561 813 569 804 586 804 c 258
 621 804 l 258
 637 804 646 812 646 829 c 258
 646 875 l 258
EndSplineSet
Refer: 228 53 N 1 0 0 1 0 0 2
PickledDataWithLists: "(dp0
Vcom.schriftgestaltung.Glyphs.lastChange
p1
V2016-02-10 13:20:16 +0000
p2
s."
EndChar

StartChar: florin
Encoding: 402 402 233
GlifName: florin
Width: 575
VWidth: 0
Flags: W
LayerCount: 2
Fore
SplineSet
182 520 m 257
 94 520 l 258
 74 520 59 506 55 487 c 258
 50 461 l 258
 46 439 61 424 81 424 c 258
 164 424 l 257
 78 -63 l 257
 76 -85 88 -100 109 -100 c 258
 144 -100 l 258
 163 -100 180 -88 183 -66 c 257
 269 424 l 257
 425 424 l 258
 446 424 461 438 465 457 c 258
 469 483 l 258
 473 504 460 520 439 520 c 258
 287 520 l 257
 302 607 l 258
 313 667 334 684 388 684 c 256
 409 684 446 682 490 674 c 257
 509 672 527 681 534 699 c 258
 545 725 l 258
 554 746 545 765 524 769 c 256
 474 778 429 780 401 780 c 256
 282 780 218 732 197 611 c 258
 182 520 l 257
EndSplineSet
PickledDataWithLists: "(dp0
Vcom.schriftgestaltung.Glyphs.lastChange
p1
V2015-12-22 12:14:05 +0000
p2
s."
EndChar

StartChar: four
Encoding: 52 52 234
GlifName: four
Width: 575
VWidth: 0
Flags: W
LayerCount: 2
Fore
SplineSet
438 241 m 257
 463 402 l 257
 467 422 454 437 434 437 c 257
 399 437 l 257
 379 437 362 422 358 402 c 257
 333 241 l 257
 178 241 l 257
 465 676 l 257
 481 699 469 720 444 720 c 257
 408 720 l 257
 385 720 369 711 357 691 c 257
 70 254 l 257
 63 243 59 232 57 219 c 257
 50 179 l 257
 47 159 59 145 79 145 c 257
 318 145 l 257
 300 35 l 257
 297 15 309 0 329 0 c 257
 364 0 l 257
 385 0 401 15 404 35 c 257
 422 145 l 257
 467 145 l 257
 488 145 504 160 507 180 c 257
 511 206 l 257
 515 226 503 241 482 241 c 257
 438 241 l 257
EndSplineSet
PickledDataWithLists: "(dp0
Vcom.schriftgestaltung.Glyphs.lastChange
p1
V2015-12-22 20:52:10 +0000
p2
s."
EndChar

StartChar: four.dnom
Encoding: 65561 -1 235
GlifName: four.dnom
Width: 250
VWidth: 0
Flags: W
LayerCount: 2
Fore
SplineSet
208 121 m 257
 219 196 l 258
 221 208 212 219 198 219 c 258
 181 219 l 258
 168 219 154 208 152 196 c 258
 141 121 l 257
 81 121 l 257
 218 331 l 257
 228 344 220 360 203 360 c 258
 185 360 l 258
 172 360 160 353 153 343 c 258
 9 124 l 258
 5 118 3 112 2 105 c 258
 -1 85 l 258
 -3 73 6 63 19 63 c 258
 131 63 l 257
 123 13 l 257
 122 2 129 -10 144 -10 c 258
 162 -10 l 258
 176 -10 188 2 189 13 c 257
 197 63 l 257
 213 63 l 258
 227 63 239 73 241 85 c 258
 243 98 l 258
 245 109 237 121 223 121 c 258
 208 121 l 257
EndSplineSet
PickledDataWithLists: "(dp0
Vcom.schriftgestaltung.Glyphs.Export
p1
I00
sVcom.schriftgestaltung.Glyphs.lastChange
p2
V2015-12-22 13:05:53 +0000
p3
s."
EndChar

StartChar: four.hex
Encoding: 65562 -1 236
GlifName: four.hex
Width: 575
VWidth: 0
Flags: W
LayerCount: 2
Fore
SplineSet
358 875 m 258
 358 891 349 900 333 900 c 258
 298 900 l 258
 282 900 273 891 273 875 c 258
 273 829 l 258
 273 813 281 804 298 804 c 258
 333 804 l 258
 349 804 358 812 358 829 c 258
 358 875 l 258
EndSplineSet
Refer: 234 52 N 1 0 0 1 0 0 2
PickledDataWithLists: "(dp0
Vcom.schriftgestaltung.Glyphs.lastChange
p1
V2016-02-10 13:19:53 +0000
p2
s."
EndChar

StartChar: g
Encoding: 103 103 239
GlifName: g
Width: 575
VWidth: 0
Flags: W
AnchorPoint: "top" 351 570 basechar 0
AnchorPoint: "bottom" 259 0 basechar 0
LayerCount: 2
Fore
SplineSet
349 -27 m 258
 334 -121 300 -155 222 -155 c 256
 186 -155 142 -148 90 -140 c 256
 68 -137 51 -149 47 -169 c 258
 42 -195 l 258
 37 -220 45 -233 67 -236 c 256
 121 -242 172 -250 221 -250 c 256
 358 -250 428 -184 453 -30 c 258
 532 479 l 258
 535 501 524 516 503 520 c 257
 502 520 l 257
 441 528 386 530 357 530 c 256
 168 530 67 415 67 200 c 256
 67 66 119 -10 212 -10 c 256
 260 -10 313 11 366 68 c 257
 349 -27 l 258
379 166 m 257
 331 115 281 86 242 86 c 256
 196 86 173 128 173 215 c 256
 173 361 230 434 345 434 c 256
 361 434 388 433 421 431 c 257
 379 166 l 257
EndSplineSet
PickledDataWithLists: "(dp0
Vcom.schriftgestaltung.Glyphs.lastChange
p1
V2016-06-09 18:35:33 +0000
p2
s."
EndChar

StartChar: gamma
Encoding: 947 947 240
GlifName: gamma
Width: 575
VWidth: 0
Flags: W
LayerCount: 2
Fore
SplineSet
91 481 m 257
 136 -12 l 258
 143 -92 145 -167 142 -215 c 257
 139 -237 151 -250 173 -250 c 258
 201 -250 l 258
 221 -250 236 -238 240 -217 c 257
 240 -216 l 257
 247 -146 248 -72 243 -10 c 257
 245 -10 l 258
 313 -10 366 24 391 86 c 258
 551 478 l 258
 561 503 550 520 525 520 c 258
 489 520 l 258
 470 520 455 510 449 492 c 257
 291 107 l 258
 285 91 273 83 256 83 c 258
 234 83 l 257
 197 490 l 257
 194 510 183 520 163 520 c 258
 127 520 l 258
 104 520 88 504 91 481 c 257
  PathStart: -2
EndSplineSet
PickledDataWithLists: "(dp0
Vcom.schriftgestaltung.Glyphs.lastChange
p1
V2016-05-30 08:32:29 +0000
p2
s."
EndChar

StartChar: germandbls
Encoding: 223 223 242
GlifName: germandbls
Width: 575
VWidth: 0
Flags: W
AnchorPoint: "top" 341 520 basechar 0
AnchorPoint: "bottom" 259 0 basechar 0
LayerCount: 2
Fore
SplineSet
236 502 m 258
 248 583 288 624 353 624 c 256
 405 624 430 603 430 562 c 256
 430 531 415 516 389 484 c 256
 361 450 324 408 324 359 c 256
 324 320 351 299 374 281 c 257
 396 262 415 247 415 219 c 256
 415 150 357 104 261 98 c 257
 261 98 l 257
 239 95 226 83 223 63 c 258
 219 38 l 258
 215 14 227 0 252 1 c 256
 411 9 516 98 516 226 c 256
 516 278 484 308 460 331 c 256
 443 348 431 359 431 375 c 256
 431 391 448 411 464 431 c 256
 501 476 532 520 532 585 c 256
 532 672 473 720 365 720 c 256
 234 720 153 645 131 506 c 258
 56 37 l 258
 53 14 65 0 87 0 c 258
 122 0 l 258
 144 0 158 12 161 34 c 258
 236 502 l 258
EndSplineSet
PickledDataWithLists: "(dp0
Vcom.schriftgestaltung.Glyphs.lastChange
p1
V2016-06-09 18:35:34 +0000
p2
s."
EndChar

StartChar: grave
Encoding: 96 96 243
GlifName: grave
Width: 575
VWidth: 0
Flags: W
AnchorPoint: "top" 328 500 mark 0
LayerCount: 2
Fore
SplineSet
470 595 m 258
 277 696 l 258
 263 703 250 699 242 684 c 258
 212 638 l 258
 203 623 206 611 221 606 c 258
 432 531 l 258
 445 526 456 530 467 544 c 257
 478 562 l 257
 486 577 484 588 470 595 c 258
  PathStart: -2
EndSplineSet
PickledDataWithLists: "(dp0
Vcom.schriftgestaltung.Glyphs.lastChange
p1
V2015-12-22 16:32:42 +0000
p2
s."
EndChar

StartChar: greater
Encoding: 62 62 244
GlifName: greater
Width: 575
VWidth: 0
Flags: W
LayerCount: 2
Fore
SplineSet
189 570 m 258
 174 583 155 581 139 564 c 257
 117 541 l 258
 100 524 100 505 115 492 c 258
 398 250 l 257
 38 8 l 258
 19 -5 14 -24 24 -41 c 258
 40 -64 l 258
 50 -81 69 -83 89 -70 c 258
 451 174 l 258
 483 195 504 223 508 250 c 256
 513 277 500 305 475 326 c 258
 189 570 l 258
EndSplineSet
PickledDataWithLists: "(dp0
Vcom.schriftgestaltung.Glyphs.lastChange
p1
V2016-06-09 12:12:14 +0000
p2
s."
EndChar

StartChar: greaterequal
Encoding: 8805 8805 245
GlifName: greaterequal
Width: 575
VWidth: 0
Flags: W
LayerCount: 2
Fore
SplineSet
181 664 m 258
 163 674 144 668 133 650 c 257
 133 651 l 257
 115 626 l 258
 102 607 105 589 123 577 c 257
 430 411 l 257
 68 243 l 258
 48 234 40 216 47 196 c 257
 62 164 l 257
 70 151 85 148 102 156 c 258
 474 329 l 258
 520 349 549 378 554 409 c 256
 559 440 539 469 498 492 c 258
 181 664 l 258
10 64 m 257
 5 37 l 257
 5 36 l 257
 2 14 14 0 36 0 c 258
 459 0 l 258
 481 0 495 12 498 34 c 257
 498 33 l 257
 503 60 l 257
 503 61 l 257
 506 84 494 97 472 97 c 258
 49 97 l 258
 28 97 13 84 10 63 c 257
 10 64 l 257
EndSplineSet
PickledDataWithLists: "(dp0
Vcom.schriftgestaltung.Glyphs.lastChange
p1
V2015-12-22 14:10:07 +0000
p2
s."
EndChar

StartChar: guillemotleft
Encoding: 171 171 246
GlifName: guillemotleft
Width: 575
VWidth: 0
Flags: W
LayerCount: 2
Fore
SplineSet
128 260 m 257
 337 440 l 257
 354 456 357 476 343 490 c 258
 324 511 l 258
 310 525 292 525 273 509 c 258
 70 333 l 258
 38 306 24 285 20 260 c 256
 15 229 31 207 47 188 c 258
 195 11 l 257
 208 -4 225 -4 243 9 c 257
 271 31 l 258
 289 45 292 65 279 80 c 258
 128 260 l 257
364 260 m 257
 573 440 l 258
 591 456 594 476 579 491 c 258
 560 511 l 258
 546 525 527 525 510 509 c 257
 306 333 l 258
 274 306 260 285 256 260 c 256
 251 229 267 207 283 188 c 258
 432 11 l 258
 443 -4 461 -4 479 9 c 257
 507 31 l 257
 526 45 530 65 515 80 c 257
 364 260 l 257
EndSplineSet
PickledDataWithLists: "(dp0
Vcom.schriftgestaltung.Glyphs.lastChange
p1
V2015-12-22 13:55:11 +0000
p2
s."
EndChar

StartChar: guilsinglleft
Encoding: 8249 8249 248
GlifName: guilsinglleft
Width: 575
VWidth: 0
Flags: W
LayerCount: 2
Fore
SplineSet
246 260 m 257
 455 440 l 257
 472 455 475 477 461 491 c 257
 441 511 l 257
 429 524 408 524 392 509 c 257
 188 333 l 257
 155 306 137 279 137 250 c 256
 137 230 146 209 165 188 c 257
 313 11 l 257
 325 -3 345 -3 362 9 c 257
 388 31 l 257
 407 44 410 66 397 80 c 257
 246 260 l 257
EndSplineSet
PickledDataWithLists: "(dp0
Vcom.schriftgestaltung.Glyphs.lastChange
p1
V2015-12-22 13:57:17 +0000
p2
s."
EndChar

StartChar: h
Encoding: 104 104 250
GlifName: h
Width: 575
VWidth: 0
Flags: W
AnchorPoint: "center" 288 250 basechar 0
AnchorPoint: "top" 408 620 basechar 0
LayerCount: 2
Fore
SplineSet
255 733 m 258
 259 755 247 770 224 770 c 258
 187 770 l 258
 168 770 154 755 149 732 c 258
 39 37 l 258
 36 14 48 0 70 0 c 258
 105 0 l 258
 126 0 141 13 144 34 c 258
 195 354 l 257
 247 408 295 434 343 434 c 256
 388 434 405 412 405 354 c 256
 405 337 403 316 399 290 c 258
 359 37 l 258
 356 14 368 0 390 0 c 258
 425 0 l 258
 447 0 461 12 464 34 c 258
 504 286 l 258
 508 315 511 343 511 369 c 256
 511 476 464 530 372 530 c 256
 316 530 263 510 209 452 c 257
 255 733 l 258
EndSplineSet
PickledDataWithLists: "(dp0
Vcom.schriftgestaltung.Glyphs.lastChange
p1
V2016-06-09 18:35:33 +0000
p2
s."
EndChar

StartChar: heart
Encoding: 9829 9829 252
GlifName: heart
Width: 575
VWidth: 0
Flags: W
LayerCount: 2
Fore
SplineSet
175 530 m 256
 96 530 36 462 36 373 c 256
 36 255 126 124 288 -20 c 257
 445 120 540 251 540 373 c 256
 540 457 481 530 400 530 c 256
 351 530 308 499 288 460 c 257
 268 499 226 530 175 530 c 256
  PathStart: -2
EndSplineSet
PickledDataWithLists: "(dp0
Vcom.schriftgestaltung.Glyphs.lastChange
p1
V2016-06-10 08:28:00 +0000
p2
s."
Comment: "+AAoA    heart+AAoA  "
EndChar

StartChar: hungarumlaut
Encoding: 733 733 253
GlifName: hungarumlaut
Width: 575
VWidth: 0
Flags: W
AnchorPoint: "top" 331 500 mark 0
LayerCount: 2
Fore
SplineSet
359 691 m 258
 349 703 337 702 324 690 c 258
 216 588 l 258
 203 576 201 564 210 553 c 258
 227 533 l 258
 236 522 248 521 262 532 c 258
 379 624 l 258
 393 635 395 648 386 659 c 258
 359 691 l 258
588 691 m 258
 578 703 566 702 553 690 c 258
 444 588 l 258
 431 576 430 564 439 553 c 258
 456 533 l 258
 465 522 477 521 491 532 c 258
 607 624 l 258
 621 635 624 648 614 659 c 258
 588 691 l 258
EndSplineSet
PickledDataWithLists: "(dp0
Vcom.schriftgestaltung.Glyphs.lastChange
p1
V2015-12-22 16:32:42 +0000
p2
s."
EndChar

StartChar: hyphen
Encoding: 45 45 254
GlifName: hyphen
Width: 575
VWidth: 0
Flags: W
LayerCount: 2
Fore
SplineSet
38 237 m 257
 35 217 48 202 68 202 c 257
 491 202 l 257
 511 202 528 217 531 237 c 257
 536 264 l 257
 539 284 526 299 506 299 c 257
 83 299 l 257
 63 299 46 284 42 263 c 257
 38 237 l 257
EndSplineSet
PickledDataWithLists: "(dp0
Vcom.schriftgestaltung.Glyphs.lastChange
p1
V2015-12-22 16:32:53 +0000
p2
s."
EndChar

StartChar: i
Encoding: 105 105 255
GlifName: i
Width: 575
VWidth: 0
Flags: W
LayerCount: 2
Fore
SplineSet
377 644 m 258
 399 644 413 656 416 678 c 258
 427 743 l 258
 431 766 419 780 396 780 c 258
 331 780 l 258
 310 780 295 767 292 746 c 258
 281 681 l 257
 278 658 290 644 312 644 c 258
 377 644 l 258
EndSplineSet
Refer: 199 305 N 1 0 0 1 0 0 2
PickledDataWithLists: "(dp0
Vcom.schriftgestaltung.Glyphs.lastChange
p1
V2016-06-09 18:35:33 +0000
p2
s."
EndChar

StartChar: ij
Encoding: 307 307 260
GlifName: ij
Width: 575
VWidth: 0
Flags: W
LayerCount: 2
Fore
SplineSet
319 654 m 257
 340 654 356 668 360 689 c 257
 367 735 l 257
 370 755 358 770 337 770 c 257
 302 770 l 257
 282 770 265 755 262 735 c 257
 255 689 l 257
 251 669 264 654 284 654 c 257
 319 654 l 257
512 770 m 257
 492 770 475 755 472 735 c 257
 465 689 l 257
 461 669 474 654 494 654 c 257
 529 654 l 257
 550 654 566 669 570 689 c 257
 577 735 l 257
 580 756 567 770 547 770 c 257
 512 770 l 257
158 520 m 257
 138 520 121 506 117 485 c 257
 113 459 l 257
 110 439 123 424 143 424 c 257
 213 424 l 257
 151 35 l 257
 148 15 160 0 180 0 c 257
 215 0 l 257
 236 0 253 15 256 35 c 257
 318 424 l 257
 423 424 l 257
 361 34 l 257
 341 -91 282 -151 155 -151 c 257
 133 -151 100 -150 59 -142 c 257
 40 -138 21 -149 13 -169 c 257
 2 -194 l 257
 -7 -215 3 -233 22 -237 c 257
 70 -246 112 -248 140 -248 c 257
 328 -248 436 -157 466 34 c 257
 537 485 l 257
 540 504 531 520 513 520 c 257
 158 520 l 257
EndSplineSet
PickledDataWithLists: "(dp0
Vcom.schriftgestaltung.Glyphs.lastChange
p1
V2016-06-09 18:35:33 +0000
p2
s."
EndChar

StartChar: infinity
Encoding: 8734 8734 262
GlifName: infinity
Width: 575
VWidth: 0
Flags: W
LayerCount: 2
Fore
SplineSet
180 413 m 256
 96 413 30 323 30 210 c 256
 30 133 71 85 136 85 c 256
 190 85 233 111 272 167 c 257
 302 110 341 80 388 80 c 256
 474 80 546 176 546 289 c 256
 546 369 504 418 434 418 c 256
 383 418 340 392 294 334 c 257
 266 386 228 413 180 413 c 256
  PathStart: -2
121 213 m 256
 121 278 142 325 172 325 c 256
 199 325 227 301 244 263 c 257
 210 202 177 172 147 172 c 256
 129 172 121 184 121 213 c 256
  PathStart: -2
392 167 m 256
 365 167 343 189 320 241 c 257
 359 304 389 331 421 331 c 256
 444 331 455 317 455 284 c 256
 455 215 429 167 392 167 c 256
  PathStart: -2
EndSplineSet
PickledDataWithLists: "(dp0
Vcom.schriftgestaltung.Glyphs.lastChange
p1
V2015-12-22 14:13:58 +0000
p2
s."
EndChar

StartChar: integral
Encoding: 8747 8747 263
GlifName: integral
Width: 575
VWidth: 0
Flags: W
LayerCount: 2
Fore
SplineSet
-6 -106 m 258
 -16 -126 -9 -146 11 -150 c 257
 48 -159 80 -160 100 -160 c 256
 215 -160 282 -107 300 9 c 258
 380 511 l 258
 388 564 407 583 460 584 c 256
 476 584 499 582 522 577 c 257
 540 572 559 581 569 599 c 257
 570 600 l 257
 582 626 l 257
 581 625 l 257
 592 646 585 666 564 670 c 257
 527 679 496 680 476 680 c 256
 361 680 293 627 275 511 c 258
 195 9 l 258
 187 -44 168 -63 116 -64 c 256
 99 -64 76 -62 53 -57 c 257
 54 -57 l 257
 36 -52 16 -61 7 -80 c 258
 -6 -106 l 258
EndSplineSet
PickledDataWithLists: "(dp0
Vcom.schriftgestaltung.Glyphs.lastChange
p1
V2015-12-22 14:14:22 +0000
p2
s."
EndChar

StartChar: iota
Encoding: 953 953 265
GlifName: iota
Width: 575
VWidth: 0
Flags: W
LayerCount: 2
Fore
SplineSet
415 69 m 257
 411 89 397 98 374 94 c 257
 354 89 333 87 310 87 c 256
 258 88 246 104 254 158 c 258
 306 484 l 258
 309 508 297 521 275 521 c 258
 240 521 l 258
 218 521 203 508 201 487 c 257
 149 162 l 258
 131 45 178 -10 298 -10 c 256
 318 -10 350 -9 389 0 c 256
 409 5 421 18 420 36 c 257
 415 69 l 257
EndSplineSet
PickledDataWithLists: "(dp0
Vcom.schriftgestaltung.Glyphs.lastChange
p1
V2015-12-22 12:32:48 +0000
p2
s."
EndChar

StartChar: j
Encoding: 106 106 266
GlifName: j
Width: 575
VWidth: 0
Flags: W
LayerCount: 2
Fore
SplineSet
461 780 m 258
 440 780 425 767 422 746 c 258
 411 681 l 257
 408 658 420 644 442 644 c 258
 507 644 l 258
 529 644 543 656 546 678 c 258
 557 743 l 258
 561 766 549 780 526 780 c 258
 461 780 l 258
244 522 m 256
 223 518 211 504 211 483 c 257
 212 455 l 257
 211 433 226 421 250 425 c 256
 283 431 310 435 333 435 c 256
 387 435 407 415 407 361 c 256
 407 347 405 330 402 312 c 258
 373 132 l 258
 353 1 295 -62 194 -62 c 256
 155 -62 122 -55 81 -40 c 257
 62 -32 45 -39 34 -58 c 258
 20 -82 l 257
 9 -103 14 -121 33 -129 c 257
 78 -150 129 -160 182 -160 c 256
 343 -160 450 -55 479 128 c 258
 508 308 l 258
 512 333 514 354 514 375 c 256
 514 481 460 532 348 532 c 256
 320 532 288 529 244 522 c 256
  PathStart: -2
EndSplineSet
PickledDataWithLists: "(dp0
Vcom.schriftgestaltung.Glyphs.lastChange
p1
V2016-06-09 18:35:33 +0000
p2
s."
EndChar

StartChar: k
Encoding: 107 107 268
GlifName: k
Width: 575
VWidth: 0
Flags: W
AnchorPoint: "top" 341 570 basechar 0
AnchorPoint: "bottom" 259 0 basechar 0
LayerCount: 2
Fore
SplineSet
367 530 m 256
 313 530 260 511 215 477 c 257
 256 733 l 258
 260 755 248 770 225 770 c 258
 190 770 l 258
 170 770 155 758 151 737 c 258
 40 37 l 258
 37 14 49 0 71 0 c 258
 106 0 l 258
 127 0 142 13 145 34 c 258
 203 399 l 257
 244 419 296 433 332 433 c 256
 365 433 379 423 375 404 c 257
 370 368 309 309 221 257 c 256
 199 243 194 223 209 206 c 257
 208 207 l 257
 355 17 l 257
 356 16 l 257
 366 5 377 0 392 0 c 258
 450 0 l 258
 482 0 495 25 476 48 c 257
 476 47 l 257
 334 227 l 257
 417 276 478 349 489 415 c 256
 500 487 450 530 367 530 c 256
  PathStart: -2
EndSplineSet
PickledDataWithLists: "(dp0
Vcom.schriftgestaltung.Glyphs.lastChange
p1
V2016-06-09 18:35:33 +0000
p2
s."
EndChar

StartChar: kappa
Encoding: 954 954 269
GlifName: kappa
Width: 575
VWidth: 0
Flags: W
LayerCount: 2
Fore
SplineSet
305 250 m 258
 300 256 295 263 282 270 c 257
 297 277 305 284 312 290 c 258
 523 472 l 258
 549 494 542 520 510 520 c 258
 452 520 l 258
 437 520 424 515 412 504 c 258
 203 324 l 258
 198 320 193 316 188 312 c 257
 216 486 l 258
 219 507 208 521 186 521 c 258
 151 521 l 258
 130 521 114 507 111 486 c 258
 39 35 l 258
 36 14 47 0 69 0 c 258
 104 0 l 258
 125 0 141 14 144 35 c 257
 175 229 l 257
 178 225 182 221 186 217 c 258
 354 16 l 258
 364 5 374 0 390 0 c 258
 448 0 l 258
 480 0 494 26 476 48 c 258
 305 250 l 258
EndSplineSet
PickledDataWithLists: "(dp0
Vcom.schriftgestaltung.Glyphs.lastChange
p1
V2015-12-22 12:33:21 +0000
p2
s."
EndChar

StartChar: l
Encoding: 108 108 270
GlifName: l
Width: 575
VWidth: 0
Flags: W
AnchorPoint: "bottom" 259 0 basechar 0
AnchorPoint: "top" 341 720 basechar 0
AnchorPoint: "topright" 621 520 basechar 0
AnchorPoint: "center" 300 260 basechar 0
LayerCount: 2
Fore
SplineSet
465 69 m 257
 461 89 447 98 424 94 c 257
 424 94 l 257
 404 89 383 87 360 87 c 256
 316 88 302 99 302 132 c 256
 302 141 302 149 304 158 c 257
 375 608 l 258
 378 623 379 638 379 655 c 256
 379 740 330 780 227 780 c 256
 207 780 175 779 135 770 c 256
 113 765 101 748 105 727 c 257
 109 701 l 257
 114 681 128 672 150 676 c 257
 170 681 192 683 215 683 c 256
 258 682 273 671 273 639 c 256
 273 631 272 623 270 612 c 258
 199 162 l 258
 197 145 195 131 195 117 c 256
 195 31 245 -10 348 -10 c 256
 368 -10 400 -9 439 0 c 256
 459 5 471 18 470 36 c 257
 465 69 l 257
EndSplineSet
PickledDataWithLists: "(dp0
Vcom.schriftgestaltung.Glyphs.lastChange
p1
V2016-06-09 18:35:33 +0000
p2
s."
EndChar

StartChar: lacute
Encoding: 314 314 271
GlifName: lacute
Width: 575
VWidth: 0
Flags: W
AnchorPoint: "bottom" 259 0 basechar 0
AnchorPoint: "top" 341 720 basechar 0
AnchorPoint: "topright" 621 520 basechar 0
AnchorPoint: "center" 300 260 basechar 0
LayerCount: 2
Fore
SplineSet
465 69 m 257
 461 89 447 98 424 94 c 257
 424 94 l 257
 404 89 383 87 360 87 c 256
 316 88 302 99 302 132 c 256
 302 141 302 149 304 158 c 257
 373 564 l 258
 376 579 377 594 377 611 c 256
 377 696 328 736 225 736 c 256
 205 736 173 735 133 726 c 256
 111 721 99 704 103 683 c 257
 107 657 l 257
 112 637 126 628 148 632 c 257
 168 637 190 639 213 639 c 256
 256 639 271 627 271 595 c 256
 271 587 270 579 268 568 c 258
 199 162 l 258
 196 145 195 131 195 117 c 256
 195 31 245 -10 348 -10 c 256
 368 -10 400 -9 439 0 c 256
 459 5 471 18 470 36 c 257
 465 69 l 257
EndSplineSet
Refer: 141 180 N 1 0 0 1 -22 220 2
PickledDataWithLists: "(dp0
Vcom.schriftgestaltung.Glyphs.lastChange
p1
V2016-06-09 18:35:33 +0000
p2
s."
EndChar

StartChar: lambda
Encoding: 955 955 272
GlifName: lambda
Width: 575
VWidth: 0
Flags: W
LayerCount: 2
Fore
SplineSet
148 672 m 258
 144 648 l 258
 141 627 153 613 174 613 c 256
 216 613 244 577 268 492 c 257
 9 43 l 258
 -5 18 6 0 31 0 c 258
 68 0 l 258
 86 0 101 9 110 25 c 258
 304 375 l 257
 391 25 l 258
 394 9 407 0 425 0 c 258
 462 0 l 258
 487 0 504 18 498 43 c 258
 374 514 l 258
 340 646 282 707 189 707 c 256
 168 707 152 693 148 672 c 258
  PathStart: -2
EndSplineSet
PickledDataWithLists: "(dp0
Vcom.schriftgestaltung.Glyphs.lastChange
p1
V2016-05-30 08:32:58 +0000
p2
s."
EndChar

StartChar: lcaron
Encoding: 318 318 273
GlifName: lcaron
Width: 575
VWidth: 0
Flags: W
LayerCount: 2
Fore
SplineSet
465 69 m 257
 461 89 447 98 424 94 c 257
 424 94 l 257
 404 89 383 87 360 87 c 256
 316 88 302 99 302 132 c 256
 302 141 302 149 304 158 c 257
 373 564 l 258
 376 579 377 594 377 611 c 256
 377 696 328 736 225 736 c 256
 205 736 173 735 133 726 c 256
 111 721 99 704 103 683 c 257
 107 657 l 257
 112 637 126 628 148 632 c 257
 168 637 190 639 213 639 c 256
 256 639 271 627 271 595 c 256
 271 587 270 579 268 568 c 258
 199 162 l 258
 196 145 195 131 195 117 c 256
 195 31 245 -10 348 -10 c 256
 368 -10 400 -9 439 0 c 256
 459 5 471 18 470 36 c 257
 465 69 l 257
EndSplineSet
Refer: 172 711 N 1 0 0 1 -10 199 2
PickledDataWithLists: "(dp0
Vcom.schriftgestaltung.Glyphs.lastChange
p1
V2016-06-09 18:35:33 +0000
p2
s."
EndChar

StartChar: lfblock
Encoding: 9612 9612 277
GlifName: lfblock
Width: 575
VWidth: 0
Flags: W
LayerCount: 2
Fore
SplineSet
0 -250 m 257
 287 -250 l 257
 287 900 l 257
 0 900 l 257
 0 -250 l 257
EndSplineSet
PickledDataWithLists: "(dp0
Vcom.schriftgestaltung.Glyphs.lastChange
p1
V2016-06-10 08:26:49 +0000
p2
s."
EndChar

StartChar: logicalnot
Encoding: 172 172 278
GlifName: logicalnot
Width: 575
VWidth: 0
Flags: W
LayerCount: 2
Fore
SplineSet
136 424 m 258
 116 424 101 412 97 391 c 257
 93 363 l 257
 89 342 101 327 124 327 c 258
 407 327 l 257
 379 152 l 258
 376 129 388 115 410 115 c 258
 445 115 l 258
 467 115 481 127 484 149 c 258
 522 387 l 258
 526 409 514 424 491 424 c 258
 136 424 l 258
EndSplineSet
PickledDataWithLists: "(dp0
Vcom.schriftgestaltung.Glyphs.lastChange
p1
V2015-12-22 14:15:53 +0000
p2
s."
EndChar

StartChar: lslash
Encoding: 322 322 279
GlifName: lslash
Width: 575
VWidth: 0
Flags: W
LayerCount: 2
Fore
SplineSet
141 332 m 258
 128 323 121 306 130 294 c 258
 147 271 l 258
 154 262 168 259 180 267 c 258
 447 446 l 258
 461 455 465 471 457 484 c 258
 442 507 l 258
 436 517 421 520 409 512 c 258
 141 332 l 258
EndSplineSet
Refer: 270 108 N 1 0 0 1 0 0 2
PickledDataWithLists: "(dp0
Vcom.schriftgestaltung.Glyphs.lastChange
p1
V2016-06-09 18:35:33 +0000
p2
s."
EndChar

StartChar: ltshade
Encoding: 9617 9617 280
GlifName: ltshade
Width: 575
VWidth: 0
Flags: W
LayerCount: 2
Fore
SplineSet
0 -250 m 257
 28 -250 l 257
 0 -194 l 257
 0 -250 l 257
287 -250 m 257
 315 -250 l 257
 0 380 l 257
 0 324 l 257
 287 -250 l 257
575 -250 m 257
 575 -194 l 257
 28 900 l 257
 0 900 l 257
 575 -250 l 257
575 324 m 257
 575 380 l 257
 315 900 l 257
 287 900 l 257
 575 324 l 257
EndSplineSet
PickledDataWithLists: "(dp0
Vcom.schriftgestaltung.Glyphs.lastChange
p1
V2016-06-10 08:26:49 +0000
p2
s."
EndChar

StartChar: m
Encoding: 109 109 281
GlifName: m
Width: 575
VWidth: 0
Flags: W
AnchorPoint: "top" 341 570 basechar 0
AnchorPoint: "bottom" 259 0 basechar 0
LayerCount: 2
Fore
SplineSet
182 483 m 258
 185 506 173 520 151 520 c 258
 114 520 l 258
 94 520 79 504 76 481 c 258
 5 37 l 258
 2 14 14 0 36 0 c 258
 71 0 l 258
 92 0 107 13 110 34 c 258
 162 363 l 257
 217 404 241 418 252 418 c 256
 255 418 257 406 251 369 c 258
 198 37 l 258
 195 14 207 0 229 0 c 258
 264 0 l 258
 286 0 300 12 303 34 c 258
 355 361 l 257
 409 402 435 418 447 418 c 256
 450 418 452 406 446 369 c 258
 393 37 l 258
 390 14 402 0 424 0 c 258
 459 0 l 258
 481 0 495 12 498 34 c 257
 550 356 l 258
 567 470 550 527 496 527 c 256
 464 527 420 505 355 439 c 257
 355 503 335 527 301 527 c 256
 272 527 231 508 175 450 c 257
 182 483 l 258
EndSplineSet
PickledDataWithLists: "(dp0
Vcom.schriftgestaltung.Glyphs.lastChange
p1
V2016-06-09 18:35:33 +0000
p2
s."
EndChar

StartChar: macron
Encoding: 175 175 282
GlifName: macron
Width: 575
VWidth: 0
Flags: W
AnchorPoint: "top" 328 500 mark 0
LayerCount: 2
Fore
SplineSet
237 649 m 258
 235 632 242 624 258 624 c 258
 496 624 l 258
 512 624 523 632 525 648 c 258
 529 675 l 258
 532 691 524 700 508 700 c 258
 270 700 l 258
 254 700 244 691 241 675 c 258
 237 649 l 258
EndSplineSet
PickledDataWithLists: "(dp0
Vcom.schriftgestaltung.Glyphs.lastChange
p1
V2015-12-22 16:32:42 +0000
p2
s."
EndChar

StartChar: multiply
Encoding: 215 215 284
GlifName: multiply
Width: 575
VWidth: 0
Flags: W
LayerCount: 2
Fore
SplineSet
503 518 m 258
 488 530 469 527 454 511 c 258
 302 346 l 257
 203 509 l 257
 193 527 175 530 155 519 c 257
 126 500 l 258
 106 487 101 469 111 452 c 258
 226 264 l 257
 27 51 l 258
 10 33 11 14 29 1 c 257
 52 -18 l 258
 67 -30 86 -27 101 -11 c 258
 277 180 l 257
 393 -9 l 257
 403 -27 420 -30 441 -19 c 257
 441 -18 l 257
 470 1 l 258
 489 13 494 32 484 49 c 258
 353 261 l 257
 528 450 l 258
 544 467 544 486 527 500 c 257
 503 518 l 258
EndSplineSet
PickledDataWithLists: "(dp0
Vcom.schriftgestaltung.Glyphs.lastChange
p1
V2015-12-22 14:16:31 +0000
p2
s."
EndChar

StartChar: n
Encoding: 110 110 285
GlifName: n
Width: 575
VWidth: 0
Flags: W
AnchorPoint: "top" 329 570 basechar 0
AnchorPoint: "bottom" 247 0 basechar 0
LayerCount: 2
Fore
SplineSet
216 483 m 258
 219 504 206 520 185 520 c 257
 148 520 l 257
 127 520 112 500 110 481 c 257
 39 37 l 257
 37 16 49 0 70 0 c 257
 105 0 l 257
 125 0 141 14 144 34 c 257
 195 354 l 257
 247 408 294 434 332 434 c 257
 386 434 420 416 399 290 c 257
 359 37 l 257
 357 16 369 0 390 0 c 257
 425 0 l 257
 446 0 461 14 464 34 c 257
 504 286 l 257
 536 484 455 530 362 530 c 257
 316 530 263 510 209 447 c 257
 216 483 l 258
EndSplineSet
PickledDataWithLists: "(dp0
Vcom.schriftgestaltung.Glyphs.lastChange
p1
V2016-06-09 18:35:33 +0000
p2
s."
EndChar

StartChar: nine.dnom
Encoding: 65570 -1 289
GlifName: nine.dnom
Width: 250
VWidth: 0
Flags: W
LayerCount: 2
Fore
SplineSet
11 18 m 258
 6 6 13 -6 25 -9 c 257
 41 -12 57 -13 72 -13 c 256
 154 -13 228 38 254 202 c 256
 271 308 236 367 154 367 c 256
 77 367 28 325 16 250 c 256
 6 186 42 143 108 143 c 256
 129 143 153 146 176 152 c 257
 155 67 121 46 82 46 c 256
 70 46 60 47 48 50 c 257
 35 52 21 44 16 32 c 258
 11 18 l 258
188 215 m 257
 161 206 139 202 117 202 c 256
 92 202 78 220 83 250 c 256
 90 294 106 308 144 308 c 256
 181 308 197 284 188 215 c 257
  PathStart: -2
EndSplineSet
PickledDataWithLists: "(dp0
Vcom.schriftgestaltung.Glyphs.Export
p1
I00
sVcom.schriftgestaltung.Glyphs.lastChange
p2
V2015-12-22 13:07:35 +0000
p3
s."
EndChar

StartChar: nine.hex
Encoding: 65571 -1 290
GlifName: nine.hex
Width: 575
VWidth: 0
Flags: W
LayerCount: 2
Fore
SplineSet
214 875 m 258
 214 891 205 900 189 900 c 258
 154 900 l 258
 138 900 129 891 129 875 c 258
 129 829 l 258
 129 813 137 804 154 804 c 258
 189 804 l 258
 205 804 214 812 214 829 c 258
 214 875 l 258
646 875 m 258
 646 891 637 900 621 900 c 258
 586 900 l 258
 570 900 561 891 561 875 c 258
 561 829 l 258
 561 813 569 804 586 804 c 258
 621 804 l 258
 637 804 646 812 646 829 c 258
 646 875 l 258
EndSplineSet
Refer: 288 57 N 1 0 0 1 0 0 2
PickledDataWithLists: "(dp0
Vcom.schriftgestaltung.Glyphs.lastChange
p1
V2016-02-10 13:40:56 +0000
p2
s."
EndChar

StartChar: notequal
Encoding: 8800 8800 292
GlifName: notequal
Width: 575
VWidth: 0
Flags: W
LayerCount: 2
Fore
SplineSet
443 414 m 257
 529 545 l 258
 545 570 535 590 507 590 c 258
 466 590 l 258
 449 590 434 582 425 568 c 258
 324 414 l 257
 100 414 l 258
 79 414 65 401 61 380 c 257
 57 354 l 258
 54 331 66 317 88 317 c 258
 260 317 l 257
 173 184 l 257
 64 184 l 258
 43 184 29 171 25 150 c 257
 21 124 l 258
 17 102 29 87 52 87 c 258
 108 87 l 257
 22 -46 l 258
 7 -70 17 -90 44 -90 c 258
 86 -90 l 258
 103 -90 116 -82 126 -68 c 257
 228 87 l 257
 475 87 l 258
 496 87 510 99 514 120 c 257
 518 148 l 257
 522 170 510 184 487 184 c 258
 292 184 l 257
 379 317 l 257
 511 317 l 258
 533 317 547 329 550 351 c 258
 554 378 l 258
 558 400 546 414 523 414 c 258
 443 414 l 257
EndSplineSet
PickledDataWithLists: "(dp0
Vcom.schriftgestaltung.Glyphs.lastChange
p1
V2015-12-22 14:16:56 +0000
p2
s."
EndChar

StartChar: numbersign
Encoding: 35 35 295
GlifName: numbersign
Width: 575
VWidth: 0
Flags: W
LayerCount: 2
Fore
SplineSet
448 290 m 257
 469 424 l 257
 525 424 l 257
 545 424 562 439 566 459 c 257
 570 486 l 257
 573 506 560 521 540 521 c 257
 484 521 l 257
 510 685 l 257
 514 706 501 720 481 720 c 257
 446 720 l 257
 425 720 408 705 405 685 c 257
 379 521 l 257
 279 521 l 257
 305 685 l 257
 309 706 296 720 276 720 c 257
 241 720 l 257
 221 720 203 705 200 685 c 257
 174 521 l 257
 117 521 l 257
 97 521 80 506 77 485 c 257
 73 459 l 257
 69 439 82 424 102 424 c 257
 159 424 l 257
 138 290 l 257
 81 290 l 257
 61 290 43 275 40 254 c 257
 36 228 l 257
 33 208 45 193 65 193 c 257
 122 193 l 257
 97 35 l 257
 94 15 107 0 127 0 c 257
 162 0 l 257
 182 0 199 15 202 35 c 257
 227 193 l 257
 327 193 l 257
 302 35 l 257
 299 15 311 0 332 0 c 257
 367 0 l 257
 387 0 404 15 407 35 c 257
 432 193 l 257
 488 193 l 257
 508 193 526 208 529 228 c 257
 533 255 l 257
 536 275 524 290 504 290 c 257
 448 290 l 257
264 424 m 257
 364 424 l 257
 343 290 l 257
 243 290 l 257
 264 424 l 257
EndSplineSet
PickledDataWithLists: "(dp0
Vcom.schriftgestaltung.Glyphs.lastChange
p1
V2015-12-23 09:14:39 +0000
p2
s."
EndChar

StartChar: o
Encoding: 111 111 296
GlifName: o
Width: 575
VWidth: 0
Flags: W
AnchorPoint: "bottom" 247 0 basechar 0
AnchorPoint: "ogonek" 476 10 basechar 0
AnchorPoint: "top" 329 570 basechar 0
AnchorPoint: "topright" 596 520 basechar 0
AnchorPoint: "center" 288 260 basechar 0
LayerCount: 2
Fore
SplineSet
69 199 m 256
 69 67 137 -12 250 -12 c 256
 416 -12 506 163 506 325 c 256
 506 456 442 532 332 532 c 256
 182 532 69 386 69 199 c 256
  PathStart: -2
175 210 m 256
 175 308 223 435 317 435 c 256
 371 435 400 392 400 310 c 256
 400 212 352 85 259 85 c 256
 205 85 175 129 175 210 c 256
  PathStart: -2
EndSplineSet
PickledDataWithLists: "(dp0
Vcom.schriftgestaltung.Glyphs.lastChange
p1
V2016-06-09 18:35:33 +0000
p2
s."
EndChar

StartChar: oe
Encoding: 339 339 300
GlifName: oe
Width: 575
VWidth: 0
Flags: W
LayerCount: 2
Fore
SplineSet
466 68 m 258
 465 90 450 100 427 96 c 256
 396 91 367 87 362 87 c 256
 340 87 333 136 345 222 c 257
 481 222 l 258
 501 222 516 234 520 255 c 256
 528 304 531 338 531 373 c 256
 531 475 494 530 424 530 c 256
 387 530 357 512 332 476 c 257
 318 513 293 532 257 532 c 256
 124 532 65 308 65 151 c 256
 65 46 101 -12 169 -12 c 256
 208 -12 240 8 267 51 c 257
 282 10 308 -10 350 -10 c 256
 362 -10 388 -7 436 1 c 256
 458 5 471 21 468 42 c 257
 466 68 l 258
169 143 m 256
 169 264 212 435 242 435 c 256
 250 435 256 415 256 378 c 256
 256 256 213 85 183 85 c 256
 175 85 169 106 169 143 c 256
  PathStart: -2
361 319 m 257
 379 393 398 434 412 434 c 256
 425 434 431 390 424 319 c 257
 361 319 l 257
EndSplineSet
PickledDataWithLists: "(dp0
Vcom.schriftgestaltung.Glyphs.lastChange
p1
V2016-06-09 18:35:34 +0000
p2
s."
EndChar

StartChar: ogonek
Encoding: 731 731 301
GlifName: ogonek
Width: 575
VWidth: 0
Flags: W
LayerCount: 2
Fore
SplineSet
251 28 m 256
 191 -13 183 -53 178 -83 c 256
 171 -131 187 -177 216 -212 c 256
 226 -224 239 -223 251 -211 c 258
 276 -188 l 258
 289 -176 289 -165 281 -152 c 256
 267 -131 260 -105 268 -53 c 256
 271 -37 279 -14 286 6 c 256
 293 21 291 30 283 34 c 256
 273 37 264 36 251 28 c 256
  PathStart: -2
EndSplineSet
PickledDataWithLists: "(dp0
Vcom.schriftgestaltung.Glyphs.lastChange
p1
V2015-12-22 16:32:43 +0000
p2
s."
EndChar

StartChar: omega
Encoding: 969 969 305
GlifName: omega
Width: 575
VWidth: 0
Flags: W
LayerCount: 2
Fore
SplineSet
447 468 m 257
 447 467 l 257
 439 451 442 440 456 424 c 257
 468 412 470 388 463 341 c 258
 437 182 l 258
 427 113 406 87 366 87 c 256
 328 87 317 111 327 179 c 258
 349 313 l 258
 352 336 340 350 318 350 c 258
 283 350 l 258
 262 350 247 337 244 316 c 258
 222 182 l 258
 212 113 191 87 151 87 c 256
 120 87 108 102 108 139 c 256
 108 150 110 163 112 179 c 257
 138 338 l 258
 145 383 156 410 172 423 c 257
 191 437 196 448 193 465 c 257
 186 496 l 258
 181 516 165 526 145 519 c 256
 84 497 49 441 33 342 c 258
 7 182 l 257
 4 157 2 137 2 120 c 256
 2 31 46 -10 139 -10 c 256
 190 -10 227 7 254 43 c 257
 270 7 303 -10 354 -10 c 256
 465 -10 521 46 542 178 c 258
 568 338 l 258
 571 358 573 378 573 401 c 256
 573 463 553 502 511 519 c 257
 510 519 l 257
 491 526 474 518 464 498 c 257
 447 468 l 257
EndSplineSet
PickledDataWithLists: "(dp0
Vcom.schriftgestaltung.Glyphs.lastChange
p1
V2015-12-22 12:55:46 +0000
p2
s."
EndChar

StartChar: one
Encoding: 49 49 307
GlifName: one
Width: 575
VWidth: 0
Flags: W
LayerCount: 2
Fore
SplineSet
346 97 m 257
 439 685 l 257
 442 705 430 720 410 720 c 257
 391 720 l 257
 374 720 358 711 349 694 c 257
 314 636 263 617 167 617 c 257
 147 617 129 602 126 582 c 257
 122 555 l 257
 119 535 131 520 151 520 c 257
 308 520 l 257
 241 97 l 257
 84 97 l 257
 64 97 47 82 44 62 c 257
 39 35 l 257
 36 15 49 0 69 0 c 257
 424 0 l 257
 445 0 461 15 464 35 c 257
 469 62 l 257
 472 82 460 97 439 97 c 257
 346 97 l 257
EndSplineSet
PickledDataWithLists: "(dp0
Vcom.schriftgestaltung.Glyphs.lastChange
p1
V2015-12-22 20:51:40 +0000
p2
s."
EndChar

StartChar: one.dnom
Encoding: 65573 -1 308
GlifName: one.dnom
Width: 250
VWidth: 0
Flags: W
LayerCount: 2
Fore
SplineSet
161 49 m 257
 207 338 l 257
 209 350 200 360 186 360 c 257
 176 360 l 257
 165 360 154 353 149 344 c 257
 132 316 111 309 64 309 c 257
 50 309 38 297 37 286 c 257
 35 273 l 257
 33 262 41 250 55 250 c 257
 127 250 l 257
 95 49 l 257
 23 49 l 257
 9 49 -3 37 -4 26 c 257
 -7 13 l 257
 -8 2 -1 -10 14 -10 c 257
 192 -10 l 257
 206 -10 218 2 219 13 c 257
 222 26 l 257
 223 37 216 49 201 49 c 257
 161 49 l 257
EndSplineSet
PickledDataWithLists: "(dp0
Vcom.schriftgestaltung.Glyphs.Export
p1
I00
sVcom.schriftgestaltung.Glyphs.lastChange
p2
V2015-12-22 13:04:47 +0000
p3
s."
EndChar

StartChar: one.hex
Encoding: 65574 -1 309
GlifName: one.hex
Width: 575
VWidth: 0
Flags: W
LayerCount: 2
Fore
SplineSet
646 875 m 258
 646 891 637 900 621 900 c 258
 586 900 l 258
 570 900 561 891 561 875 c 258
 561 829 l 258
 561 813 569 804 586 804 c 258
 621 804 l 258
 637 804 646 812 646 829 c 258
 646 875 l 258
EndSplineSet
Refer: 307 49 N 1 0 0 1 0 0 2
PickledDataWithLists: "(dp0
Vcom.schriftgestaltung.Glyphs.lastChange
p1
V2016-02-10 13:18:28 +0000
p2
s."
EndChar

StartChar: onedotenleader
Encoding: 8228 8228 311
GlifName: onedotenleader
Width: 575
VWidth: 0
Flags: W
LayerCount: 2
Fore
SplineSet
164 35 m 257
 161 15 174 0 194 0 c 257
 299 0 l 257
 320 0 336 15 339 35 c 257
 353 122 l 257
 356 143 345 157 324 157 c 257
 219 157 l 257
 199 157 181 143 178 122 c 257
 164 35 l 257
EndSplineSet
PickledDataWithLists: "(dp0
Vcom.schriftgestaltung.Glyphs.lastChange
p1
V2015-12-23 09:15:15 +0000
p2
s."
EndChar

StartChar: ordfeminine
Encoding: 170 170 315
GlifName: ordfeminine
Width: 575
VWidth: 0
Flags: W
LayerCount: 2
Fore
SplineSet
358 730 m 256
 229 730 155 645 155 499 c 256
 155 401 191 350 261 350 c 256
 292 350 321 362 348 386 c 257
 349 393 l 257
 349 392 l 257
 346 372 359 357 380 357 c 258
 405 357 l 258
 423 357 436 371 439 392 c 258
 485 684 l 258
 488 705 476 720 456 723 c 256
 415 729 377 730 358 730 c 256
  PathStart: -2
281 434 m 256
 256 434 245 453 245 509 c 256
 245 599 281 646 350 646 c 256
 359 646 372 645 389 645 c 257
 364 482 l 257
 335 452 304 434 281 434 c 256
  PathStart: -2
EndSplineSet
PickledDataWithLists: "(dp0
Vcom.schriftgestaltung.Glyphs.lastChange
p1
V2016-06-09 18:35:34 +0000
p2
s."
EndChar

StartChar: ordmasculine
Encoding: 186 186 316
GlifName: ordmasculine
Width: 575
VWidth: 0
Flags: W
LayerCount: 2
Fore
SplineSet
193 499 m 256
 193 406 242 349 324 349 c 256
 427 349 504 451 504 583 c 256
 504 676 458 731 378 731 c 256
 273 731 193 630 193 499 c 256
  PathStart: -2
284 507 m 256
 284 583 322 647 368 647 c 256
 398 647 414 623 414 573 c 256
 414 497 376 433 330 433 c 256
 300 433 284 458 284 507 c 256
  PathStart: -2
EndSplineSet
PickledDataWithLists: "(dp0
Vcom.schriftgestaltung.Glyphs.lastChange
p1
V2016-06-09 18:35:34 +0000
p2
s."
EndChar

StartChar: oslash
Encoding: 248 248 317
GlifName: oslash
Width: 575
VWidth: 0
Flags: W
LayerCount: 2
Fore
SplineSet
393 579 m 258
 103 -20 l 258
 96 -35 102 -47 117 -53 c 258
 150 -66 l 258
 165 -72 175 -67 182 -52 c 258
 472 547 l 258
 480 562 474 574 458 580 c 258
 426 593 l 258
 411 599 401 594 393 579 c 258
  PathStart: -2
EndSplineSet
Refer: 296 111 N 1 0 0 1 0 0 2
PickledDataWithLists: "(dp0
Vcom.schriftgestaltung.Glyphs.lastChange
p1
V2016-06-09 18:35:33 +0000
p2
s."
EndChar

StartChar: p
Encoding: 112 112 319
GlifName: p
Width: 575
VWidth: 0
Flags: W
AnchorPoint: "top" 329 570 basechar 0
AnchorPoint: "bottom" 247 0 basechar 0
LayerCount: 2
Fore
SplineSet
67 -250 m 258
 88 -250 103 -237 106 -216 c 258
 137 -7 l 257
 170 -9 199 -10 217 -10 c 256
 406 -10 507 105 507 321 c 256
 507 454 455 530 362 530 c 256
 314 530 261 509 213 472 c 257
 215 483 l 258
 219 505 207 520 184 520 c 258
 147 520 l 258
 128 520 115 506 110 482 c 258
 1 -213 l 258
 -3 -235 9 -250 32 -250 c 258
 67 -250 l 258
195 354 m 257
 243 405 293 434 332 434 c 256
 377 434 401 392 401 306 c 256
 401 159 344 86 229 86 c 256
 213 86 186 87 153 89 c 257
 195 354 l 257
EndSplineSet
PickledDataWithLists: "(dp0
Vcom.schriftgestaltung.Glyphs.lastChange
p1
V2016-06-09 18:35:34 +0000
p2
s."
EndChar

StartChar: paragraph
Encoding: 182 182 320
GlifName: paragraph
Width: 575
VWidth: 0
Flags: W
LayerCount: 2
Fore
SplineSet
323 720 m 258
 192 720 111 650 90 521 c 256
 87 504 86 489 86 474 c 256
 86 378 142 325 250 322 c 257
 189 -65 l 258
 185 -86 197 -100 218 -100 c 258
 253 -100 l 258
 275 -100 290 -87 294 -65 c 258
 412 685 l 258
 416 707 405 720 383 720 c 258
 323 720 l 258
533 720 m 258
 512 720 496 706 492 685 c 258
 374 -65 l 258
 370 -86 382 -100 403 -100 c 258
 438 -100 l 258
 460 -100 475 -87 479 -65 c 258
 597 685 l 258
 601 707 590 720 568 720 c 258
 533 720 l 258
EndSplineSet
PickledDataWithLists: "(dp0
Vcom.schriftgestaltung.Glyphs.lastChange
p1
V2016-05-30 08:36:51 +0000
p2
s."
EndChar

StartChar: parenleft
Encoding: 40 40 321
GlifName: parenleft
Width: 575
VWidth: 0
Flags: W
LayerCount: 2
Fore
SplineSet
546 723 m 258
 550 746 538 760 515 760 c 256
 279 760 102 445 102 178 c 256
 102 -37 211 -188 368 -188 c 256
 389 -188 403 -176 407 -155 c 258
 411 -129 l 258
 415 -106 403 -92 380 -92 c 256
 278 -92 208 20 208 184 c 256
 208 394 330 664 503 664 c 256
 525 664 538 676 542 697 c 258
 546 723 l 258
EndSplineSet
PickledDataWithLists: "(dp0
Vcom.schriftgestaltung.Glyphs.lastChange
p1
V2016-05-19 19:23:15 +0000
p2
s."
EndChar

StartChar: parenright
Encoding: 41 41 322
GlifName: parenright
Width: 575
VWidth: 0
Flags: W
LayerCount: 2
Fore
SplineSet
39 -151 m 258
 35 -174 47 -188 70 -188 c 256
 306 -188 483 127 483 394 c 256
 483 609 374 760 217 760 c 256
 196 760 182 748 178 727 c 258
 174 701 l 258
 170 678 182 664 205 664 c 256
 307 664 377 552 377 388 c 256
 377 178 255 -92 82 -92 c 256
 60 -92 47 -104 43 -125 c 258
 39 -151 l 258
EndSplineSet
PickledDataWithLists: "(dp0
Vcom.schriftgestaltung.Glyphs.lastChange
p1
V2016-05-19 19:22:51 +0000
p2
s."
EndChar

StartChar: partialdiff
Encoding: 8706 8706 323
GlifName: partialdiff
Width: 575
VWidth: 0
Flags: W
LayerCount: 2
Fore
SplineSet
378 777 m 258
 348 762 l 257
 328 751 321 732 331 713 c 256
 357 661 379 596 393 529 c 257
 379 530 367 531 358 530 c 257
 185 529 66 386 66 183 c 256
 66 57 129 -11 247 -11 c 256
 410 -11 510 139 510 376 c 256
 510 498 480 632 424 763 c 256
 416 782 398 787 378 777 c 258
  PathStart: -2
173 199 m 256
 173 333 246 433 346 434 c 256
 363 434 384 432 405 429 c 257
 406 416 406 402 406 388 c 256
 406 196 347 80 253 87 c 256
 199 90 173 126 173 199 c 256
  PathStart: -2
EndSplineSet
PickledDataWithLists: "(dp0
Vcom.schriftgestaltung.Glyphs.lastChange
p1
V2015-12-22 14:17:42 +0000
p2
s."
EndChar

StartChar: percent
Encoding: 37 37 324
GlifName: percent
Width: 575
VWidth: 0
Flags: W
LayerCount: 2
Fore
SplineSet
145 620 m 257
 124 620 108 606 104 585 c 257
 90 495 l 257
 87 475 100 460 120 460 c 257
 220 460 l 257
 240 460 257 475 260 495 c 257
 274 585 l 257
 278 606 265 620 245 620 c 257
 145 620 l 257
39 69 m 257
 52 55 72 55 88 69 c 257
 566 482 l 257
 582 496 586 517 573 531 c 257
 552 553 l 257
 539 566 519 565 503 551 c 257
 26 139 l 257
 8 124 6 103 19 90 c 257
 39 69 l 257
372 160 m 257
 351 160 335 146 332 125 c 257
 317 35 l 257
 314 15 327 0 347 0 c 257
 447 0 l 257
 467 0 484 15 487 35 c 257
 502 125 l 257
 505 146 492 160 472 160 c 257
 372 160 l 257
EndSplineSet
PickledDataWithLists: "(dp0
Vcom.schriftgestaltung.Glyphs.lastChange
p1
V2015-12-22 14:18:08 +0000
p2
s."
EndChar

StartChar: period
Encoding: 46 46 325
GlifName: period
Width: 575
VWidth: 0
Flags: W
LayerCount: 2
Fore
SplineSet
221 160 m 257
 201 160 184 146 181 125 c 257
 166 35 l 257
 163 15 176 0 196 0 c 257
 296 0 l 257
 317 0 333 15 336 35 c 257
 351 125 l 257
 354 146 341 160 321 160 c 257
 221 160 l 257
EndSplineSet
PickledDataWithLists: "(dp0
Vcom.schriftgestaltung.Glyphs.lastChange
p1
V2015-12-23 09:15:27 +0000
p2
s."
EndChar

StartChar: periodcentered
Encoding: 183 183 326
GlifName: periodcentered
Width: 575
VWidth: 0
Flags: W
LayerCount: 2
Fore
SplineSet
345 284 m 257
 349 304 337 319 316 319 c 257
 281 319 l 257
 261 319 244 304 240 283 c 257
 233 237 l 257
 230 217 242 202 262 202 c 257
 297 202 l 257
 319 202 335 217 338 237 c 257
 345 284 l 257
EndSplineSet
PickledDataWithLists: "(dp0
Vcom.schriftgestaltung.Glyphs.lastChange
p1
V2015-12-22 20:53:09 +0000
p2
s."
EndChar

StartChar: perthousand
Encoding: 8240 8240 327
GlifName: perthousand
Width: 575
VWidth: 0
Flags: W
LayerCount: 2
Fore
SplineSet
5 69 m 257
 18 55 38 55 54 69 c 257
 532 482 l 257
 548 496 552 517 539 531 c 257
 518 553 l 257
 505 566 485 565 469 551 c 257
 -8 139 l 257
 -26 124 -28 103 -15 90 c 257
 5 69 l 257
146 620 m 257
 125 620 109 606 105 585 c 257
 91 495 l 257
 88 475 101 460 121 460 c 257
 221 460 l 257
 241 460 258 475 261 495 c 257
 275 585 l 257
 279 606 266 620 246 620 c 257
 146 620 l 257
238 160 m 257
 217 160 201 146 198 125 c 257
 183 35 l 257
 180 15 193 0 213 0 c 257
 288 0 l 257
 308 0 325 15 328 35 c 257
 343 125 l 257
 346 146 333 160 313 160 c 257
 238 160 l 257
443 160 m 257
 422 160 406 146 403 125 c 257
 388 35 l 257
 385 15 398 0 418 0 c 257
 493 0 l 257
 513 0 530 15 533 35 c 257
 548 125 l 257
 551 146 538 160 518 160 c 257
 443 160 l 257
EndSplineSet
PickledDataWithLists: "(dp0
Vcom.schriftgestaltung.Glyphs.lastChange
p1
V2015-12-22 14:18:32 +0000
p2
s."
EndChar

StartChar: phi
Encoding: 966 966 328
GlifName: phi
Width: 575
VWidth: 0
Flags: W
LayerCount: 2
Fore
SplineSet
249 342 m 258
 210 97 l 257
 146 99 120 123 120 178 c 256
 120 190 122 204 124 219 c 258
 153 403 l 258
 157 426 145 440 122 440 c 258
 87 440 l 258
 66 440 52 428 48 407 c 258
 19 222 l 258
 15 199 13 177 13 156 c 256
 13 51 69 3 193 0 c 257
 180 -84 l 257
 177 -108 189 -121 211 -121 c 258
 246 -121 l 258
 268 -121 282 -109 285 -87 c 257
 299 0 l 257
 447 2 520 67 544 218 c 258
 563 338 l 258
 566 358 568 378 568 402 c 256
 568 489 526 530 436 530 c 256
 326 530 270 473 249 342 c 258
  PathStart: -2
439 222 m 258
 426 136 390 100 315 97 c 257
 353 341 l 258
 363 407 383 433 424 433 c 256
 451 433 462 419 462 383 c 256
 462 372 460 357 458 341 c 258
 439 222 l 258
EndSplineSet
PickledDataWithLists: "(dp0
Vcom.schriftgestaltung.Glyphs.lastChange
p1
V2015-12-22 12:48:44 +0000
p2
s."
EndChar

StartChar: pi
Encoding: 960 960 329
GlifName: pi
Width: 575
VWidth: 0
Flags: W
LayerCount: 2
Fore
SplineSet
156 424 m 257
 94 37 l 258
 91 14 103 0 125 0 c 258
 160 0 l 258
 182 0 196 12 199 34 c 258
 261 423 l 257
 365 423 l 257
 335 232 l 258
 322 147 313 90 328 30 c 257
 334 10 346 0 365 0 c 258
 400 0 l 258
 424 0 438 15 433 36 c 257
 418 90 427 143 440 228 c 258
 471 423 l 257
 508 423 l 257
 530 424 543 436 547 457 c 257
 551 483 l 258
 554 507 543 520 520 520 c 258
 135 520 l 258
 113 520 99 507 96 486 c 258
 92 461 l 258
 88 438 100 424 123 424 c 258
 156 424 l 257
EndSplineSet
PickledDataWithLists: "(dp0
Vcom.schriftgestaltung.Glyphs.lastChange
p1
V2015-12-22 16:32:58 +0000
p2
s."
EndChar

StartChar: plus
Encoding: 43 43 330
GlifName: plus
Width: 575
VWidth: 0
Flags: W
LayerCount: 2
Fore
SplineSet
348 309 m 257
 376 485 l 258
 379 507 368 520 346 520 c 258
 311 520 l 258
 290 520 274 506 271 485 c 258
 243 309 l 257
 84 309 l 258
 62 309 47 295 43 273 c 258
 39 247 l 258
 36 226 47 212 68 212 c 258
 227 212 l 257
 199 35 l 258
 196 14 208 0 229 0 c 258
 264 0 l 258
 286 0 301 13 304 35 c 258
 332 212 l 257
 491 212 l 258
 513 212 528 225 532 247 c 258
 536 274 l 258
 540 296 529 309 507 309 c 258
 348 309 l 257
EndSplineSet
PickledDataWithLists: "(dp0
Vcom.schriftgestaltung.Glyphs.lastChange
p1
V2015-12-22 14:19:00 +0000
p2
s."
EndChar

StartChar: plusminus
Encoding: 177 177 331
GlifName: plusminus
Width: 575
VWidth: 0
Flags: W
LayerCount: 2
Fore
SplineSet
374 472 m 257
 399 635 l 257
 403 655 391 670 370 670 c 257
 335 670 l 257
 315 670 298 655 294 635 c 257
 269 472 l 257
 110 472 l 257
 90 472 72 457 69 436 c 257
 65 410 l 257
 62 390 74 375 94 375 c 257
 253 375 l 257
 227 212 l 257
 224 192 237 177 257 177 c 257
 292 177 l 257
 313 177 329 191 332 212 c 257
 358 375 l 257
 517 375 l 257
 538 375 555 390 558 410 c 257
 562 437 l 257
 565 457 554 472 533 472 c 257
 374 472 l 257
5 35 m 257
 2 15 15 0 35 0 c 257
 458 0 l 257
 479 0 495 15 498 35 c 257
 503 62 l 257
 506 82 494 97 473 97 c 257
 50 97 l 257
 30 97 13 82 10 62 c 257
 5 35 l 257
EndSplineSet
PickledDataWithLists: "(dp0
Vcom.schriftgestaltung.Glyphs.lastChange
p1
V2015-12-22 14:19:26 +0000
p2
s."
EndChar

StartChar: product
Encoding: 8719 8719 332
GlifName: product
Width: 575
VWidth: 0
Flags: W
LayerCount: 2
Fore
SplineSet
148 719 m 258
 127 719 113 706 109 685 c 258
 105 659 l 258
 101 637 113 622 136 622 c 258
 167 622 l 257
 61 -46 l 258
 58 -69 70 -83 92 -83 c 258
 127 -83 l 258
 149 -83 163 -71 166 -49 c 258
 273 622 l 257
 417 622 l 257
 311 -46 l 258
 308 -69 320 -83 342 -83 c 258
 377 -83 l 258
 399 -83 413 -71 416 -49 c 258
 523 622 l 257
 559 622 l 258
 579 622 594 634 598 655 c 257
 602 683 l 257
 606 704 594 719 571 719 c 258
 148 719 l 258
EndSplineSet
PickledDataWithLists: "(dp0
Vcom.schriftgestaltung.Glyphs.lastChange
p1
V2015-12-22 14:19:57 +0000
p2
s."
EndChar

StartChar: psi
Encoding: 968 968 333
GlifName: psi
Width: 575
VWidth: 0
Flags: W
LayerCount: 2
Fore
SplineSet
514 520 m 258
 492 520 478 507 475 486 c 257
 433 222 l 258
 420 136 384 100 309 97 c 257
 370 483 l 257
 373 507 362 520 339 520 c 258
 304 520 l 258
 282 520 268 507 265 486 c 257
 203 97 l 257
 140 99 114 123 114 178 c 256
 114 190 116 204 118 219 c 258
 160 483 l 257
 163 507 152 520 129 520 c 258
 94 520 l 258
 72 520 58 507 55 486 c 257
 13 222 l 258
 9 199 7 177 7 156 c 256
 7 51 63 3 187 0 c 257
 174 -84 l 257
 171 -108 183 -121 205 -121 c 258
 240 -121 l 258
 262 -121 276 -109 279 -87 c 257
 293 0 l 257
 441 2 514 67 538 218 c 258
 580 483 l 257
 583 507 572 520 549 520 c 258
 514 520 l 258
EndSplineSet
PickledDataWithLists: "(dp0
Vcom.schriftgestaltung.Glyphs.lastChange
p1
V2015-12-22 12:55:00 +0000
p2
s."
EndChar

StartChar: question
Encoding: 63 63 335
GlifName: question
Width: 575
VWidth: 0
Flags: W
LayerCount: 2
Fore
SplineSet
161 710 m 256
 141 710 126 698 122 677 c 257
 122 676 l 257
 119 653 l 257
 115 631 128 616 150 616 c 256
 333 615 444 571 444 503 c 256
 444 449 373 411 268 411 c 258
 207 411 l 258
 186 411 171 398 168 377 c 258
 145 232 l 258
 141 210 153 195 176 195 c 258
 211 195 l 258
 231 195 246 207 250 228 c 258
 264 317 l 257
 256 317 l 257
 427 317 550 396 550 510 c 256
 550 631 399 708 161 710 c 256
  PathStart: -2
157 107 m 258
 137 107 122 95 118 74 c 257
 111 26 l 257
 107 4 119 -10 142 -10 c 258
 177 -10 l 258
 198 -10 212 2 216 23 c 257
 223 71 l 257
 227 92 215 107 192 107 c 258
 157 107 l 258
EndSplineSet
PickledDataWithLists: "(dp0
Vcom.schriftgestaltung.Glyphs.lastChange
p1
V2015-12-23 09:17:54 +0000
p2
s."
EndChar

StartChar: quotedbl
Encoding: 34 34 337
GlifName: quotedbl
Width: 575
VWidth: 0
Flags: W
LayerCount: 2
Fore
SplineSet
225 770 m 258
 204 770 190 758 186 737 c 257
 186 736 l 257
 154 448 l 258
 151 426 164 413 186 413 c 258
 213 413 l 258
 233 413 248 424 253 445 c 257
 310 733 l 258
 315 755 303 770 280 770 c 258
 225 770 l 258
454 770 m 258
 432 770 418 758 415 736 c 258
 383 448 l 258
 380 426 392 413 414 413 c 258
 442 413 l 258
 463 413 477 425 481 445 c 258
 539 733 l 258
 544 755 532 770 509 770 c 258
 454 770 l 258
EndSplineSet
PickledDataWithLists: "(dp0
Vcom.schriftgestaltung.Glyphs.lastChange
p1
V2015-12-23 09:18:16 +0000
p2
s."
EndChar

StartChar: quotereversed
Encoding: 8219 8219 342
GlifName: quotereversed
Width: 575
VWidth: 0
Flags: W
LayerCount: 2
Fore
SplineSet
423 667 m 257
 432 732 l 257
 437 755 425 769 401 769 c 258
 321 769 l 258
 301 769 287 758 282 736 c 257
 282 735 l 257
 269 643 l 257
 264 617 262 592 262 566 c 256
 262 475 299 427 370 427 c 256
 391 427 405 439 410 459 c 257
 414 496 l 257
 414 512 402 523 383 523 c 256
 359 523 354 557 367 634 c 257
 384 634 l 258
 404 634 418 646 423 667 c 257
  PathStart: -2
EndSplineSet
PickledDataWithLists: "(dp0
Vcom.schriftgestaltung.Glyphs.lastChange
p1
V2015-12-22 14:00:15 +0000
p2
s."
EndChar

StartChar: quotesinglbase
Encoding: 8218 8218 344
GlifName: quotesinglbase
Width: 575
VWidth: 0
Flags: W
LayerCount: 2
Fore
SplineSet
228 135 m 258
 206 135 191 122 188 100 c 258
 177 35 l 258
 174 14 186 0 207 0 c 258
 222 0 l 257
 209 -78 193 -111 168 -111 c 256
 147 -111 132 -124 129 -146 c 258
 124 -173 l 258
 121 -194 132 -207 154 -207 c 256
 242 -207 301 -132 323 8 c 258
 338 100 l 258
 341 122 330 135 308 135 c 258
 228 135 l 258
EndSplineSet
PickledDataWithLists: "(dp0
Vcom.schriftgestaltung.Glyphs.lastChange
p1
V2015-12-22 14:00:50 +0000
p2
s."
EndChar

StartChar: quotesingle
Encoding: 39 39 345
GlifName: quotesingle
Width: 575
VWidth: 0
Flags: W
LayerCount: 2
Fore
SplineSet
341 770 m 258
 319 770 304 756 301 734 c 258
 268 447 l 258
 265 425 277 413 298 413 c 258
 326 413 l 258
 347 413 362 425 366 446 c 258
 425 735 l 257
 429 757 418 770 396 770 c 258
 341 770 l 258
EndSplineSet
PickledDataWithLists: "(dp0
Vcom.schriftgestaltung.Glyphs.lastChange
p1
V2015-12-22 13:46:53 +0000
p2
s."
EndChar

StartChar: r
Encoding: 114 114 346
GlifName: r
Width: 575
VWidth: 0
Flags: W
AnchorPoint: "top" 341 570 basechar 0
AnchorPoint: "bottom" 259 0 basechar 0
LayerCount: 2
Fore
SplineSet
241 475 m 258
 243 491 236 500 220 500 c 258
 148 500 l 258
 132 500 122 486 120 470 c 258
 49 25 l 258
 47 9 54 0 70 0 c 258
 140 0 l 258
 156 0 167 9 169 25 c 258
 221 349 l 257
 270 401 312 435 340 435 c 256
 365 435 379 409 379 349 c 256
 379 332 387 323 404 323 c 258
 475 323 l 258
 491 323 501 332 501 348 c 256
 504 464 456 512 393 512 c 256
 344 512 286 484 235 437 c 257
 241 475 l 258
EndSplineSet
PickledDataWithLists: "(dp0
Vcom.schriftgestaltung.Glyphs.lastChange
p1
V2016-06-09 18:35:34 +0000
p2
s."
EndChar

StartChar: radical
Encoding: 8730 8730 348
GlifName: radical
Width: 575
VWidth: 0
Flags: W
LayerCount: 2
Fore
SplineSet
453 721 m 258
 434 721 420 710 414 691 c 258
 237 151 l 257
 181 344 l 258
 175 361 163 370 145 370 c 258
 72 370 l 258
 51 370 37 358 33 337 c 258
 29 309 l 257
 25 287 37 273 60 273 c 258
 105 273 l 257
 179 26 l 258
 185 9 197 0 215 0 c 258
 235 0 l 258
 254 0 269 11 275 30 c 258
 484 624 l 257
 571 624 l 258
 593 624 607 636 610 658 c 258
 614 685 l 257
 618 707 606 721 583 721 c 258
 453 721 l 258
EndSplineSet
PickledDataWithLists: "(dp0
Vcom.schriftgestaltung.Glyphs.lastChange
p1
V2015-12-22 14:20:21 +0000
p2
s."
EndChar

StartChar: registered
Encoding: 174 174 350
GlifName: registered
Width: 575
VWidth: 0
Flags: W
LayerCount: 2
Fore
SplineSet
349 637 m 256
 280 637 208 609 151 561 c 256
 95 512 57 444 46 375 c 256
 35 307 52 238 92 190 c 256
 134 141 197 113 266 113 c 256
 334 113 408 141 463 190 c 256
 520 238 559 307 570 375 c 256
 581 444 563 512 522 561 c 256
 482 609 417 637 349 637 c 256
  PathStart: -2
276 176 m 256
 224 176 176 197 144 234 c 256
 113 271 100 323 108 375 c 256
 116 427 146 479 189 516 c 256
 232 553 287 575 339 575 c 256
 391 575 440 553 471 516 c 256
 502 479 515 427 507 375 c 256
 499 323 469 271 426 234 c 256
 384 197 328 176 276 176 c 256
  PathStart: -2
246 500 m 257
 230 500 219 492 217 475 c 258
 185 275 l 258
 182 259 190 250 206 250 c 258
 218 250 l 258
 235 250 244 259 247 275 c 258
 258 344 l 257
 287 344 l 257
 334 265 l 258
 341 255 349 250 362 250 c 258
 383 250 l 258
 404 250 413 264 403 281 c 258
 363 347 l 257
 375 349 386 353 396 359 c 256
 408 366 418 376 426 386 c 256
 433 397 439 410 441 422 c 256
 443 435 441 447 437 458 c 256
 433 469 426 478 416 485 c 256
 407 492 396 496 384 498 c 256
 372 500 360 500 347 500 c 257
 246 500 l 257
268 407 m 257
 273 438 l 257
 347 438 l 258
 358 438 380 435 378 422 c 256
 377 407 354 407 342 407 c 258
 268 407 l 257
EndSplineSet
PickledDataWithLists: "(dp0
Vcom.schriftgestaltung.Glyphs.lastChange
p1
V2015-12-22 14:24:37 +0000
p2
s."
EndChar

StartChar: rho
Encoding: 961 961 351
GlifName: rho
Width: 575
VWidth: 0
Flags: W
LayerCount: 2
Fore
SplineSet
0 -213 m 258
 -4 -235 8 -250 31 -250 c 258
 66 -250 l 258
 86 -250 101 -238 105 -217 c 258
 138 -5 l 257
 172 -8 200 -9 218 -9 c 256
 409 -9 508 109 508 334 c 256
 508 473 456 532 330 532 c 256
 176 532 106 455 73 252 c 258
 0 -213 l 258
178 248 m 258
 200 388 236 435 318 435 c 256
 379 435 402 404 402 317 c 256
 402 163 346 88 230 88 c 256
 212 88 185 89 154 91 c 257
 178 248 l 258
EndSplineSet
PickledDataWithLists: "(dp0
Vcom.schriftgestaltung.Glyphs.lastChange
p1
V2015-12-22 12:46:09 +0000
p2
s."
EndChar

StartChar: ring
Encoding: 730 730 352
GlifName: ring
Width: 575
VWidth: 0
Flags: W
AnchorPoint: "top" 328 500 mark 0
LayerCount: 2
Fore
SplineSet
369 508 m 256
 436 508 484 545 493 604 c 256
 502 663 466 700 399 700 c 256
 332 700 284 663 275 604 c 256
 266 545 302 508 369 508 c 256
  PathStart: -2
379 569 m 256
 359 569 348 583 351 604 c 256
 355 626 370 639 390 639 c 256
 410 639 420 626 416 604 c 256
 413 583 399 569 379 569 c 256
  PathStart: -2
EndSplineSet
PickledDataWithLists: "(dp0
Vcom.schriftgestaltung.Glyphs.lastChange
p1
V2015-12-22 16:32:43 +0000
p2
s."
EndChar

StartChar: rtblock
Encoding: 9616 9616 353
GlifName: rtblock
Width: 575
VWidth: 0
Flags: W
LayerCount: 2
Fore
SplineSet
287 -250 m 257
 575 -250 l 257
 575 900 l 257
 287 900 l 257
 287 -250 l 257
EndSplineSet
PickledDataWithLists: "(dp0
Vcom.schriftgestaltung.Glyphs.lastChange
p1
V2016-06-10 08:26:49 +0000
p2
s."
EndChar

StartChar: s
Encoding: 115 115 354
GlifName: s
Width: 575
VWidth: 0
Flags: W
AnchorPoint: "top" 341 570 basechar 0
AnchorPoint: "bottom" 259 0 basechar 0
LayerCount: 2
Fore
SplineSet
480 475 m 257
 489 498 480 515 458 519 c 256
 411 528 366 530 340 530 c 256
 210 530 113 459 113 362 c 256
 113 285 176 232 278 222 c 256
 331 217 358 197 358 163 c 256
 358 119 305 87 230 87 c 256
 207 87 163 88 114 97 c 257
 113 97 l 258
 92 100 77 90 70 71 c 258
 60 45 l 258
 51 22 60 5 83 1 c 256
 138 -8 186 -10 218 -10 c 256
 361 -10 465 67 465 175 c 256
 465 256 407 306 302 319 c 256
 250 325 219 347 219 376 c 256
 219 407 264 432 328 434 c 256
 353 435 381 432 425 425 c 256
 444 421 460 430 469 449 c 257
 480 475 l 257
EndSplineSet
PickledDataWithLists: "(dp0
Vcom.schriftgestaltung.Glyphs.lastChange
p1
V2016-06-09 18:35:34 +0000
p2
s."
EndChar

StartChar: section
Encoding: 167 167 359
GlifName: section
Width: 575
VWidth: 0
Flags: W
LayerCount: 2
Fore
SplineSet
489 321 m 256
 501 396 456 439 336 479 c 257
 274 497 244 530 250 568 c 256
 255 601 291 622 357 624 c 256
 376 624 412 622 453 615 c 256
 473 611 491 622 499 640 c 258
 510 666 l 258
 519 687 509 705 490 709 c 256
 443 718 398 720 372 720 c 256
 244 720 160 664 144 564 c 256
 136 511 155 465 200 430 c 257
 146 407 113 370 106 320 c 256
 94 245 138 201 259 162 c 256
 323 142 351 112 344 73 c 256
 339 40 300 18 229 17 c 256
 209 17 157 18 117 26 c 257
 97 29 78 20 70 -1 c 258
 60 -27 l 258
 52 -46 60 -65 80 -69 c 256
 127 -78 187 -80 213 -80 c 256
 347 -80 434 -24 450 76 c 256
 458 130 439 176 394 211 c 257
 448 233 481 271 489 321 c 256
  PathStart: -2
294 382 m 257
 365 361 388 339 381 306 c 256
 378 284 356 265 316 252 c 257
 301 258 l 257
 229 279 207 301 213 335 c 256
 217 358 238 377 274 389 c 257
 281 387 288 385 294 382 c 257
  PathStart: -2
EndSplineSet
PickledDataWithLists: "(dp0
Vcom.schriftgestaltung.Glyphs.lastChange
p1
V2015-12-22 14:24:59 +0000
p2
s."
EndChar

StartChar: semicolon
Encoding: 59 59 360
GlifName: semicolon
Width: 575
VWidth: 0
Flags: W
LayerCount: 2
Fore
SplineSet
279 520 m 257
 258 520 242 506 239 485 c 257
 224 395 l 257
 221 375 234 360 254 360 c 257
 354 360 l 257
 374 360 391 375 394 395 c 257
 409 485 l 257
 412 506 399 520 379 520 c 257
 279 520 l 257
222 160 m 257
 201 160 185 146 182 125 c 257
 167 35 l 257
 164 15 177 0 197 0 c 257
 227 0 l 257
 208 -111 161 -151 52 -151 c 257
 32 -151 16 -166 12 -186 c 257
 8 -213 l 257
 5 -233 18 -247 38 -247 c 257
 221 -247 304 -175 333 8 c 257
 352 125 l 257
 355 146 342 160 322 160 c 257
 222 160 l 257
EndSplineSet
PickledDataWithLists: "(dp0
Vcom.schriftgestaltung.Glyphs.lastChange
p1
V2015-12-23 09:18:29 +0000
p2
s."
EndChar

StartChar: seven
Encoding: 55 55 361
GlifName: seven
Width: 575
VWidth: 0
Flags: W
LayerCount: 2
Fore
SplineSet
183 720 m 257
 163 720 146 706 142 685 c 257
 117 528 l 257
 114 508 127 493 147 493 c 257
 182 493 l 257
 203 493 219 507 222 528 c 257
 238 624 l 257
 478 624 l 257
 471 592 455 560 419 506 c 257
 300 326 l 257
 229 216 184 116 171 34 c 257
 168 14 180 0 201 0 c 257
 235 0 l 257
 256 0 273 14 276 34 c 257
 289 113 325 197 385 285 c 257
 512 470 l 257
 555 534 576 581 585 636 c 257
 592 686 l 257
 596 706 584 720 564 720 c 257
 183 720 l 257
EndSplineSet
PickledDataWithLists: "(dp0
Vcom.schriftgestaltung.Glyphs.lastChange
p1
V2015-12-22 20:52:37 +0000
p2
s."
EndChar

StartChar: seven.dnom
Encoding: 65576 -1 362
GlifName: seven.dnom
Width: 250
VWidth: 0
Flags: W
LayerCount: 2
Fore
SplineSet
72 360 m 257
 59 360 47 350 45 338 c 257
 32 259 l 257
 31 247 39 237 53 237 c 257
 71 237 l 257
 84 237 97 247 98 259 c 257
 105 302 l 257
 211 302 l 257
 207 288 199 273 184 250 c 257
 125 160 l 257
 88 104 66 54 59 12 c 257
 57 0 66 -10 80 -10 c 257
 97 -10 l 257
 111 -10 123 0 125 12 c 257
 131 51 150 93 178 135 c 257
 242 228 l 257
 265 261 276 285 280 313 c 257
 284 338 l 257
 286 350 277 360 263 360 c 257
 72 360 l 257
EndSplineSet
PickledDataWithLists: "(dp0
Vcom.schriftgestaltung.Glyphs.Export
p1
I00
sVcom.schriftgestaltung.Glyphs.lastChange
p2
V2015-12-22 13:07:01 +0000
p3
s."
EndChar

StartChar: seven.hex
Encoding: 65577 -1 363
GlifName: seven.hex
Width: 575
VWidth: 0
Flags: W
LayerCount: 2
Fore
SplineSet
358 875 m 258
 358 891 349 900 333 900 c 258
 298 900 l 258
 282 900 273 891 273 875 c 258
 273 829 l 258
 273 813 281 804 298 804 c 258
 333 804 l 258
 349 804 358 812 358 829 c 258
 358 875 l 258
502 875 m 258
 502 891 493 900 477 900 c 258
 442 900 l 258
 426 900 417 891 417 875 c 258
 417 829 l 258
 417 813 425 804 442 804 c 258
 477 804 l 258
 493 804 502 812 502 829 c 258
 502 875 l 258
646 875 m 258
 646 891 637 900 621 900 c 258
 586 900 l 258
 570 900 561 891 561 875 c 258
 561 829 l 258
 561 813 569 804 586 804 c 258
 621 804 l 258
 637 804 646 812 646 829 c 258
 646 875 l 258
EndSplineSet
Refer: 361 55 N 1 0 0 1 0 0 2
PickledDataWithLists: "(dp0
Vcom.schriftgestaltung.Glyphs.lastChange
p1
V2016-02-10 13:21:27 +0000
p2
s."
EndChar

StartChar: shade
Encoding: 9618 9618 366
GlifName: shade
Width: 575
VWidth: 0
Flags: W
LayerCount: 2
Fore
SplineSet
0 -250 m 257
 28 -250 l 257
 0 -194 l 257
 0 -250 l 257
143 -250 m 257
 171 -250 l 257
 0 92 l 257
 0 36 l 257
 143 -250 l 257
286 -250 m 257
 314 -250 l 257
 0 378 l 257
 0 322 l 257
 286 -250 l 257
429 -250 m 257
 457 -250 l 257
 0 664 l 257
 0 608 l 257
 429 -250 l 257
575 -250 m 257
 575 -194 l 257
 28 900 l 257
 0 900 l 257
 575 -250 l 257
575 36 m 257
 575 92 l 257
 171 900 l 257
 143 900 l 257
 575 36 l 257
575 322 m 257
 575 378 l 257
 314 900 l 257
 286 900 l 257
 575 322 l 257
575 608 m 257
 575 664 l 257
 457 900 l 257
 429 900 l 257
 575 608 l 257
EndSplineSet
PickledDataWithLists: "(dp0
Vcom.schriftgestaltung.Glyphs.lastChange
p1
V2016-06-10 08:26:49 +0000
p2
s."
EndChar

StartChar: sigma
Encoding: 963 963 367
GlifName: sigma
Width: 575
VWidth: 0
Flags: W
LayerCount: 2
Fore
SplineSet
532 423 m 258
 553 423 568 436 571 457 c 257
 571 456 l 257
 576 483 l 257
 576 484 l 257
 579 506 567 520 545 520 c 258
 355 520 l 258
 167 520 50 396 50 197 c 256
 50 64 122 -15 243 -15 c 256
 411 -15 523 111 523 297 c 256
 523 337 515 380 499 423 c 257
 532 423 l 258
390 423 m 257
 408 382 417 339 417 297 c 256
 417 166 354 82 255 82 c 256
 192 82 156 128 156 210 c 256
 156 346 224 423 342 423 c 258
 390 423 l 257
EndSplineSet
PickledDataWithLists: "(dp0
Vcom.schriftgestaltung.Glyphs.lastChange
p1
V2015-12-22 12:47:01 +0000
p2
s."
EndChar

StartChar: six
Encoding: 54 54 368
GlifName: six
Width: 575
VWidth: 0
Flags: W
LayerCount: 2
Fore
SplineSet
511 678 m 257
 512 679 l 257
 518 700 510 718 489 722 c 257
 456 727 427 730 403 730 c 256
 172 730 45 473 45 233 c 256
 45 74 112 -10 242 -10 c 256
 389 -10 504 110 504 261 c 256
 504 375 429 449 313 449 c 256
 277 449 237 442 182 427 c 257
 221 560 294 632 393 632 c 256
 411 632 432 630 456 625 c 256
 476 621 492 631 500 650 c 258
 511 678 l 257
152 247 m 256
 152 270 155 290 159 320 c 257
 222 349 270 351 297 351 c 256
 362 351 397 315 397 250 c 256
 397 161 335 88 257 88 c 256
 188 88 152 142 152 247 c 256
  PathStart: -2
EndSplineSet
PickledDataWithLists: "(dp0
Vcom.schriftgestaltung.Glyphs.lastChange
p1
V2015-12-22 20:52:27 +0000
p2
s."
EndChar

StartChar: six.dnom
Encoding: 65579 -1 369
GlifName: six.dnom
Width: 250
VWidth: 0
Flags: W
LayerCount: 2
Fore
SplineSet
244 334 m 257
 247 345 243 359 228 361 c 257
 213 364 197 365 182 365 c 256
 101 365 26 315 0 150 c 256
 -16 45 18 -15 101 -15 c 256
 177 -15 226 29 238 103 c 256
 248 167 211 210 146 210 c 256
 124 210 100 206 77 200 c 257
 99 286 132 306 173 306 c 256
 184 306 194 305 207 303 c 257
 220 300 234 310 239 319 c 257
 244 334 l 257
65 137 m 257
 93 146 115 151 136 151 c 256
 162 151 175 133 171 103 c 256
 164 58 148 44 110 44 c 256
 73 44 56 68 65 137 c 257
  PathStart: -2
EndSplineSet
PickledDataWithLists: "(dp0
Vcom.schriftgestaltung.Glyphs.Export
p1
I00
sVcom.schriftgestaltung.Glyphs.lastChange
p2
V2015-12-22 13:06:37 +0000
p3
s."
EndChar

StartChar: six.hex
Encoding: 65580 -1 370
GlifName: six.hex
Width: 575
VWidth: 0
Flags: W
LayerCount: 2
Fore
SplineSet
358 875 m 258
 358 891 349 900 333 900 c 258
 298 900 l 258
 282 900 273 891 273 875 c 258
 273 829 l 258
 273 813 281 804 298 804 c 258
 333 804 l 258
 349 804 358 812 358 829 c 258
 358 875 l 258
502 875 m 258
 502 891 493 900 477 900 c 258
 442 900 l 258
 426 900 417 891 417 875 c 258
 417 829 l 258
 417 813 425 804 442 804 c 258
 477 804 l 258
 493 804 502 812 502 829 c 258
 502 875 l 258
EndSplineSet
Refer: 368 54 N 1 0 0 1 0 0 2
PickledDataWithLists: "(dp0
Vcom.schriftgestaltung.Glyphs.lastChange
p1
V2016-02-10 13:21:08 +0000
p2
s."
EndChar

StartChar: sterling
Encoding: 163 163 374
GlifName: sterling
Width: 575
VWidth: 0
Flags: W
LayerCount: 2
Fore
SplineSet
522 518 m 258
 544 518 559 532 559 554 c 256
 559 671 506 730 400 730 c 256
 289 730 219 666 200 550 c 258
 177 409 l 257
 132 409 l 258
 111 409 97 396 93 375 c 258
 89 349 l 258
 85 327 97 312 120 312 c 258
 162 312 l 257
 128 97 l 257
 83 97 l 258
 62 97 47 84 44 63 c 257
 44 64 l 257
 39 37 l 257
 39 36 l 258
 36 14 48 0 70 0 c 258
 425 0 l 258
 447 0 461 12 464 34 c 257
 464 33 l 257
 469 60 l 257
 469 61 l 258
 472 84 460 97 438 97 c 258
 234 97 l 257
 268 312 l 257
 435 312 l 258
 455 312 470 324 474 345 c 257
 478 373 l 257
 482 394 470 409 447 409 c 258
 283 409 l 257
 305 546 l 258
 313 600 345 634 388 634 c 256
 429 634 452 606 452 554 c 256
 452 532 465 518 487 518 c 258
 522 518 l 258
EndSplineSet
PickledDataWithLists: "(dp0
Vcom.schriftgestaltung.Glyphs.lastChange
p1
V2015-12-22 14:04:47 +0000
p2
s."
EndChar

StartChar: summation
Encoding: 8721 8721 375
GlifName: summation
Width: 575
VWidth: 0
Flags: W
LayerCount: 2
Fore
SplineSet
602 684 m 258
 605 704 593 719 573 719 c 258
 150 719 l 258
 130 719 112 704 109 683 c 258
 106 666 l 258
 104 651 105 639 111 629 c 257
 112 629 l 257
 339 359 l 257
 27 90 l 257
 26 90 l 257
 16 80 12 68 9 53 c 258
 7 36 l 258
 3 15 16 0 36 0 c 258
 459 0 l 258
 479 0 496 15 499 35 c 258
 504 62 l 258
 507 82 494 97 474 97 c 258
 171 97 l 257
 448 335 l 258
 465 350 468 370 456 384 c 258
 254 622 l 257
 557 622 l 258
 577 622 595 637 598 657 c 258
 602 684 l 258
EndSplineSet
PickledDataWithLists: "(dp0
Vcom.schriftgestaltung.Glyphs.lastChange
p1
V2015-12-22 12:21:09 +0000
p2
s."
EndChar

StartChar: t
Encoding: 116 116 376
GlifName: t
Width: 575
VWidth: 0
Flags: W
AnchorPoint: "bottom" 259 0 basechar 0
AnchorPoint: "top" 341 520 basechar 0
AnchorPoint: "topright" 621 520 basechar 0
AnchorPoint: "center" 300 260 basechar 0
LayerCount: 2
Fore
SplineSet
466 68 m 258
 465 90 450 100 427 96 c 256
 384 89 345 87 322 87 c 256
 279 87 263 97 263 132 c 256
 263 140 263 150 265 161 c 258
 308 424 l 257
 463 424 l 258
 483 424 498 436 502 457 c 258
 506 483 l 257
 509 507 497 520 475 520 c 258
 323 520 l 257
 342 643 l 258
 346 665 334 680 311 680 c 258
 275 680 l 258
 255 680 240 668 236 647 c 258
 216 520 l 257
 150 520 l 258
 128 520 114 507 111 486 c 257
 107 461 l 258
 103 439 115 424 138 424 c 258
 202 424 l 257
 160 164 l 258
 157 146 156 130 156 115 c 256
 156 28 204 -10 310 -10 c 256
 337 -10 381 -9 437 1 c 256
 458 5 471 21 468 42 c 257
 466 68 l 258
EndSplineSet
PickledDataWithLists: "(dp0
Vcom.schriftgestaltung.Glyphs.lastChange
p1
V2016-06-09 18:35:34 +0000
p2
s."
EndChar

StartChar: tau
Encoding: 964 964 377
GlifName: tau
Width: 575
VWidth: 0
Flags: W
LayerCount: 2
Fore
SplineSet
490 44 m 257
 486 70 l 257
 485 71 l 257
 481 90 467 98 446 94 c 257
 426 89 405 87 382 87 c 256
 329 88 315 105 324 160 c 258
 366 423 l 257
 507 423 l 257
 529 424 543 437 547 459 c 258
 551 485 l 258
 554 507 543 520 521 520 c 258
 136 520 l 258
 114 520 99 507 96 485 c 258
 92 459 l 258
 88 437 99 424 121 424 c 258
 261 424 l 257
 219 160 l 258
 201 44 247 -10 366 -10 c 256
 386 -10 418 -9 458 0 c 256
 482 6 495 24 489 45 c 257
 490 44 l 257
EndSplineSet
PickledDataWithLists: "(dp0
Vcom.schriftgestaltung.Glyphs.lastChange
p1
V2016-05-30 08:33:06 +0000
p2
s."
EndChar

StartChar: tbar
Encoding: 359 359 378
GlifName: tbar
Width: 575
VWidth: 0
Flags: W
LayerCount: 2
Fore
SplineSet
457 82 m 257
 451 102 435 109 414 101 c 256
 388 92 366 88 341 88 c 256
 292 88 269 110 269 164 c 256
 269 175 270 191 275 224 c 257
 429 224 l 258
 450 224 467 238 470 259 c 258
 474 285 l 258
 477 307 467 320 445 320 c 258
 291 320 l 257
 307 424 l 257
 461 424 l 258
 482 424 498 438 502 459 c 258
 506 485 l 258
 509 507 498 520 476 520 c 258
 322 520 l 257
 342 645 l 258
 345 666 334 680 313 680 c 258
 278 680 l 258
 257 680 240 666 237 645 c 258
 217 520 l 257
 151 520 l 258
 129 520 114 507 111 485 c 258
 107 459 l 258
 103 438 115 424 136 424 c 258
 202 424 l 257
 186 320 l 257
 120 320 l 258
 98 320 82 307 79 285 c 258
 75 259 l 258
 72 238 83 224 104 224 c 258
 170 224 l 257
 166 190 164 171 164 155 c 256
 164 49 220 -10 325 -10 c 256
 359 -10 398 -3 437 11 c 257
 459 17 469 35 464 56 c 258
 457 82 l 257
EndSplineSet
PickledDataWithLists: "(dp0
Vcom.schriftgestaltung.Glyphs.lastChange
p1
V2016-06-09 18:35:34 +0000
p2
s."
EndChar

StartChar: therefore
Encoding: 8756 8756 380
GlifName: therefore
Width: 575
VWidth: 0
Flags: W
LayerCount: 2
Fore
SplineSet
34 96 m 258
 31 74 41 61 63 61 c 258
 168 61 l 258
 190 61 206 74 209 96 c 258
 223 183 l 258
 226 205 215 218 193 218 c 258
 88 218 l 258
 67 218 51 204 48 183 c 258
 34 96 l 258
314 96 m 258
 311 74 321 61 343 61 c 258
 448 61 l 258
 470 61 486 74 489 96 c 258
 503 183 l 258
 506 205 495 218 473 218 c 258
 368 218 l 258
 347 218 331 204 328 183 c 258
 314 96 l 258
222 398 m 258
 219 377 230 363 251 363 c 258
 356 363 l 258
 378 363 393 376 397 398 c 258
 411 485 l 258
 414 507 403 520 381 520 c 258
 276 520 l 258
 254 520 239 507 236 485 c 258
 222 398 l 258
EndSplineSet
PickledDataWithLists: "(dp0
Vcom.schriftgestaltung.Glyphs.lastChange
p1
V2015-12-22 14:20:54 +0000
p2
s."
EndChar

StartChar: theta
Encoding: 952 952 381
GlifName: theta
Width: 575
VWidth: 0
Flags: W
LayerCount: 2
Fore
SplineSet
89 362 m 256
 81 311 77 264 77 222 c 256
 77 70 134 -10 245 -10 c 256
 385 -10 476 116 514 358 c 256
 522 410 526 458 526 500 c 256
 526 652 470 730 359 730 c 256
 219 730 128 604 89 362 c 256
  PathStart: -2
203 409 m 257
 233 558 283 634 347 634 c 256
 396 634 421 588 421 495 c 256
 421 468 419 440 415 409 c 257
 203 409 l 257
400 311 m 257
 371 164 321 87 257 87 c 256
 208 87 182 133 182 227 c 256
 182 252 184 280 188 311 c 257
 400 311 l 257
EndSplineSet
PickledDataWithLists: "(dp0
Vcom.schriftgestaltung.Glyphs.lastChange
p1
V2015-12-22 16:32:52 +0000
p2
s."
EndChar

StartChar: thorn
Encoding: 254 254 382
GlifName: thorn
Width: 575
VWidth: 0
Flags: W
AnchorPoint: "top" 340 500 basechar 0
AnchorPoint: "bottom" 260 0 basechar 0
LayerCount: 2
Fore
SplineSet
247 684 m 258
 251 707 239 720 215 720 c 258
 180 720 l 258
 161 720 146 707 142 686 c 257
 8 -164 l 258
 4 -186 16 -200 40 -200 c 258
 75 -200 l 258
 95 -200 109 -187 113 -166 c 258
 138 -5 l 257
 172 -7 200 -8 218 -8 c 256
 407 -8 508 109 508 329 c 256
 508 472 447 532 300 532 c 256
 281 532 254 531 223 528 c 257
 247 684 l 258
208 433 m 257
 243 435 271 435 288 435 c 256
 374 435 402 406 402 315 c 256
 402 163 345 88 230 88 c 256
 212 88 185 89 154 91 c 257
 208 433 l 257
EndSplineSet
PickledDataWithLists: "(dp0
Vcom.schriftgestaltung.Glyphs.lastChange
p1
V2016-06-09 18:35:34 +0000
p2
s."
EndChar

StartChar: three
Encoding: 51 51 383
GlifName: three
Width: 575
VWidth: 0
Flags: W
LayerCount: 2
Fore
SplineSet
174 646 m 258
 177 625 193 616 215 621 c 256
 247 628 278 632 309 632 c 256
 394 632 430 607 430 549 c 256
 430 473 367 421 274 421 c 258
 223 421 l 258
 202 421 187 408 184 387 c 258
 180 360 l 257
 176 339 188 324 211 324 c 258
 262 324 l 258
 339 324 386 282 386 214 c 256
 386 134 324 88 214 88 c 256
 181 88 149 92 119 99 c 256
 100 104 83 96 74 77 c 258
 62 49 l 258
 53 28 60 10 80 4 c 256
 118 -5 159 -10 202 -10 c 256
 373 -10 491 80 491 212 c 256
 491 282 460 339 405 374 c 257
 493 423 537 485 537 563 c 256
 537 669 457 730 321 730 c 256
 280 730 239 725 201 716 c 256
 180 711 168 695 171 674 c 258
 174 646 l 258
EndSplineSet
PickledDataWithLists: "(dp0
Vcom.schriftgestaltung.Glyphs.lastChange
p1
V2015-12-22 20:51:58 +0000
p2
s."
EndChar

StartChar: three.dnom
Encoding: 65582 -1 384
GlifName: three.dnom
Width: 250
VWidth: 0
Flags: W
LayerCount: 2
Fore
SplineSet
60 316 m 258
 62 304 76 298 88 301 c 257
 87 301 l 257
 103 304 118 306 133 306 c 256
 173 306 192 294 187 263 c 256
 182 228 155 206 118 206 c 258
 93 206 l 258
 79 206 66 195 64 183 c 258
 62 170 l 258
 60 158 70 147 84 147 c 258
 109 147 l 258
 147 147 170 126 165 92 c 256
 159 56 133 44 89 44 c 256
 72 44 58 46 43 50 c 256
 31 53 16 45 11 35 c 258
 5 21 l 257
 1 10 3 -4 17 -8 c 256
 36 -13 58 -15 80 -15 c 256
 144 -15 219 13 232 92 c 256
 238 129 225 158 196 175 c 257
 230 193 248 222 254 263 c 256
 266 338 204 365 142 365 c 256
 121 365 99 363 80 358 c 256
 64 354 58 340 59 330 c 257
 60 316 l 258
EndSplineSet
PickledDataWithLists: "(dp0
Vcom.schriftgestaltung.Glyphs.Export
p1
I00
sVcom.schriftgestaltung.Glyphs.lastChange
p2
V2015-12-22 13:05:35 +0000
p3
s."
EndChar

StartChar: three.hex
Encoding: 65583 -1 385
GlifName: three.hex
Width: 575
VWidth: 0
Flags: W
LayerCount: 2
Fore
SplineSet
502 875 m 258
 502 891 494 900 477 900 c 258
 442 900 l 258
 426 900 417 891 417 875 c 258
 417 829 l 258
 417 813 426 804 442 804 c 258
 477 804 l 258
 494 804 502 812 502 829 c 258
 502 875 l 258
646 875 m 258
 646 891 637 900 621 900 c 258
 586 900 l 258
 570 900 561 891 561 875 c 258
 561 829 l 258
 561 813 569 804 586 804 c 258
 621 804 l 258
 637 804 646 812 646 829 c 258
 646 875 l 258
EndSplineSet
Refer: 383 51 N 1 0 0 1 0 0 2
PickledDataWithLists: "(dp0
Vcom.schriftgestaltung.Glyphs.lastChange
p1
V2016-02-10 13:19:26 +0000
p2
s."
EndChar

StartChar: tilde
Encoding: 732 732 389
GlifName: tilde
Width: 575
VWidth: 0
Flags: W
AnchorPoint: "top" 328 500 mark 0
LayerCount: 2
Fore
SplineSet
204 585 m 258
 215 577 228 579 240 591 c 256
 258 607 275 616 291 616 c 256
 309 616 332 608 353 593 c 256
 386 570 417 557 440 557 c 256
 478 557 521 581 563 626 c 256
 576 639 576 651 563 661 c 258
 552 670 l 258
 540 678 527 676 516 664 c 257
 498 647 478 638 459 638 c 256
 442 638 423 646 402 661 c 256
 370 685 339 698 315 698 c 256
 276 698 233 673 192 629 c 256
 180 615 180 603 192 594 c 258
 204 585 l 258
EndSplineSet
PickledDataWithLists: "(dp0
Vcom.schriftgestaltung.Glyphs.lastChange
p1
V2015-12-22 16:32:44 +0000
p2
s."
EndChar

StartChar: trademark
Encoding: 8482 8482 390
GlifName: trademark
Width: 575
VWidth: 0
Flags: W
LayerCount: 2
Fore
SplineSet
452 545 m 257
 448 539 447 538 444 538 c 256
 441 538 440 539 438 545 c 257
 406 693 l 257
 404 703 398 712 388 718 c 257
 380 721 374 722 361 722 c 256
 346 722 332 710 330 696 c 258
 280 381 l 258
 278 367 288 355 302 355 c 258
 323 355 l 258
 338 355 351 366 353 377 c 256
 360 426 369 490 377 544 c 257
 384 518 l 258
 390 494 410 478 435 478 c 256
 458 478 481 494 495 518 c 258
 513 549 l 257
 503 486 491 418 485 377 c 256
 483 365 493 355 507 355 c 258
 528 355 l 258
 543 355 555 367 557 381 c 257
 607 696 l 258
 609 710 601 722 585 722 c 256
 573 722 565 721 559 718 c 256
 546 713 536 704 531 694 c 257
 452 545 l 257
121 719 m 258
 106 719 94 707 92 694 c 258
 89 677 l 258
 87 663 95 651 110 651 c 258
 155 651 l 257
 112 381 l 258
 110 367 118 355 134 355 c 258
 155 355 l 258
 171 355 183 367 185 381 c 258
 228 651 l 257
 273 651 l 258
 287 651 301 663 303 677 c 258
 306 694 l 258
 308 709 298 719 284 719 c 258
 121 719 l 258
EndSplineSet
PickledDataWithLists: "(dp0
Vcom.schriftgestaltung.Glyphs.lastChange
p1
V2015-12-22 14:25:18 +0000
p2
s."
EndChar

StartChar: two
Encoding: 50 50 391
GlifName: two
Width: 575
VWidth: 0
Flags: W
LayerCount: 2
Fore
SplineSet
156 97 m 257
 177 154 242 199 316 250 c 257
 431 330 551 415 551 556 c 256
 551 680 452 730 339 730 c 257
 287 730 230 719 178 700 c 257
 159 693 147 674 152 655 c 257
 157 630 l 257
 161 611 177 602 198 608 c 257
 246 624 284 632 324 632 c 257
 399 632 444 606 444 541 c 256
 444 452 355 391 264 327 c 257
 185 274 64 198 42 58 c 257
 38 34 l 257
 35 14 48 -1 68 -1 c 257
 448 -1 l 257
 468 -1 485 14 488 34 c 257
 493 62 l 257
 496 82 483 97 463 97 c 257
 156 97 l 257
EndSplineSet
PickledDataWithLists: "(dp0
Vcom.schriftgestaltung.Glyphs.lastChange
p1
V2015-12-22 20:51:50 +0000
p2
s."
EndChar

StartChar: two.dnom
Encoding: 65585 -1 392
GlifName: two.dnom
Width: 250
VWidth: 0
Flags: W
LayerCount: 2
Fore
SplineSet
68 49 m 257
 80 73 108 93 142 116 c 256
 193 152 251 192 261 257 c 256
 273 333 216 365 151 365 c 256
 124 365 94 360 68 350 c 257
 55 345 46 332 49 321 c 257
 52 308 l 258
 55 297 68 291 81 295 c 257
 105 302 122 306 142 306 c 256
 180 306 200 292 194 257 c 256
 188 219 155 195 109 163 c 256
 69 136 6 97 -6 24 c 258
 -8 12 l 258
 -10 0 0 -11 14 -11 c 258
 204 -11 l 258
 218 -11 230 1 231 12 c 258
 234 26 l 258
 235 37 228 49 213 49 c 258
 68 49 l 257
EndSplineSet
PickledDataWithLists: "(dp0
Vcom.schriftgestaltung.Glyphs.Export
p1
I00
sVcom.schriftgestaltung.Glyphs.lastChange
p2
V2015-12-22 13:05:14 +0000
p3
s."
EndChar

StartChar: two.hex
Encoding: 65586 -1 393
GlifName: two.hex
Width: 575
VWidth: 0
Flags: W
LayerCount: 2
Fore
SplineSet
502 875 m 258
 502 891 494 900 477 900 c 258
 442 900 l 258
 426 900 417 891 417 875 c 258
 417 829 l 258
 417 813 426 804 442 804 c 258
 477 804 l 258
 494 804 502 812 502 829 c 258
 502 875 l 258
EndSplineSet
Refer: 391 50 N 1 0 0 1 0 0 2
PickledDataWithLists: "(dp0
Vcom.schriftgestaltung.Glyphs.lastChange
p1
V2016-05-30 08:38:37 +0000
p2
s."
EndChar

StartChar: u
Encoding: 117 117 396
GlifName: u
Width: 575
VWidth: 0
Flags: W
AnchorPoint: "ogonek" 476 10 basechar 0
AnchorPoint: "top" 329 570 basechar 0
AnchorPoint: "topright" 596 520 basechar 0
AnchorPoint: "bottom" 247 0 basechar 0
LayerCount: 2
Fore
SplineSet
358 37 m 258
 355 14 367 0 389 0 c 258
 426 0 l 258
 446 0 461 16 464 39 c 258
 535 483 l 258
 538 506 526 520 504 520 c 258
 469 520 l 258
 448 520 433 507 430 486 c 258
 379 166 l 257
 330 114 281 86 242 86 c 256
 175 86 157 122 175 230 c 258
 215 483 l 258
 218 506 206 520 184 520 c 258
 149 520 l 258
 127 520 113 508 110 486 c 258
 70 234 l 258
 43 69 89 -10 212 -10 c 256
 260 -10 313 11 360 48 c 257
 358 37 l 258
EndSplineSet
PickledDataWithLists: "(dp0
Vcom.schriftgestaltung.Glyphs.lastChange
p1
V2016-06-09 18:35:34 +0000
p2
s."
EndChar

StartChar: underscore
Encoding: 95 95 404
GlifName: underscore
Width: 575
VWidth: 0
Flags: W
LayerCount: 2
Fore
SplineSet
-10 -62 m 257
 -13 -82 -1 -97 19 -97 c 257
 442 -97 l 257
 463 -97 480 -82 483 -62 c 257
 487 -35 l 257
 490 -15 478 0 458 0 c 257
 35 0 l 257
 15 0 -3 -15 -6 -35 c 257
 -10 -62 l 257
EndSplineSet
PickledDataWithLists: "(dp0
Vcom.schriftgestaltung.Glyphs.lastChange
p1
V2015-12-23 09:18:36 +0000
p2
s."
EndChar

StartChar: uni00B5
Encoding: 181 181 406
GlifName: uni00B_5
Width: 575
VWidth: 0
Flags: W
LayerCount: 2
Fore
SplineSet
470 520 m 258
 449 520 434 507 431 486 c 258
 368 90 l 257
 326 88 291 87 269 87 c 256
 181 87 157 115 171 201 c 258
 216 483 l 258
 219 507 207 520 185 520 c 258
 150 520 l 258
 128 520 114 507 111 486 c 257
 2 -201 l 258
 -2 -223 10 -238 33 -238 c 258
 68 -238 l 258
 88 -238 103 -226 107 -205 c 258
 141 15 l 257
 168 -2 206 -10 257 -10 c 256
 290 -10 354 -9 430 3 c 256
 450 6 462 18 465 39 c 258
 536 483 l 257
 539 507 528 520 505 520 c 258
 470 520 l 258
EndSplineSet
PickledDataWithLists: "(dp0
Vcom.schriftgestaltung.Glyphs.lastChange
p1
V2015-12-22 16:32:55 +0000
p2
s."
EndChar

StartChar: uni0237
Encoding: 567 567 409
GlifName: uni0237
Width: 575
VWidth: 0
Flags: W
LayerCount: 2
Fore
SplineSet
244 522 m 256
 223 518 211 504 211 483 c 257
 212 455 l 257
 211 433 226 421 250 425 c 256
 283 431 310 435 333 435 c 256
 387 435 407 415 407 361 c 256
 407 347 405 330 402 312 c 258
 373 132 l 258
 353 1 295 -62 194 -62 c 256
 155 -62 122 -55 81 -40 c 257
 62 -32 45 -39 34 -58 c 258
 20 -82 l 257
 9 -103 14 -121 33 -129 c 257
 78 -150 129 -160 182 -160 c 256
 343 -160 450 -55 479 128 c 258
 508 308 l 258
 512 333 514 354 514 375 c 256
 514 481 460 532 348 532 c 256
 320 532 288 529 244 522 c 256
  PathStart: -2
EndSplineSet
PickledDataWithLists: "(dp0
Vcom.schriftgestaltung.Glyphs.lastChange
p1
V2016-06-09 18:35:33 +0000
p2
s."
EndChar

StartChar: uni0394
Encoding: 916 916 410
GlifName: uni0394
Width: 575
VWidth: 0
Flags: W
LayerCount: 2
Fore
SplineSet
449 634 m 258
 441 694 407 732 362 732 c 256
 317 732 272 694 244 634 c 258
 -28 41 l 257
 -37 18 -27 0 -2 0 c 258
 496 0 l 258
 520 0 536 18 533 41 c 257
 449 634 l 258
344 612 m 257
 420 95 l 257
 103 95 l 257
 344 612 l 257
EndSplineSet
PickledDataWithLists: "(dp0
Vcom.schriftgestaltung.Glyphs.lastChange
p1
V2015-12-22 12:15:12 +0000
p2
s."
EndChar

StartChar: uni03A9
Encoding: 937 937 411
GlifName: uni03A_9
Width: 575
VWidth: 0
Flags: W
LayerCount: 2
Fore
SplineSet
373 96 m 257
 377 124 l 257
 451 165 497 243 515 353 c 258
 533 467 l 258
 537 492 539 516 539 538 c 256
 539 662 477 730 362 730 c 256
 226 730 135 635 109 467 c 258
 91 353 l 258
 73 243 95 165 155 124 c 257
 151 96 l 257
 62 96 l 258
 41 96 25 82 21 61 c 258
 17 35 l 258
 14 13 25 0 47 0 c 258
 196 0 l 258
 218 0 233 13 236 35 c 258
 256 157 l 258
 259 175 251 187 235 195 c 256
 196 214 182 267 196 353 c 258
 214 467 l 258
 232 579 276 634 347 634 c 256
 404 634 433 599 433 527 c 256
 433 509 432 489 428 467 c 258
 410 353 l 258
 396 267 366 214 321 195 c 256
 301 187 291 175 288 157 c 258
 268 35 l 258
 265 13 276 0 298 0 c 258
 447 0 l 258
 469 0 484 13 487 35 c 258
 491 61 l 258
 495 82 483 96 462 96 c 258
 373 96 l 257
EndSplineSet
PickledDataWithLists: "(dp0
Vcom.schriftgestaltung.Glyphs.lastChange
p1
V2015-12-22 12:25:35 +0000
p2
s."
EndChar

StartChar: uni03BC
Encoding: 956 956 412
GlifName: uni03B_C_
Width: 575
VWidth: 0
Flags: W
LayerCount: 2
Fore
SplineSet
471 520 m 258
 449 520 434 507 431 485 c 258
 368 89 l 257
 327 87 291 86 269 86 c 256
 182 86 157 115 171 202 c 258
 216 485 l 258
 219 506 207 520 186 520 c 258
 151 520 l 258
 129 520 114 507 111 485 c 258
 0 -215 l 258
 -4 -236 8 -250 29 -250 c 258
 64 -250 l 258
 86 -250 101 -237 105 -215 c 258
 142 20 l 257
 166 -1 200 -10 254 -10 c 256
 287 -10 352 -9 427 2 c 257
 449 6 462 20 465 39 c 258
 536 485 l 258
 539 506 527 520 506 520 c 258
 471 520 l 258
EndSplineSet
PickledDataWithLists: "(dp0
Vcom.schriftgestaltung.Glyphs.lastChange
p1
V2015-12-22 12:42:40 +0000
p2
s."
EndChar

StartChar: uni0411
Encoding: 1041 1041 421
GlifName: uni0411
Width: 600
VWidth: 0
Flags: W
LayerCount: 2
Fore
SplineSet
209 440 m 257
 237 623 l 257
 487 623 l 258
 509 623 525 637 528 658 c 258
 532 685 l 258
 536 706 524 720 503 720 c 258
 183 720 l 258
 161 720 146 706 142 685 c 258
 39 35 l 258
 36 14 47 0 69 0 c 258
 204 0 l 258
 379 0 524 96 524 246 c 256
 524 370 430 440 274 440 c 258
 209 440 l 257
154 96 m 257
 193 344 l 257
 258 344 l 258
 360 344 418 306 418 234 c 256
 418 147 331 96 219 96 c 258
 154 96 l 257
EndSplineSet
PickledDataWithLists: "(dp0
Vcom.schriftgestaltung.Glyphs.lastChange
p1
V2016-06-09 18:35:34 +0000
p2
s."
EndChar

StartChar: uni0413
Encoding: 1043 1043 423
GlifName: uni0413
Width: 600
VWidth: 0
Flags: W
AnchorPoint: "top" 373 720 basechar 0
AnchorPoint: "bottomright" 539 0 basechar 0
LayerCount: 2
Fore
SplineSet
627 658 m 258
 631 685 l 258
 635 706 623 720 602 720 c 258
 183 720 l 258
 161 720 146 706 142 685 c 258
 39 35 l 258
 36 14 47 0 69 0 c 258
 104 0 l 258
 126 0 141 13 144 35 c 258
 237 623 l 257
 586 623 l 258
 608 623 624 637 627 658 c 258
  PathStart: -2
EndSplineSet
PickledDataWithLists: "(dp0
Vcom.schriftgestaltung.Glyphs.lastChange
p1
V2016-06-09 18:35:34 +0000
p2
s."
EndChar

StartChar: uni0414
Encoding: 1044 1044 424
GlifName: uni0414
Width: 575
VWidth: 0
Flags: W
LayerCount: 2
Fore
SplineSet
536 685 m 258
 540 706 528 720 507 720 c 258
 237 720 l 258
 216 720 200 706 196 685 c 258
 150 390 l 258
 134 292 107 121 45 3 c 257
 34 3 l 258
 13 3 -3 -11 -6 -32 c 258
 -30 -185 l 258
 -34 -206 -22 -220 -1 -220 c 258
 34 -220 l 258
 55 -220 71 -206 75 -185 c 258
 89 -95 l 257
 374 -95 l 257
 360 -185 l 258
 356 -206 368 -220 389 -220 c 258
 424 -220 l 258
 445 -220 461 -206 465 -185 c 258
 489 -32 l 258
 492 -11 480 3 459 3 c 258
 428 3 l 257
 536 685 l 258
291 622 m 257
 421 622 l 257
 323 3 l 257
 136 3 l 257
 195 86 226 211 255 390 c 258
 291 622 l 257
EndSplineSet
PickledDataWithLists: "(dp0
Vcom.schriftgestaltung.Glyphs.lastChange
p1
V2016-06-09 18:35:34 +0000
p2
s."
EndChar

StartChar: uni0416
Encoding: 1046 1046 426
GlifName: uni0416
Width: 575
VWidth: 0
Flags: W
AnchorPoint: "top" 361 720 basechar 0
AnchorPoint: "bottomright" 514 0 basechar 0
LayerCount: 2
Fore
SplineSet
616 677 m 258
 630 701 621 720 595 720 c 258
 564 720 l 258
 546 720 532 712 522 696 c 258
 368 433 l 257
 368 433 367 432 367 431 c 257
 407 685 l 258
 411 707 400 720 378 720 c 258
 343 720 l 258
 322 720 306 706 302 685 c 258
 262 431 l 257
 262 432 261 433 261 433 c 257
 191 696 l 258
 187 712 175 720 157 720 c 258
 126 720 l 258
 100 720 85 701 91 677 c 258
 163 396 l 258
 165 385 172 375 183 367 c 257
 170 359 159 349 154 339 c 258
 -6 44 l 258
 -20 19 -11 0 15 0 c 258
 46 0 l 258
 64 0 79 9 88 24 c 258
 240 301 l 257
 241 302 242 302 242 303 c 257
 199 35 l 258
 196 14 208 0 229 0 c 258
 264 0 l 258
 286 0 301 13 304 35 c 257
 347 303 l 257
 347 302 348 302 347 301 c 258
 413 24 l 258
 416 9 429 0 447 0 c 258
 478 0 l 258
 504 0 519 19 513 44 c 258
 447 339 l 258
 444 349 437 359 426 367 c 257
 439 375 450 385 456 396 c 258
 616 677 l 258
EndSplineSet
PickledDataWithLists: "(dp0
Vcom.schriftgestaltung.Glyphs.lastChange
p1
V2016-05-23 13:11:20 +0000
p2
s."
EndChar

StartChar: uni0418
Encoding: 1048 1048 428
GlifName: uni0418
Width: 575
VWidth: 0
Flags: W
AnchorPoint: "top" 361 720 basechar 0
AnchorPoint: "bottomright" 514 0 basechar 0
LayerCount: 2
Fore
SplineSet
127 689 m 258
 23 35 l 258
 20 13 32 0 55 0 c 258
 71 0 l 258
 102 0 127 13 145 41 c 258
 451 515 l 257
 376 36 l 258
 372 15 385 0 405 0 c 258
 439 0 l 258
 459 0 477 16 481 36 c 258
 584 690 l 258
 588 712 576 725 553 725 c 258
 537 725 l 258
 505 725 480 711 462 683 c 258
 155 201 l 257
 232 689 l 258
 235 710 223 725 203 725 c 258
 169 725 l 258
 149 725 130 709 127 689 c 258
  PathStart: -2
EndSplineSet
PickledDataWithLists: "(dp0
Vcom.schriftgestaltung.Glyphs.lastChange
p1
V2016-05-23 13:11:39 +0000
p2
s."
EndChar

StartChar: uni041B
Encoding: 1051 1051 431
GlifName: uni041B_
Width: 575
VWidth: 0
Flags: W
LayerCount: 2
Fore
SplineSet
587 685 m 258
 591 706 579 720 558 720 c 258
 219 720 l 258
 198 720 182 706 178 685 c 258
 151 510 l 258
 111 261 65 118 10 92 c 256
 -10 82 -19 72 -21 56 c 258
 -27 17 l 258
 -31 -7 -18 -21 5 -16 c 256
 130 11 201 164 256 510 c 258
 273 622 l 257
 472 622 l 257
 379 35 l 258
 376 14 388 0 409 0 c 258
 444 0 l 258
 465 0 481 14 484 35 c 258
 587 685 l 258
EndSplineSet
PickledDataWithLists: "(dp0
Vcom.schriftgestaltung.Glyphs.lastChange
p1
V2016-05-23 11:38:55 +0000
p2
s."
EndChar

StartChar: uni041F
Encoding: 1055 1055 435
GlifName: uni041F_
Width: 575
VWidth: 0
Flags: W
AnchorPoint: "bottomright" 514 0 basechar 0
LayerCount: 2
Fore
SplineSet
175 720 m 258
 153 720 137 706 134 685 c 258
 31 35 l 258
 28 14 39 0 61 0 c 258
 96 0 l 258
 117 0 133 14 136 35 c 258
 229 622 l 257
 459 622 l 257
 366 35 l 258
 363 14 374 0 396 0 c 258
 431 0 l 258
 452 0 468 14 471 35 c 258
 574 685 l 258
 577 706 566 720 545 720 c 258
 175 720 l 258
EndSplineSet
PickledDataWithLists: "(dp0
Vcom.schriftgestaltung.Glyphs.lastChange
p1
V2016-05-23 13:13:45 +0000
p2
s."
EndChar

StartChar: uni0423
Encoding: 1059 1059 439
GlifName: uni0423
Width: 575
VWidth: 0
Flags: W
AnchorPoint: "top" 361 720 basechar 0
LayerCount: 2
Fore
SplineSet
524 720 m 258
 505 720 490 710 482 692 c 258
 315 283 l 257
 292 283 l 258
 275 283 267 290 266 305 c 257
 230 691 l 257
 229 710 217 720 198 720 c 258
 162 720 l 258
 137 720 122 704 124 680 c 258
 160 288 l 258
 166 225 208 190 277 190 c 257
 276 190 l 257
 239 108 219 98 113 98 c 258
 61 98 l 258
 40 98 24 84 21 63 c 258
 16 35 l 258
 13 14 24 0 46 0 c 258
 98 0 l 258
 229 0 312 16 382 188 c 258
 584 680 l 258
 593 703 583 720 560 720 c 258
 524 720 l 258
EndSplineSet
PickledDataWithLists: "(dp0
Vcom.schriftgestaltung.Glyphs.lastChange
p1
V2016-05-23 13:14:21 +0000
p2
s."
EndChar

StartChar: uni0424
Encoding: 1060 1060 440
GlifName: uni0424
Width: 575
VWidth: 0
Flags: W
LayerCount: 2
Fore
SplineSet
552 430 m 256
 552 543 500 612 398 629 c 257
 409 695 l 257
 412 717 402 730 379 730 c 258
 344 730 l 258
 323 730 307 716 304 695 c 258
 293 628 l 257
 167 606 85 511 61 360 c 256
 57 336 55 313 55 292 c 256
 55 181 108 110 208 92 c 257
 198 25 l 258
 194 4 206 -10 227 -10 c 258
 262 -10 l 258
 284 -10 299 3 303 25 c 257
 313 91 l 257
 440 111 521 205 546 360 c 256
 550 385 552 408 552 430 c 256
  PathStart: -2
382 527 m 257
 425 511 445 474 445 413 c 256
 445 397 444 379 441 360 c 256
 426 268 389 213 329 193 c 257
 382 527 l 257
277 527 m 257
 224 193 l 257
 182 209 161 246 161 306 c 256
 161 322 163 340 166 360 c 256
 180 452 218 507 277 527 c 257
  PathStart: -2
EndSplineSet
PickledDataWithLists: "(dp0
Vcom.schriftgestaltung.Glyphs.lastChange
p1
V2016-05-30 10:12:00 +0000
p2
s."
EndChar

StartChar: uni0426
Encoding: 1062 1062 442
GlifName: uni0426
Width: 575
VWidth: 0
Flags: W
LayerCount: 2
Fore
SplineSet
535 685 m 258
 539 706 527 720 506 720 c 258
 471 720 l 258
 449 720 434 706 430 685 c 258
 337 98 l 257
 147 98 l 257
 240 685 l 258
 244 706 232 720 211 720 c 258
 176 720 l 258
 154 720 139 706 135 685 c 258
 32 35 l 258
 29 14 40 0 62 0 c 258
 404 0 l 257
 394 -65 l 258
 390 -86 402 -100 423 -100 c 258
 458 -100 l 258
 479 -100 495 -86 499 -65 c 258
 519 63 l 258
 522 84 511 98 489 98 c 258
 442 98 l 257
 535 685 l 258
EndSplineSet
PickledDataWithLists: "(dp0
Vcom.schriftgestaltung.Glyphs.lastChange
p1
V2016-05-23 12:25:17 +0000
p2
s."
EndChar

StartChar: uni0427
Encoding: 1063 1063 443
GlifName: uni0427
Width: 575
VWidth: 0
Flags: W
LayerCount: 2
Fore
SplineSet
501 720 m 258
 480 720 466 708 462 687 c 258
 407 339 l 257
 366 337 329 336 307 336 c 256
 235 336 206 356 206 411 c 256
 206 423 208 436 210 450 c 258
 247 683 l 258
 251 705 239 720 216 720 c 258
 181 720 l 258
 160 720 146 708 142 687 c 258
 105 454 l 258
 102 432 100 412 100 394 c 256
 100 287 161 240 295 240 c 256
 316 240 351 241 392 244 c 257
 359 37 l 258
 355 15 367 0 390 0 c 258
 425 0 l 258
 445 0 460 12 464 33 c 258
 567 683 l 258
 571 705 559 720 536 720 c 258
 501 720 l 258
EndSplineSet
PickledDataWithLists: "(dp0
Vcom.schriftgestaltung.Glyphs.lastChange
p1
V2016-05-30 10:12:16 +0000
p2
s."
EndChar

StartChar: uni0428
Encoding: 1064 1064 444
GlifName: uni0428
Width: 575
VWidth: 0
Flags: W
LayerCount: 2
Fore
SplineSet
535 720 m 258
 514 720 498 706 494 685 c 258
 401 98 l 257
 314 98 l 257
 407 685 l 258
 411 706 399 720 378 720 c 258
 343 720 l 258
 322 720 306 706 302 685 c 258
 209 98 l 257
 122 98 l 257
 215 685 l 258
 219 706 207 720 186 720 c 258
 151 720 l 258
 130 720 114 706 110 685 c 258
 7 35 l 258
 4 14 16 0 37 0 c 258
 456 0 l 258
 477 0 493 14 496 35 c 258
 599 685 l 258
 603 706 591 720 570 720 c 258
 535 720 l 258
EndSplineSet
PickledDataWithLists: "(dp0
Vcom.schriftgestaltung.Glyphs.lastChange
p1
V2016-05-30 09:51:07 +0000
p2
s."
EndChar

StartChar: uni0429
Encoding: 1065 1065 445
GlifName: uni0429
Width: 575
VWidth: 0
Flags: W
LayerCount: 2
Fore
SplineSet
599 685 m 258
 603 706 591 720 570 720 c 258
 535 720 l 258
 514 720 498 706 494 685 c 258
 401 98 l 257
 314 98 l 257
 407 685 l 258
 411 706 399 720 378 720 c 258
 343 720 l 258
 322 720 306 706 302 685 c 258
 209 98 l 257
 122 98 l 257
 215 685 l 258
 219 706 207 720 186 720 c 258
 151 720 l 258
 130 720 114 706 110 685 c 258
 7 35 l 258
 4 14 16 0 37 0 c 258
 404 0 l 257
 386 -115 l 258
 382 -136 394 -150 415 -150 c 258
 450 -150 l 258
 471 -150 487 -136 491 -115 c 258
 519 63 l 258
 521 78 516 89 506 94 c 257
 599 685 l 258
EndSplineSet
PickledDataWithLists: "(dp0
Vcom.schriftgestaltung.Glyphs.lastChange
p1
V2016-05-29 16:25:37 +0000
p2
s."
EndChar

StartChar: uni042A
Encoding: 1066 1066 446
GlifName: uni042A_
Width: 575
VWidth: 0
Flags: W
LayerCount: 2
Fore
SplineSet
194 96 m 257
 233 344 l 257
 278 344 l 258
 377 344 428 309 428 242 c 256
 428 235 427 228 426 220 c 256
 413 140 348 96 239 96 c 258
 194 96 l 257
249 440 m 257
 288 684 l 258
 291 704 278 720 258 720 c 258
 118 720 l 258
 96 720 81 706 77 685 c 258
 73 658 l 258
 70 637 81 623 102 623 c 258
 172 623 l 257
 79 35 l 258
 76 14 87 0 109 0 c 258
 224 0 l 258
 393 0 509 83 531 220 c 256
 533 233 534 246 534 259 c 256
 534 372 447 440 294 440 c 258
 249 440 l 257
EndSplineSet
PickledDataWithLists: "(dp0
Vcom.schriftgestaltung.Glyphs.lastChange
p1
V2016-05-30 10:12:28 +0000
p2
s."
EndChar

StartChar: uni042B
Encoding: 1067 1067 447
GlifName: uni042B_
Width: 575
VWidth: 0
Flags: W
AnchorPoint: "top" 361 720 basechar 0
LayerCount: 2
Fore
SplineSet
217 685 m 257
 221 706 209 720 188 720 c 258
 153 720 l 258
 132 720 116 706 112 685 c 258
 9 35 l 258
 6 14 18 0 39 0 c 258
 99 0 l 258
 250 0 354 83 376 220 c 256
 378 235 380 250 380 263 c 256
 380 372 307 436 179 440 c 257
 217 685 l 257
597 685 m 258
 601 706 589 720 568 720 c 258
 533 720 l 258
 512 720 496 706 492 685 c 258
 389 35 l 258
 386 14 398 0 419 0 c 258
 454 0 l 258
 473 0 491 16 494 35 c 258
 597 685 l 258
163 344 m 257
 235 341 273 310 273 249 c 256
 273 240 273 230 271 220 c 256
 258 142 209 99 124 96 c 257
 163 344 l 257
EndSplineSet
PickledDataWithLists: "(dp0
Vcom.schriftgestaltung.Glyphs.lastChange
p1
V2016-05-30 10:12:35 +0000
p2
s."
EndChar

StartChar: uni042C
Encoding: 1068 1068 448
GlifName: uni042C_
Width: 575
VWidth: 0
Flags: W
LayerCount: 2
Fore
SplineSet
209 440 m 257
 247 685 l 258
 251 706 239 720 218 720 c 258
 183 720 l 258
 161 720 146 706 142 685 c 258
 39 35 l 258
 36 14 47 0 69 0 c 258
 204 0 l 258
 376 0 499 86 521 220 c 256
 523 232 524 244 524 256 c 256
 524 370 430 440 274 440 c 258
 209 440 l 257
154 96 m 257
 193 344 l 257
 258 344 l 258
 360 344 418 306 418 240 c 256
 418 233 417 227 416 220 c 256
 403 142 330 96 219 96 c 258
 154 96 l 257
EndSplineSet
PickledDataWithLists: "(dp0
Vcom.schriftgestaltung.Glyphs.lastChange
p1
V2016-05-30 10:12:22 +0000
p2
s."
EndChar

StartChar: uni042D
Encoding: 1069 1069 449
GlifName: uni042D_
Width: 575
VWidth: 0
Flags: W
AnchorPoint: "top" 361 720 basechar 0
LayerCount: 2
Fore
SplineSet
163 699 m 256
 142 691 132 674 137 653 c 258
 143 629 l 258
 148 609 164 602 185 610 c 256
 224 624 262 632 296 632 c 256
 380 632 423 580 423 478 c 256
 423 457 421 434 417 408 c 257
 179 408 l 258
 160 408 142 392 139 373 c 258
 135 348 l 258
 132 329 146 313 165 313 c 258
 402 313 l 257
 377 165 311 88 210 88 c 256
 176 88 141 96 106 110 c 256
 87 118 69 111 58 91 c 258
 44 67 l 258
 33 46 37 29 55 21 c 256
 103 0 148 -10 192 -10 c 256
 359 -10 477 112 510 320 c 258
 522 400 l 258
 527 431 529 460 529 488 c 256
 529 642 451 730 309 730 c 256
 265 730 217 720 163 699 c 256
  PathStart: -2
EndSplineSet
PickledDataWithLists: "(dp0
Vcom.schriftgestaltung.Glyphs.lastChange
p1
V2016-05-30 10:12:43 +0000
p2
s."
EndChar

StartChar: uni042E
Encoding: 1070 1070 450
GlifName: uni042E_
Width: 575
VWidth: 0
Flags: W
AnchorPoint: "top" 361 720 basechar 0
LayerCount: 2
Fore
SplineSet
249 507 m 258
 237 430 l 257
 172 430 l 257
 212 685 l 258
 216 707 205 720 183 720 c 258
 148 720 l 258
 126 720 111 706 107 685 c 258
 4 35 l 258
 1 14 12 0 34 0 c 258
 69 0 l 258
 91 0 106 13 109 35 c 258
 157 333 l 257
 222 333 l 257
 203 213 l 258
 198 183 196 156 196 132 c 256
 196 33 238 -10 330 -10 c 256
 444 -10 503 57 528 213 c 258
 574 507 l 258
 579 537 581 564 581 588 c 256
 581 687 539 730 447 730 c 256
 333 730 274 663 249 507 c 258
  PathStart: -2
345 86 m 256
 316 86 302 104 302 149 c 256
 302 167 304 188 308 213 c 258
 354 507 l 258
 369 599 391 634 432 634 c 256
 461 634 475 616 475 571 c 256
 475 553 473 532 469 507 c 258
 423 213 l 258
 408 121 385 86 345 86 c 256
  PathStart: -2
EndSplineSet
PickledDataWithLists: "(dp0
Vcom.schriftgestaltung.Glyphs.lastChange
p1
V2016-05-30 10:12:53 +0000
p2
s."
EndChar

StartChar: uni042F
Encoding: 1071 1071 451
GlifName: uni042F_
Width: 575
VWidth: 0
Flags: W
AnchorPoint: "top" 361 720 basechar 0
AnchorPoint: "bottom" 296 0 basechar 0
LayerCount: 2
Fore
SplineSet
1 0 m 258
 43 0 l 258
 60 0 74 8 85 24 c 258
 274 312 l 257
 403 312 l 257
 359 35 l 258
 356 14 368 0 389 0 c 258
 424 0 l 258
 445 0 461 14 464 35 c 258
 567 685 l 258
 571 707 560 720 538 720 c 258
 380 720 l 258
 233 720 125 640 106 516 c 256
 104 504 103 493 103 482 c 256
 103 422 130 370 177 341 c 257
 -19 44 l 258
 -35 20 -26 0 1 0 c 258
  PathStart: -2
210 500 m 256
 210 505 210 510 211 516 c 256
 221 580 283 624 365 624 c 258
 453 624 l 257
 419 409 l 257
 331 409 l 258
 256 409 210 446 210 500 c 256
  PathStart: -2
EndSplineSet
PickledDataWithLists: "(dp0
Vcom.schriftgestaltung.Glyphs.lastChange
p1
V2016-05-30 10:12:58 +0000
p2
s."
EndChar

StartChar: uni0431
Encoding: 1073 1073 453
GlifName: uni0431
Width: 575
VWidth: 0
Flags: W
LayerCount: 2
Fore
SplineSet
180 416 m 257
 218 548 285 612 387 612 c 256
 421 612 447 611 516 630 c 256
 539 637 554 658 549 679 c 258
 543 705 l 258
 538 721 523 730 504 726 c 256
 446 714 421 710 401 710 c 256
 220 710 92 568 53 326 c 256
 47 286 44 249 44 216 c 256
 44 62 110 -20 239 -20 c 256
 374 -20 477 74 500 220 c 256
 502 233 503 246 503 259 c 256
 503 366 428 439 313 439 c 256
 277 439 236 432 180 416 c 257
  PathStart: -2
157 311 m 257
 219 339 267 341 294 341 c 256
 359 341 396 305 396 245 c 256
 396 237 395 229 394 220 c 256
 380 133 327 78 257 78 c 256
 171 78 135 162 157 311 c 257
  PathStart: -2
EndSplineSet
PickledDataWithLists: "(dp0
Vcom.schriftgestaltung.Glyphs.lastChange
p1
V2016-05-30 10:13:07 +0000
p2
s."
EndChar

StartChar: uni0432
Encoding: 1074 1074 454
GlifName: uni0432
Width: 575
VWidth: 0
Flags: W
LayerCount: 2
Fore
SplineSet
56 35 m 258
 53 14 64 0 86 0 c 258
 223 0 l 258
 393 0 490 53 507 156 c 256
 508 165 509 173 509 181 c 256
 509 235 480 273 429 285 c 257
 464 301 494 327 502 381 c 256
 503 389 504 397 504 405 c 256
 504 483 433 520 285 520 c 258
 105 520 l 258
 83 520 68 507 65 485 c 258
 61 459 l 258
 57 437 68 424 90 424 c 258
 118 424 l 257
 56 35 l 258
223 424 m 257
 270 424 l 258
 375 424 407 415 407 381 c 256
 407 378 407 375 406 371 c 256
 398 322 354 323 254 323 c 258
 207 323 l 257
 223 424 l 257
171 97 m 257
 192 226 l 257
 259 226 l 258
 372 226 412 213 412 173 c 256
 412 169 412 165 411 161 c 256
 404 112 363 97 238 97 c 258
 171 97 l 257
EndSplineSet
PickledDataWithLists: "(dp0
Vcom.schriftgestaltung.Glyphs.lastChange
p1
V2016-05-30 10:13:14 +0000
p2
s."
EndChar

StartChar: uni0433
Encoding: 1075 1075 455
GlifName: uni0433
Width: 575
VWidth: 0
Flags: W
AnchorPoint: "top" 329 520 basechar 0
AnchorPoint: "bottomright" 514 0 basechar 0
LayerCount: 2
Fore
SplineSet
536 458 m 258
 541 485 l 258
 545 506 533 520 511 520 c 258
 151 520 l 258
 130 520 114 506 111 485 c 258
 39 35 l 258
 36 14 47 0 69 0 c 258
 104 0 l 258
 126 0 141 13 144 35 c 258
 206 423 l 257
 496 423 l 258
 517 423 532 437 536 458 c 258
  PathStart: -2
EndSplineSet
PickledDataWithLists: "(dp0
Vcom.schriftgestaltung.Glyphs.lastChange
p1
V2016-05-29 16:25:09 +0000
p2
s."
EndChar

StartChar: uni0434
Encoding: 1076 1076 456
GlifName: uni0434
Width: 575
VWidth: 0
Flags: W
LayerCount: 2
Fore
SplineSet
49 -125 m 258
 70 -125 86 -111 90 -90 c 258
 104 0 l 257
 389 0 l 257
 375 -90 l 258
 371 -111 383 -125 404 -125 c 258
 439 -125 l 258
 460 -125 476 -111 480 -90 c 258
 504 63 l 258
 507 84 496 98 474 98 c 258
 443 98 l 257
 505 485 l 258
 508 506 497 520 475 520 c 258
 205 520 l 258
 184 520 168 506 165 485 c 256
 149 387 122 216 60 98 c 257
 49 98 l 258
 28 98 12 84 9 63 c 258
 -15 -90 l 258
 -19 -111 -7 -125 14 -125 c 258
 49 -125 l 258
259 422 m 257
 390 422 l 257
 338 98 l 257
 151 98 l 257
 203 171 233 276 259 422 c 257
  PathStart: -2
EndSplineSet
PickledDataWithLists: "(dp0
Vcom.schriftgestaltung.Glyphs.lastChange
p1
V2016-05-30 08:31:25 +0000
p2
s."
EndChar

StartChar: uni0436
Encoding: 1078 1078 458
GlifName: uni0436
Width: 575
VWidth: 0
Flags: W
AnchorPoint: "top" 329 520 basechar 0
AnchorPoint: "bottomright" 514 0 basechar 0
LayerCount: 2
Fore
SplineSet
440 296 m 258
 547 463 l 258
 564 490 551 520 520 520 c 258
 496 520 l 258
 485 520 471 513 464 503 c 258
 353 333 l 257
 353 333 351 332 351 331 c 257
 376 485 l 258
 379 504 365 520 346 520 c 258
 311 520 l 258
 292 520 274 504 270 484 c 258
 246 331 l 257
 246 332 246 333 246 333 c 257
 187 503 l 258
 184 513 172 520 161 520 c 258
 137 520 l 258
 106 520 83 490 92 463 c 258
 147 296 l 258
 150 285 157 275 167 267 c 257
 155 260 144 250 138 239 c 258
 27 56 l 258
 10 29 24 0 54 0 c 258
 79 0 l 258
 92 0 103 7 111 19 c 258
 225 201 l 258
 225 202 226 202 226 203 c 257
 199 35 l 258
 196 16 210 0 229 0 c 258
 264 0 l 258
 283 0 301 16 304 35 c 257
 331 203 l 257
 331 202 332 202 332 201 c 258
 388 19 l 258
 392 7 401 0 414 0 c 258
 439 0 l 258
 469 0 491 29 484 56 c 258
 431 239 l 258
 427 250 420 260 410 267 c 257
 422 275 433 285 440 296 c 258
  PathStart: -2
EndSplineSet
PickledDataWithLists: "(dp0
Vcom.schriftgestaltung.Glyphs.lastChange
p1
V2016-05-23 16:22:06 +0000
p2
s."
EndChar

StartChar: uni0437
Encoding: 1079 1079 459
GlifName: uni0437
Width: 575
VWidth: 0
Flags: W
AnchorPoint: "top" 329 520 basechar 0
AnchorPoint: "bottom" 247 0 basechar 0
LayerCount: 2
Fore
SplineSet
143 444 m 258
 145 424 159 416 182 421 c 256
 213 428 244 432 275 432 c 256
 364 432 403 416 403 384 c 256
 403 382 403 380 403 378 c 256
 397 341 348 321 260 321 c 258
 209 321 l 258
 187 321 172 307 168 286 c 258
 164 259 l 258
 160 238 172 224 193 224 c 258
 244 224 l 258
 330 224 378 202 378 165 c 256
 378 163 378 161 378 159 c 256
 371 116 308 88 216 88 c 256
 182 88 150 92 121 99 c 256
 100 104 83 96 74 76 c 258
 62 48 l 258
 53 26 59 9 79 4 c 256
 116 -5 158 -10 200 -10 c 256
 355 -10 467 50 482 144 c 256
 483 151 484 157 484 164 c 256
 484 214 453 256 404 275 c 257
 466 299 502 338 511 391 c 256
 512 398 513 405 513 411 c 256
 513 489 436 530 291 530 c 256
 250 530 209 525 170 516 c 256
 149 511 137 494 139 472 c 258
 143 444 l 258
EndSplineSet
PickledDataWithLists: "(dp0
Vcom.schriftgestaltung.Glyphs.lastChange
p1
V2016-05-30 10:13:27 +0000
p2
s."
EndChar

StartChar: uni0438
Encoding: 1080 1080 460
GlifName: uni0438
Width: 575
VWidth: 0
Flags: W
AnchorPoint: "top" 329 520 basechar 0
AnchorPoint: "bottomright" 514 0 basechar 0
LayerCount: 2
Fore
SplineSet
94 484 m 258
 23 35 l 258
 20 13 32 0 55 0 c 258
 71 0 l 258
 98 0 116 10 144 40 c 258
 423 338 l 257
 376 36 l 258
 372 15 385 0 405 0 c 258
 439 0 l 258
 459 0 477 16 481 36 c 258
 552 485 l 258
 555 507 543 520 520 520 c 258
 504 520 l 258
 474 520 456 511 432 485 c 258
 151 179 l 257
 199 484 l 258
 203 505 190 520 170 520 c 258
 136 520 l 258
 116 520 98 504 94 484 c 258
  PathStart: -2
EndSplineSet
PickledDataWithLists: "(dp0
Vcom.schriftgestaltung.Glyphs.lastChange
p1
V2016-05-30 07:47:32 +0000
p2
s."
EndChar

StartChar: uni0439
Encoding: 1081 1081 461
GlifName: uni0439
Width: 575
VWidth: 0
Flags: W
LayerCount: 2
Fore
SplineSet
94 484 m 258
 23 35 l 258
 20 13 32 0 55 0 c 258
 71 0 l 258
 98 0 116 10 144 40 c 258
 423 338 l 257
 376 36 l 258
 372 15 385 0 405 0 c 258
 439 0 l 258
 459 0 477 16 481 36 c 258
 552 485 l 258
 555 507 543 520 520 520 c 258
 504 520 l 258
 474 520 456 511 432 485 c 258
 151 179 l 257
 199 484 l 258
 203 505 190 520 170 520 c 258
 136 520 l 258
 116 520 98 504 94 484 c 258
  PathStart: -2
EndSplineSet
Refer: 166 728 N 1 0 0 1 0 50 2
PickledDataWithLists: "(dp0
Vcom.schriftgestaltung.Glyphs.lastChange
p1
V2016-05-30 07:48:42 +0000
p2
s."
EndChar

StartChar: uni043A
Encoding: 1082 1082 462
GlifName: uni043A_
Width: 575
VWidth: 0
Flags: W
AnchorPoint: "top" 329 520 basechar 0
AnchorPoint: "bottomright" 514 0 basechar 0
LayerCount: 2
Fore
SplineSet
305 250 m 258
 300 256 295 263 282 270 c 257
 297 277 305 284 312 290 c 258
 523 472 l 258
 549 494 542 520 510 520 c 258
 452 520 l 258
 437 520 424 515 412 504 c 258
 203 324 l 258
 198 320 193 316 188 312 c 257
 216 485 l 258
 219 506 208 520 186 520 c 258
 151 520 l 258
 130 520 114 506 111 485 c 258
 39 35 l 258
 36 14 47 0 69 0 c 258
 104 0 l 258
 125 0 141 14 144 35 c 257
 175 229 l 257
 178 225 182 221 186 217 c 258
 354 16 l 258
 364 5 374 0 390 0 c 258
 448 0 l 258
 480 0 494 26 476 48 c 258
 305 250 l 258
EndSplineSet
PickledDataWithLists: "(dp0
Vcom.schriftgestaltung.Glyphs.lastChange
p1
V2016-05-30 07:49:26 +0000
p2
s."
EndChar

StartChar: uni043B
Encoding: 1083 1083 463
GlifName: uni043B_
Width: 575
VWidth: 0
Flags: W
LayerCount: 2
Fore
SplineSet
536 485 m 258
 539 506 528 520 506 520 c 258
 207 520 l 258
 186 520 170 506 167 485 c 258
 158 430 l 258
 131 257 80 116 31 92 c 256
 10 82 1 72 -1 56 c 258
 -7 17 l 258
 -11 -7 3 -21 26 -16 c 256
 145 13 219 155 263 430 c 257
 262 422 l 257
 421 422 l 257
 359 35 l 258
 356 14 367 0 389 0 c 258
 424 0 l 258
 445 0 461 14 464 35 c 258
 536 485 l 258
EndSplineSet
PickledDataWithLists: "(dp0
Vcom.schriftgestaltung.Glyphs.lastChange
p1
V2016-05-30 07:50:00 +0000
p2
s."
EndChar

StartChar: uni043C
Encoding: 1084 1084 464
GlifName: uni043C_
Width: 575
VWidth: 0
Flags: W
LayerCount: 2
Fore
SplineSet
540 525 m 258
 524 525 l 258
 492 525 468 511 449 483 c 258
 283 231 l 257
 197 483 l 258
 188 511 168 525 136 525 c 258
 120 525 l 258
 98 525 82 513 78 491 c 258
 -14 36 l 258
 -19 16 -5 0 16 0 c 258
 50 0 l 258
 70 0 86 14 90 35 c 258
 150 312 l 257
 214 124 l 258
 220 108 231 100 249 100 c 258
 277 100 l 258
 295 100 308 108 318 124 c 258
 442 312 l 257
 414 35 l 258
 412 14 424 0 444 0 c 258
 478 0 l 258
 498 0 516 16 520 36 c 257
 571 490 l 257
 575 512 563 525 540 525 c 258
  PathStart: -2
EndSplineSet
PickledDataWithLists: "(dp0
Vcom.schriftgestaltung.Glyphs.lastChange
p1
V2016-05-30 07:50:28 +0000
p2
s."
EndChar

StartChar: uni043D
Encoding: 1085 1085 465
GlifName: uni043D_
Width: 575
VWidth: 0
Flags: W
AnchorPoint: "bottomright" 514 0 basechar 0
LayerCount: 2
Fore
SplineSet
488 520 m 258
 466 520 451 507 448 485 c 258
 423 330 l 257
 174 330 l 257
 199 485 l 258
 202 507 192 520 169 520 c 258
 134 520 l 258
 113 520 97 506 94 485 c 258
 22 35 l 258
 19 14 30 0 52 0 c 258
 87 0 l 258
 109 0 124 13 127 35 c 258
 159 233 l 257
 408 233 l 257
 376 35 l 258
 373 14 384 0 406 0 c 258
 441 0 l 258
 463 0 478 13 481 35 c 258
 553 485 l 258
 556 507 545 520 523 520 c 258
 488 520 l 258
EndSplineSet
PickledDataWithLists: "(dp0
Vcom.schriftgestaltung.Glyphs.lastChange
p1
V2016-05-30 07:51:04 +0000
p2
s."
EndChar

StartChar: uni043F
Encoding: 1087 1087 467
GlifName: uni043F_
Width: 575
VWidth: 0
Flags: W
AnchorPoint: "bottomright" 514 0 basechar 0
LayerCount: 2
Fore
SplineSet
144 520 m 258
 123 520 107 506 104 485 c 258
 32 35 l 258
 29 14 40 0 62 0 c 258
 97 0 l 258
 118 0 134 14 137 35 c 258
 199 422 l 257
 429 422 l 257
 367 35 l 258
 364 14 375 0 397 0 c 258
 432 0 l 258
 453 0 469 14 472 35 c 258
 544 485 l 258
 547 506 536 520 514 520 c 258
 144 520 l 258
EndSplineSet
PickledDataWithLists: "(dp0
Vcom.schriftgestaltung.Glyphs.lastChange
p1
V2016-05-30 07:52:44 +0000
p2
s."
EndChar

StartChar: uni0442
Encoding: 1090 1090 470
GlifName: uni0442
Width: 575
VWidth: 0
Flags: W
LayerCount: 2
Fore
SplineSet
600 485 m 258
 603 507 592 520 570 520 c 258
 88 520 l 258
 66 520 51 507 48 485 c 258
 44 459 l 258
 40 437 51 424 72 424 c 258
 261 424 l 257
 199 35 l 258
 196 14 207 0 229 0 c 258
 264 0 l 258
 286 0 301 13 304 35 c 258
 366 424 l 257
 555 424 l 258
 576 424 592 438 596 459 c 258
 600 485 l 258
EndSplineSet
PickledDataWithLists: "(dp0
Vcom.schriftgestaltung.Glyphs.lastChange
p1
V2016-05-30 07:54:07 +0000
p2
s."
EndChar

StartChar: uni0444
Encoding: 1092 1092 472
GlifName: uni0444
Width: 575
VWidth: 0
Flags: W
LayerCount: 2
Fore
SplineSet
536 331 m 256
 536 444 483 512 383 529 c 257
 401 645 l 257
 404 667 394 680 372 680 c 258
 337 680 l 258
 316 680 299 666 296 645 c 258
 277 528 l 257
 151 506 69 411 45 260 c 256
 41 236 39 213 39 192 c 256
 39 81 92 10 193 -8 c 257
 174 -125 l 258
 171 -146 182 -160 203 -160 c 258
 238 -160 l 258
 260 -160 276 -147 279 -125 c 257
 297 -9 l 257
 425 11 505 105 530 260 c 256
 534 285 536 309 536 331 c 256
  PathStart: -2
366 427 m 257
 408 411 430 374 430 313 c 256
 430 297 428 279 425 260 c 256
 410 168 373 113 314 93 c 257
 366 427 l 257
261 427 m 257
 209 93 l 257
 167 109 145 146 145 207 c 256
 145 223 147 241 150 260 c 256
 165 352 202 407 261 427 c 257
  PathStart: -2
EndSplineSet
PickledDataWithLists: "(dp0
Vcom.schriftgestaltung.Glyphs.lastChange
p1
V2016-05-30 10:13:41 +0000
p2
s."
EndChar

StartChar: uni0446
Encoding: 1094 1094 474
GlifName: uni0446
Width: 575
VWidth: 0
Flags: W
LayerCount: 2
Fore
SplineSet
504 485 m 258
 507 506 496 520 474 520 c 258
 439 520 l 258
 418 520 402 506 399 485 c 258
 337 98 l 257
 147 98 l 257
 209 485 l 258
 212 506 201 520 179 520 c 258
 144 520 l 258
 123 520 107 506 104 485 c 258
 32 35 l 258
 29 14 40 0 62 0 c 258
 404 0 l 257
 394 -65 l 258
 390 -86 402 -100 423 -100 c 258
 458 -100 l 258
 479 -100 495 -86 499 -65 c 258
 519 63 l 258
 522 84 511 98 489 98 c 258
 442 98 l 257
 504 485 l 258
EndSplineSet
PickledDataWithLists: "(dp0
Vcom.schriftgestaltung.Glyphs.lastChange
p1
V2016-05-30 07:56:43 +0000
p2
s."
EndChar

StartChar: uni0447
Encoding: 1095 1095 475
GlifName: uni0447
Width: 575
VWidth: 0
Flags: W
AnchorPoint: "top" 329 520 basechar 0
AnchorPoint: "bottomright" 514 0 basechar 0
LayerCount: 2
Fore
SplineSet
471 520 m 258
 449 520 434 507 431 485 c 258
 392 239 l 257
 351 237 315 236 293 236 c 256
 221 236 191 256 191 312 c 256
 191 324 193 337 195 352 c 258
 216 485 l 258
 219 506 208 520 186 520 c 258
 151 520 l 258
 129 520 114 507 111 485 c 258
 90 352 l 258
 86 330 85 310 85 292 c 256
 85 186 145 140 278 140 c 256
 299 140 335 141 377 144 c 257
 359 35 l 258
 356 14 367 0 389 0 c 258
 424 0 l 258
 445 0 461 14 464 35 c 258
 536 485 l 258
 539 506 528 520 506 520 c 258
 471 520 l 258
EndSplineSet
PickledDataWithLists: "(dp0
Vcom.schriftgestaltung.Glyphs.lastChange
p1
V2016-05-30 10:13:48 +0000
p2
s."
EndChar

StartChar: uni0448
Encoding: 1096 1096 476
GlifName: uni0448
Width: 575
VWidth: 0
Flags: W
LayerCount: 2
Fore
SplineSet
503 520 m 258
 482 520 466 506 463 485 c 258
 401 98 l 257
 314 98 l 257
 376 485 l 258
 379 506 368 520 346 520 c 258
 311 520 l 258
 290 520 274 506 271 485 c 258
 209 98 l 257
 122 98 l 257
 184 485 l 258
 187 506 176 520 154 520 c 258
 119 520 l 258
 98 520 82 506 79 485 c 258
 7 35 l 258
 4 14 15 0 37 0 c 258
 456 0 l 258
 477 0 493 14 496 35 c 258
 568 485 l 258
 571 506 560 520 538 520 c 258
 503 520 l 258
EndSplineSet
PickledDataWithLists: "(dp0
Vcom.schriftgestaltung.Glyphs.lastChange
p1
V2016-05-30 07:57:20 +0000
p2
s."
EndChar

StartChar: uni0449
Encoding: 1097 1097 477
GlifName: uni0449
Width: 575
VWidth: 0
Flags: W
LayerCount: 2
Fore
SplineSet
568 485 m 258
 571 506 559 520 538 520 c 258
 503 520 l 258
 482 520 466 506 463 485 c 258
 401 98 l 257
 314 98 l 257
 376 485 l 258
 379 506 367 520 346 520 c 258
 311 520 l 258
 290 520 274 506 271 485 c 258
 209 98 l 257
 122 98 l 257
 184 485 l 258
 187 506 175 520 154 520 c 258
 119 520 l 258
 98 520 82 506 79 485 c 258
 7 35 l 258
 4 14 16 0 37 0 c 258
 404 0 l 257
 386 -115 l 258
 382 -136 394 -150 415 -150 c 258
 450 -150 l 258
 471 -150 487 -136 491 -115 c 258
 519 63 l 258
 521 78 516 89 506 94 c 257
 568 485 l 258
EndSplineSet
PickledDataWithLists: "(dp0
Vcom.schriftgestaltung.Glyphs.lastChange
p1
V2016-05-30 07:57:56 +0000
p2
s."
EndChar

StartChar: uni044A
Encoding: 1098 1098 478
GlifName: uni044A_
Width: 575
VWidth: 0
Flags: W
LayerCount: 2
Fore
SplineSet
263 340 m 257
 286 484 l 258
 290 504 276 520 256 520 c 258
 116 520 l 258
 95 520 79 506 76 485 c 258
 71 458 l 258
 68 437 80 423 101 423 c 258
 171 423 l 257
 109 35 l 258
 106 14 118 0 139 0 c 258
 264 0 l 258
 408 0 495 60 513 170 c 256
 515 181 516 192 516 202 c 256
 516 292 448 340 318 340 c 258
 263 340 l 257
224 96 m 257
 247 244 l 257
 302 244 l 258
 363 244 409 238 409 186 c 256
 409 181 409 176 408 170 c 256
 397 103 345 96 279 96 c 258
 224 96 l 257
EndSplineSet
PickledDataWithLists: "(dp0
Vcom.schriftgestaltung.Glyphs.lastChange
p1
V2016-05-30 10:13:59 +0000
p2
s."
EndChar

StartChar: uni044B
Encoding: 1099 1099 479
GlifName: uni044B_
Width: 575
VWidth: 0
Flags: W
AnchorPoint: "top" 341 520 basechar 0
LayerCount: 2
Fore
SplineSet
206 485 m 257
 209 506 197 520 176 520 c 258
 141 520 l 258
 120 520 104 506 101 485 c 258
 29 35 l 258
 26 14 38 0 59 0 c 258
 119 0 l 258
 255 0 330 55 348 170 c 256
 350 184 351 197 351 210 c 256
 351 296 296 337 183 340 c 257
 206 485 l 257
481 520 m 258
 460 520 444 506 441 485 c 258
 369 35 l 258
 366 14 378 0 399 0 c 258
 434 0 l 258
 455 0 471 14 474 35 c 258
 546 485 l 258
 549 506 537 520 516 520 c 258
 481 520 l 258
167 244 m 257
 219 243 245 236 245 194 c 256
 245 187 244 179 243 170 c 256
 233 106 203 97 144 96 c 257
 167 244 l 257
EndSplineSet
PickledDataWithLists: "(dp0
Vcom.schriftgestaltung.Glyphs.lastChange
p1
V2016-05-30 10:14:04 +0000
p2
s."
EndChar

StartChar: uni044C
Encoding: 1100 1100 480
GlifName: uni044C_
Width: 575
VWidth: 0
Flags: W
LayerCount: 2
Fore
SplineSet
193 340 m 257
 216 485 l 258
 219 506 207 520 186 520 c 258
 151 520 l 258
 130 520 114 506 111 485 c 258
 39 35 l 258
 36 14 48 0 69 0 c 258
 264 0 l 258
 408 0 495 60 513 170 c 256
 515 181 516 192 516 202 c 256
 516 292 448 340 318 340 c 258
 193 340 l 257
154 96 m 257
 177 244 l 257
 302 244 l 258
 363 244 409 238 409 186 c 256
 409 181 409 176 408 170 c 256
 397 103 345 96 279 96 c 258
 154 96 l 257
EndSplineSet
PickledDataWithLists: "(dp0
Vcom.schriftgestaltung.Glyphs.lastChange
p1
V2016-05-30 10:13:54 +0000
p2
s."
EndChar

StartChar: uni044D
Encoding: 1101 1101 481
GlifName: uni044D_
Width: 575
VWidth: 0
Flags: W
AnchorPoint: "top" 329 520 basechar 0
LayerCount: 2
Fore
SplineSet
131 499 m 256
 111 491 100 474 106 453 c 258
 112 429 l 258
 117 409 132 402 154 410 c 256
 197 427 234 432 274 432 c 256
 357 432 399 391 399 308 c 257
 164 308 l 258
 145 308 126 292 123 273 c 258
 119 248 l 258
 116 229 130 213 149 213 c 258
 384 213 l 257
 358 130 303 88 220 88 c 256
 181 88 148 95 105 110 c 257
 88 118 69 111 58 91 c 258
 44 67 l 258
 32 46 37 29 55 21 c 256
 100 1 151 -10 204 -10 c 256
 362 -10 473 91 500 260 c 256
 503 282 505 303 505 322 c 256
 505 453 428 530 290 530 c 256
 237 530 182 519 131 499 c 256
  PathStart: -2
EndSplineSet
PickledDataWithLists: "(dp0
Vcom.schriftgestaltung.Glyphs.lastChange
p1
V2016-05-30 10:14:08 +0000
p2
s."
EndChar

StartChar: uni044E
Encoding: 1102 1102 482
GlifName: uni044E_
Width: 575
VWidth: 0
Flags: W
AnchorPoint: "top" 329 520 basechar 0
LayerCount: 2
Fore
SplineSet
345 86 m 256
 316 86 302 104 302 149 c 256
 302 167 304 188 308 213 c 258
 322 307 l 258
 337 399 360 434 401 434 c 256
 430 434 443 416 443 372 c 256
 443 355 441 333 437 307 c 258
 423 213 l 258
 408 121 385 86 345 86 c 256
  PathStart: -2
220 320 m 257
 155 320 l 257
 181 485 l 258
 184 507 174 520 151 520 c 258
 116 520 l 258
 95 520 79 506 76 485 c 258
 4 35 l 258
 1 14 12 0 34 0 c 258
 69 0 l 258
 91 0 106 13 109 35 c 258
 139 223 l 257
 204 223 l 257
 203 213 l 258
 198 183 196 156 196 132 c 256
 196 33 238 -10 330 -10 c 256
 444 -10 503 57 528 213 c 258
 542 307 l 258
 547 338 549 365 549 389 c 256
 549 487 508 530 416 530 c 256
 305 530 245 466 220 320 c 257
  PathStart: -2
EndSplineSet
PickledDataWithLists: "(dp0
Vcom.schriftgestaltung.Glyphs.lastChange
p1
V2016-05-30 10:14:16 +0000
p2
s."
EndChar

StartChar: uni044F
Encoding: 1103 1103 483
GlifName: uni044F_
Width: 575
VWidth: 0
Flags: W
AnchorPoint: "top" 329 520 basechar 0
LayerCount: 2
Fore
SplineSet
308 520 m 258
 195 520 106 457 92 366 c 256
 91 358 90 350 90 342 c 256
 90 291 118 251 168 231 c 257
 51 60 l 258
 32 31 46 0 78 0 c 258
 109 0 l 258
 120 0 133 7 140 17 c 258
 141 18 l 257
 269 212 l 257
 397 212 l 257
 369 35 l 258
 366 16 379 0 399 0 c 258
 434 0 l 258
 453 0 471 16 474 35 c 258
 546 485 l 258
 549 507 538 520 516 520 c 258
 308 520 l 258
325 309 m 258
 238 309 196 326 196 359 c 256
 196 361 197 364 197 366 c 256
 202 400 241 424 293 424 c 258
 431 424 l 257
 413 309 l 257
 325 309 l 258
EndSplineSet
PickledDataWithLists: "(dp0
Vcom.schriftgestaltung.Glyphs.lastChange
p1
V2016-05-30 10:14:21 +0000
p2
s."
EndChar

StartChar: uni2113
Encoding: 8467 8467 511
GlifName: uni2113
Width: 575
VWidth: 0
Flags: W
LayerCount: 2
Fore
SplineSet
464 88 m 258
 463 108 444 120 422 115 c 256
 361 100 321 94 292 94 c 256
 234 94 216 117 225 179 c 258
 232 225 l 257
 349 338 484 497 501 604 c 256
 519 713 473 775 373 775 c 256
 271 775 205 713 186 599 c 258
 133 261 l 257
 108 239 84 218 61 200 c 256
 42 185 39 166 52 150 c 258
 70 128 l 257
 81 114 96 110 110 118 c 257
 115 122 l 257
 117 32 166 -10 268 -10 c 256
 309 -10 363 -3 433 12 c 257
 454 16 468 34 467 54 c 258
 464 88 l 258
361 678 m 256
 397 678 406 663 396 608 c 256
 388 557 339 479 258 388 c 257
 291 595 l 258
 301 657 319 678 361 678 c 256
  PathStart: -2
EndSplineSet
PickledDataWithLists: "(dp0
Vcom.schriftgestaltung.Glyphs.lastChange
p1
V2015-12-22 14:25:46 +0000
p2
s."
EndChar

